<?xml version="1.0" encoding="utf-8" standalone="no"?>
<!DOCTYPE svg PUBLIC "-//W3C//DTD SVG 1.1//EN"
  "http://www.w3.org/Graphics/SVG/1.1/DTD/svg11.dtd">
<svg xmlns:xlink="http://www.w3.org/1999/xlink" width="820.8pt" height="518.4pt" viewBox="0 0 820.8 518.4" xmlns="http://www.w3.org/2000/svg" version="1.1">
 <metadata>
  <rdf:RDF xmlns:dc="http://purl.org/dc/elements/1.1/" xmlns:cc="http://creativecommons.org/ns#" xmlns:rdf="http://www.w3.org/1999/02/22-rdf-syntax-ns#">
   <cc:Work>
    <dc:type rdf:resource="http://purl.org/dc/dcmitype/StillImage"/>
    <dc:date>2026-09-08T16:45:12.124934</dc:date>
    <dc:description>{"cad/conformal/conformal_120.step": "f030d59fc8130b57cfcb4367202cdd0e03a1c335850f33fa41d28e85eb623d96", "cad/conformal/conformal_120_design_unsupported.stl": "af7b05bcbda406473f02da2b28a6e8d4e1e2ff3d7fe6bf2f9f2e8e2e297b80be", "cad/conformal/conformal_120_geometry.json": "f1912e674491a2f8b83578a67a44e8e554b061086d115fb9e9fa18745fcdaaca", "cad/conformal/conformal_motion_results.json": "a7400030d41c89b816324ed2ab5f90e5c08123ff996014251105bfb5c7ef833c", "cad/conformal/host-envelope/allowed_host_volume.json": "d396ff3b498ec183c48d1ac10d5316188961f0fb56d6bcdc8a58506f0a896601", "cad/conformal/host-envelope/allowed_host_volume.step": "e38f7af75930d1121c8534b4ad38e2203dbbb6ee0551b9755a51fc5b01362d1f"}</dc:description>
    <dc:format>image/svg+xml</dc:format>
    <dc:creator>
     <cc:Agent>
      <dc:title>Matplotlib v3.10.1, https://matplotlib.org/</dc:title>
     </cc:Agent>
    </dc:creator>
   </cc:Work>
  </rdf:RDF>
 </metadata>
 <defs>
  <style type="text/css">*{stroke-linejoin: round; stroke-linecap: butt}</style>
 </defs>
 <g id="figure_1">
  <g id="patch_1">
   <path d="M 0 518.4
L 820.8 518.4
L 820.8 0
L 0 0
z
" style="fill: #fbfcfc"/>
  </g>
  <g id="axes_1">
   <g id="patch_2">
    <path d="M 123.023364 425.088
L 484.368636 425.088
L 484.368636 93.312
L 123.023364 93.312
z
" style="fill: #fbfcfc"/>
   </g>
   <g id="matplotlib.axis_1">
    <g id="xtick_1">
     <g id="line2d_1">
      <path d="M 146.79059 425.088
L 146.79059 93.312
" clip-path="url(#p1e6651f0ca)" style="fill: none; stroke: #dce4e7; stroke-width: 0.5; stroke-linecap: square"/>
     </g>
     <g id="line2d_2">
      <defs>
       <path id="mcf1d2acc5f" d="M 0 0
L 0 3.5
" style="stroke: #576b73; stroke-width: 0.8"/>
      </defs>
      <g>
       <use xlink:href="#mcf1d2acc5f" x="146.79059" y="425.088" style="fill: #576b73; stroke: #576b73; stroke-width: 0.8"/>
      </g>
     </g>
     <g id="text_1">
      <text style="font-size: 8px; font-family: 'DejaVu Sans'; text-anchor: middle; fill: #576b73" x="146.79059" y="438.16675" transform="rotate(-0 146.79059 438.16675)">−10</text>
     </g>
    </g>
    <g id="xtick_2">
     <g id="line2d_3">
      <path d="M 207.113499 425.088
L 207.113499 93.312
" clip-path="url(#p1e6651f0ca)" style="fill: none; stroke: #dce4e7; stroke-width: 0.5; stroke-linecap: square"/>
     </g>
     <g id="line2d_4">
      <g>
       <use xlink:href="#mcf1d2acc5f" x="207.113499" y="425.088" style="fill: #576b73; stroke: #576b73; stroke-width: 0.8"/>
      </g>
     </g>
     <g id="text_2">
      <text style="font-size: 8px; font-family: 'DejaVu Sans'; text-anchor: middle; fill: #576b73" x="207.113499" y="438.16675" transform="rotate(-0 207.113499 438.16675)">0</text>
     </g>
    </g>
    <g id="xtick_3">
     <g id="line2d_5">
      <path d="M 267.436408 425.088
L 267.436408 93.312
" clip-path="url(#p1e6651f0ca)" style="fill: none; stroke: #dce4e7; stroke-width: 0.5; stroke-linecap: square"/>
     </g>
     <g id="line2d_6">
      <g>
       <use xlink:href="#mcf1d2acc5f" x="267.436408" y="425.088" style="fill: #576b73; stroke: #576b73; stroke-width: 0.8"/>
      </g>
     </g>
     <g id="text_3">
      <text style="font-size: 8px; font-family: 'DejaVu Sans'; text-anchor: middle; fill: #576b73" x="267.436408" y="438.16675" transform="rotate(-0 267.436408 438.16675)">10</text>
     </g>
    </g>
    <g id="xtick_4">
     <g id="line2d_7">
      <path d="M 327.759317 425.088
L 327.759317 93.312
" clip-path="url(#p1e6651f0ca)" style="fill: none; stroke: #dce4e7; stroke-width: 0.5; stroke-linecap: square"/>
     </g>
     <g id="line2d_8">
      <g>
       <use xlink:href="#mcf1d2acc5f" x="327.759317" y="425.088" style="fill: #576b73; stroke: #576b73; stroke-width: 0.8"/>
      </g>
     </g>
     <g id="text_4">
      <text style="font-size: 8px; font-family: 'DejaVu Sans'; text-anchor: middle; fill: #576b73" x="327.759317" y="438.16675" transform="rotate(-0 327.759317 438.16675)">20</text>
     </g>
    </g>
    <g id="xtick_5">
     <g id="line2d_9">
      <path d="M 388.082226 425.088
L 388.082226 93.312
" clip-path="url(#p1e6651f0ca)" style="fill: none; stroke: #dce4e7; stroke-width: 0.5; stroke-linecap: square"/>
     </g>
     <g id="line2d_10">
      <g>
       <use xlink:href="#mcf1d2acc5f" x="388.082226" y="425.088" style="fill: #576b73; stroke: #576b73; stroke-width: 0.8"/>
      </g>
     </g>
     <g id="text_5">
      <text style="font-size: 8px; font-family: 'DejaVu Sans'; text-anchor: middle; fill: #576b73" x="388.082226" y="438.16675" transform="rotate(-0 388.082226 438.16675)">30</text>
     </g>
    </g>
    <g id="xtick_6">
     <g id="line2d_11">
      <path d="M 448.405135 425.088
L 448.405135 93.312
" clip-path="url(#p1e6651f0ca)" style="fill: none; stroke: #dce4e7; stroke-width: 0.5; stroke-linecap: square"/>
     </g>
     <g id="line2d_12">
      <g>
       <use xlink:href="#mcf1d2acc5f" x="448.405135" y="425.088" style="fill: #576b73; stroke: #576b73; stroke-width: 0.8"/>
      </g>
     </g>
     <g id="text_6">
      <text style="font-size: 8px; font-family: 'DejaVu Sans'; text-anchor: middle; fill: #576b73" x="448.405135" y="438.16675" transform="rotate(-0 448.405135 438.16675)">40</text>
     </g>
    </g>
    <g id="text_7">
     <text style="font-size: 9px; font-family: 'DejaVu Sans'; text-anchor: middle; fill: #576b73" x="303.696" y="450.669094" transform="rotate(-0 303.696 450.669094)">Away from board [mm]</text>
    </g>
   </g>
   <g id="matplotlib.axis_2">
    <g id="ytick_1">
     <g id="line2d_13">
      <path d="M 123.023364 376.829673
L 484.368636 376.829673
" clip-path="url(#p1e6651f0ca)" style="fill: none; stroke: #dce4e7; stroke-width: 0.5; stroke-linecap: square"/>
     </g>
     <g id="line2d_14">
      <defs>
       <path id="m6ca3494522" d="M 0 0
L -3.5 0
" style="stroke: #576b73; stroke-width: 0.8"/>
      </defs>
      <g>
       <use xlink:href="#m6ca3494522" x="123.023364" y="376.829673" style="fill: #576b73; stroke: #576b73; stroke-width: 0.8"/>
      </g>
     </g>
     <g id="text_8">
      <text style="font-size: 8px; font-family: 'DejaVu Sans'; text-anchor: end; fill: #576b73" x="116.023364" y="379.869048" transform="rotate(-0 116.023364 379.869048)">−30</text>
     </g>
    </g>
    <g id="ytick_2">
     <g id="line2d_15">
      <path d="M 123.023364 316.506764
L 484.368636 316.506764
" clip-path="url(#p1e6651f0ca)" style="fill: none; stroke: #dce4e7; stroke-width: 0.5; stroke-linecap: square"/>
     </g>
     <g id="line2d_16">
      <g>
       <use xlink:href="#m6ca3494522" x="123.023364" y="316.506764" style="fill: #576b73; stroke: #576b73; stroke-width: 0.8"/>
      </g>
     </g>
     <g id="text_9">
      <text style="font-size: 8px; font-family: 'DejaVu Sans'; text-anchor: end; fill: #576b73" x="116.023364" y="319.546139" transform="rotate(-0 116.023364 319.546139)">−20</text>
     </g>
    </g>
    <g id="ytick_3">
     <g id="line2d_17">
      <path d="M 123.023364 256.183855
L 484.368636 256.183855
" clip-path="url(#p1e6651f0ca)" style="fill: none; stroke: #dce4e7; stroke-width: 0.5; stroke-linecap: square"/>
     </g>
     <g id="line2d_18">
      <g>
       <use xlink:href="#m6ca3494522" x="123.023364" y="256.183855" style="fill: #576b73; stroke: #576b73; stroke-width: 0.8"/>
      </g>
     </g>
     <g id="text_10">
      <text style="font-size: 8px; font-family: 'DejaVu Sans'; text-anchor: end; fill: #576b73" x="116.023364" y="259.22323" transform="rotate(-0 116.023364 259.22323)">−10</text>
     </g>
    </g>
    <g id="ytick_4">
     <g id="line2d_19">
      <path d="M 123.023364 195.860945
L 484.368636 195.860945
" clip-path="url(#p1e6651f0ca)" style="fill: none; stroke: #dce4e7; stroke-width: 0.5; stroke-linecap: square"/>
     </g>
     <g id="line2d_20">
      <g>
       <use xlink:href="#m6ca3494522" x="123.023364" y="195.860945" style="fill: #576b73; stroke: #576b73; stroke-width: 0.8"/>
      </g>
     </g>
     <g id="text_11">
      <text style="font-size: 8px; font-family: 'DejaVu Sans'; text-anchor: end; fill: #576b73" x="116.023364" y="198.90032" transform="rotate(-0 116.023364 198.90032)">0</text>
     </g>
    </g>
    <g id="ytick_5">
     <g id="line2d_21">
      <path d="M 123.023364 135.538036
L 484.368636 135.538036
" clip-path="url(#p1e6651f0ca)" style="fill: none; stroke: #dce4e7; stroke-width: 0.5; stroke-linecap: square"/>
     </g>
     <g id="line2d_22">
      <g>
       <use xlink:href="#m6ca3494522" x="123.023364" y="135.538036" style="fill: #576b73; stroke: #576b73; stroke-width: 0.8"/>
      </g>
     </g>
     <g id="text_12">
      <text style="font-size: 8px; font-family: 'DejaVu Sans'; text-anchor: end; fill: #576b73" x="116.023364" y="138.577411" transform="rotate(-0 116.023364 138.577411)">10</text>
     </g>
    </g>
    <g id="text_13">
     <text style="font-size: 9px; font-family: 'DejaVu Sans'; text-anchor: middle; fill: #576b73" x="93.267895" y="259.2" transform="rotate(-90 93.267895 259.2)">Height above upper hole [mm]</text>
    </g>
   </g>
   <g id="patch_3">
    <path d="M 185.222251 214.772875
L 184.661259 214.667376
L 184.104151 214.542982
L 183.551566 214.399832
L 183.004133 214.238093
L 182.462478 214.057947
L 181.92722 213.859601
L 181.39897 213.643282
L 180.878331 213.409235
L 180.365898 213.15773
L 179.862256 212.889053
L 179.367981 212.60351
L 178.883637 212.301428
L 178.409777 211.983153
L 177.946943 211.649047
L 177.495663 211.299492
L 177.056452 210.934888
L 176.629813 210.55565
L 176.216232 210.162212
L 175.816181 209.755024
L 175.430119 209.33455
L 175.058485 208.901271
L 174.701705 208.455681
L 174.360185 207.99829
L 174.034316 207.52962
L 173.72447 207.050206
L 173.431001 206.560596
L 173.154243 206.061348
L 169.830832 204.067302
L 169.647146 204.026621
L 169.075395 203.887752
L 168.50976 203.725765
L 167.951173 203.54093
L 167.466305 203.358313
L 167.012585 203.203924
L 166.667633 203.070674
L 166.633365 203.060233
L 166.077973 202.86601
L 165.815104 202.761914
L 165.701081 202.726118
L 165.147344 202.527223
L 164.965698 202.453514
L 164.772747 202.391149
L 164.220707 202.187595
L 164.119401 202.145489
L 163.848373 202.055359
L 163.298067 201.84716
L 163.276201 201.837855
L 162.927964 201.71878
L 162.379432 201.505952
L 162.004713 201.342749
L 161.551681 201.162469
L 161.014294 200.922889
L 160.487086 200.661673
L 159.970926 200.37925
L 159.737336 200.238814
L 159.341319 200.017463
L 159.20585 199.934345
L 158.716453 199.654974
L 158.637124 199.60531
L 158.604662 199.588116
L 158.096336 199.291826
L 158.060358 199.268848
L 157.986604 199.228927
L 157.496197 198.937122
L 157.373264 198.869141
L 156.983082 198.632179
L 156.764647 198.5088
L 156.472749 198.327901
L 156.160758 198.147946
L 155.965187 198.024288
L 155.561601 197.786623
L 155.460384 197.721339
L 154.967181 197.424874
L 154.475633 197.10151
L 154.449451 197.082719
L 154.411813 197.059627
L 153.923219 196.731819
L 153.448347 196.384429
L 152.987983 196.01803
L 152.542886 195.633229
L 152.113793 195.23066
L 151.701411 194.810988
L 151.306422 194.374907
L 151.067015 194.087977
L 150.957281 193.964537
L 150.739854 193.698963
L 150.613458 193.554086
L 150.416967 193.309474
L 150.274954 193.143604
L 150.098369 192.919533
L 149.941767 192.73314
L 149.784076 192.529166
L 149.613898 192.322744
L 149.474102 192.138397
L 149.291346 191.912465
L 149.168465 191.747252
L 148.974109 191.502352
L 148.86718 191.355756
L 148.82491 191.301464
L 148.541739 191.071221
L 148.100685 190.681792
L 147.675819 190.274765
L 147.267842 189.85081
L 146.877427 189.410628
L 146.505221 188.954947
L 146.151838 188.484518
L 145.817861 188.000119
L 145.503841 187.50255
L 145.210299 186.992632
L 144.937718 186.471209
L 144.686548 185.93914
L 144.457206 185.397305
L 144.250068 184.846599
L 144.065478 184.287932
L 143.90374 183.722225
L 143.765121 183.150414
L 143.649851 182.573443
L 143.55812 181.992264
L 143.490079 181.407838
L 143.445841 180.821131
L 143.425478 180.23311
L 143.429025 179.644747
L 143.456475 179.057015
L 143.507784 178.470883
L 143.582865 177.88732
L 143.681597 177.307289
L 143.803814 176.73175
L 143.949316 176.161651
L 144.117863 175.597936
L 144.309175 175.041534
L 144.522936 174.493365
L 144.758795 173.954335
L 145.016361 173.425333
L 145.216277 173.053887
L 145.270045 172.941905
L 145.546055 172.422289
L 145.842951 171.914316
L 146.160241 171.418827
L 146.497402 170.936639
L 146.853878 170.468548
L 147.229078 170.015329
L 147.622384 169.577729
L 148.033145 169.156471
L 148.460684 168.752251
L 148.904294 168.365737
L 149.363243 167.997567
L 149.836772 167.648349
L 150.324099 167.31866
L 150.824421 167.009045
L 151.336909 166.720014
L 151.860718 166.452045
L 152.394983 166.205581
L 152.93882 165.981029
L 153.491333 165.77876
L 154.051608 165.599108
L 154.61872 165.442369
L 155.191732 165.308802
L 155.769698 165.198629
L 156.351664 165.11203
L 156.936667 165.04915
L 157.523743 165.010091
L 158.11192 164.994919
L 158.60086 165.000503
L 159.089333 165.022595
L 159.576781 165.06117
L 160.062648 165.116185
L 160.54638 165.187575
L 161.027426 165.275261
L 161.505236 165.379141
L 161.979265 165.499097
L 162.448974 165.634993
L 162.913825 165.786674
L 163.373288 165.953965
L 163.826841 166.136678
L 164.273964 166.334602
L 164.714149 166.547513
L 165.146892 166.775167
L 165.571701 167.017306
L 179.995643 175.564759
L 180.330734 175.759138
L 180.6726 175.953217
L 181.021232 176.146869
L 181.376618 176.339966
L 181.738744 176.532381
L 182.107593 176.723987
L 182.483147 176.914658
L 182.865384 177.104269
L 183.237166 177.2844
L 183.30692 177.306992
L 183.343096 177.318349
L 183.452838 177.346564
L 183.758928 177.364727
L 184.12466 177.398854
L 184.551218 177.394722
L 185.040048 177.4065
L 185.340763 177.42392
L 185.382314 177.420704
L 185.870824 177.399459
L 186.359773 177.394722
L 186.848603 177.4065
L 187.149317 177.42392
L 187.190868 177.420704
L 187.679378 177.399459
L 188.168327 177.394722
L 188.657157 177.4065
L 188.957872 177.42392
L 188.999422 177.420704
L 189.487932 177.399459
L 189.976881 177.394722
L 190.465711 177.4065
L 190.766426 177.42392
L 190.807976 177.420704
L 191.296486 177.399459
L 191.785435 177.394722
L 192.274265 177.4065
L 192.57498 177.42392
L 192.616531 177.420704
L 193.105041 177.399459
L 193.59399 177.394722
L 194.08282 177.4065
L 194.383534 177.42392
L 194.425085 177.420704
L 194.913595 177.399459
L 195.402544 177.394722
L 195.891374 177.4065
L 196.192089 177.42392
L 196.233639 177.420704
L 196.722149 177.399459
L 197.211098 177.394722
L 197.699928 177.4065
L 198.000643 177.42392
L 198.042193 177.420704
L 198.530703 177.399459
L 199.019652 177.394722
L 199.508482 177.4065
L 199.809197 177.42392
L 199.850748 177.420704
L 200.339258 177.399459
L 200.828207 177.394722
L 201.317037 177.4065
L 201.617751 177.42392
L 201.659302 177.420704
L 202.147812 177.399459
L 202.636761 177.394722
L 203.125591 177.4065
L 203.426306 177.42392
L 203.467856 177.420704
L 203.956366 177.399459
L 204.445315 177.394722
L 204.934145 177.4065
L 205.23486 177.42392
L 205.27641 177.420704
L 205.76492 177.399459
L 206.253869 177.394722
L 206.742699 177.4065
L 207.043414 177.42392
L 207.084965 177.420704
L 207.113499 177.419463
L 207.113499 165.699491
L 207.32851 165.699491
L 207.324011 164.876638
L 207.376709 164.876349
L 207.374254 164.710268
L 207.428383 164.709468
L 207.42446 164.546575
L 207.479985 164.545238
L 207.474651 164.38556
L 207.531537 164.38366
L 207.524853 164.227222
L 207.583064 164.224734
L 207.575091 164.07156
L 207.634592 164.068463
L 207.62539 163.918575
L 207.686144 163.914845
L 207.675774 163.768265
L 207.737744 163.763882
L 207.726269 163.620631
L 207.789419 163.615572
L 207.7769 163.47567
L 207.841191 163.469917
L 207.827691 163.333381
L 207.893085 163.326916
L 207.878668 163.193764
L 207.945127 163.186568
L 207.929854 163.056815
L 207.99734 163.048871
L 207.981276 162.922532
L 208.04975 162.913826
L 208.032957 162.790915
L 208.10238 162.78143
L 208.084923 162.661959
L 208.155255 162.651682
L 208.137198 162.535662
L 208.2084 162.52458
L 208.189807 162.412022
L 208.26184 162.400123
L 208.242775 162.291034
L 208.494857 162.24698
L 208.480587 162.169479
L 208.767638 162.116625
L 208.754709 162.049796
L 209.041744 161.994263
L 209.029235 161.932596
L 209.316185 161.874388
L 209.30419 161.817875
L 209.590984 161.757
L 209.579594 161.705629
L 209.866162 161.642095
L 209.855471 161.595854
L 210.141742 161.52967
L 210.131843 161.488547
L 210.417747 161.419724
L 210.408731 161.383701
L 210.6942 161.312252
L 210.686159 161.281313
L 210.971122 161.207251
L 210.964148 161.181377
L 216.736142 159.625511
L 221.899986 158.185738
L 223.252259 157.79639
L 224.599528 157.396159
L 225.941594 156.985137
L 227.278256 156.563417
L 228.609319 156.131098
L 239.800611 152.391716
L 239.861815 152.574888
L 240.839118 152.241122
L 240.908919 152.445505
L 241.90442 152.098245
L 241.97825 152.309897
L 242.969061 151.956995
L 243.058122 152.207042
L 244.087898 151.832988
L 244.21081 152.171366
L 245.348752 151.750893
L 245.476172 152.095736
L 246.609156 151.66997
L 246.779896 152.124315
L 248.108601 151.61973
L 248.321153 152.179436
L 249.841703 151.599554
L 250.071338 152.201696
L 251.650258 151.599554
L 251.879892 152.201696
L 253.458812 151.599554
L 253.688446 152.201696
L 255.267366 151.599554
L 255.497001 152.201696
L 257.07592 151.599554
L 257.305555 152.201696
L 258.884475 151.599554
L 259.114109 152.201696
L 260.693029 151.599554
L 260.922663 152.201696
L 262.501583 151.599554
L 262.731218 152.201696
L 264.310137 151.599554
L 264.539772 152.201696
L 266.118692 151.599554
L 266.348326 152.201696
L 267.927246 151.599554
L 268.15688 152.201696
L 269.7358 151.599554
L 269.965435 152.201696
L 271.544354 151.599554
L 271.773989 152.201696
L 273.352909 151.599554
L 273.582543 152.201696
L 275.161463 151.599554
L 275.391097 152.201696
L 276.970017 151.599554
L 277.199652 152.201696
L 278.778571 151.599554
L 279.008206 152.201696
L 280.587126 151.599554
L 280.81676 152.201696
L 282.39568 151.599554
L 282.625314 152.201696
L 284.204234 151.599554
L 284.433869 152.201696
L 286.012788 151.599554
L 286.242423 152.201696
L 287.821343 151.599554
L 288.050977 152.201696
L 289.629897 151.599554
L 289.859531 152.201696
L 291.438451 151.599554
L 291.668086 152.201696
L 293.247005 151.599554
L 293.47664 152.201696
L 295.05556 151.599554
L 295.285194 152.201696
L 296.864114 151.599554
L 297.093748 152.201696
L 298.672668 151.599554
L 298.902303 152.201696
L 300.481222 151.599554
L 300.710857 152.201696
L 302.289777 151.599554
L 302.519411 152.201696
L 304.098331 151.599554
L 304.327965 152.201696
L 305.906885 151.599554
L 306.13652 152.201696
L 307.715439 151.599554
L 307.945074 152.201696
L 309.523994 151.599554
L 309.753628 152.201696
L 311.332548 151.599554
L 311.562182 152.201696
L 313.141102 151.599554
L 313.370737 152.201696
L 314.949656 151.599554
L 315.179291 152.201696
L 316.758211 151.599554
L 316.987845 152.201696
L 318.566765 151.599554
L 318.796399 152.201696
L 320.375319 151.599554
L 320.604954 152.201696
L 322.183873 151.599554
L 322.413508 152.201696
L 323.992428 151.599554
L 324.222062 152.201696
L 325.800982 151.599554
L 326.030616 152.201696
L 327.609536 151.599554
L 327.839171 152.201696
L 329.41809 151.599554
L 329.647725 152.201696
L 331.226645 151.599554
L 331.456279 152.201696
L 333.035199 151.599554
L 333.264833 152.201696
L 334.843753 151.599554
L 335.073388 152.201696
L 336.652307 151.599554
L 336.881942 152.201696
L 338.460862 151.599554
L 338.690496 152.201696
L 340.269416 151.599554
L 340.49905 152.201696
L 342.07797 151.599554
L 342.307605 152.201696
L 343.886524 151.599554
L 344.116159 152.201696
L 345.695079 151.599554
L 345.924713 152.201696
L 347.503633 151.599554
L 347.733267 152.201696
L 349.312187 151.599554
L 349.541822 152.201696
L 351.120741 151.599554
L 351.350376 152.201696
L 352.929296 151.599554
L 353.15893 152.201696
L 354.73785 151.599554
L 354.967484 152.201696
L 356.546404 151.599554
L 356.776039 152.201696
L 358.354958 151.599554
L 358.584593 152.201696
L 360.163513 151.599554
L 360.393147 152.201696
L 361.972067 151.599554
L 362.201701 152.201696
L 363.780621 151.599554
L 364.010256 152.201696
L 365.589175 151.599554
L 365.81881 152.201696
L 367.39773 151.599554
L 367.627364 152.201696
L 369.206284 151.599554
L 369.435918 152.201696
L 371.014838 151.599554
L 371.244473 152.201696
L 372.823392 151.599554
L 373.053027 152.201696
L 374.631947 151.599554
L 374.861581 152.201696
L 376.440501 151.599554
L 376.670135 152.201696
L 378.249055 151.599554
L 378.47869 152.201696
L 380.057609 151.599554
L 380.287244 152.201696
L 381.866164 151.599554
L 382.095798 152.201696
L 383.674718 151.599554
L 383.904352 152.201696
L 385.483272 151.599554
L 385.712907 152.201696
L 387.291826 151.599554
L 387.521461 152.201696
L 389.100381 151.599554
L 389.288213 152.092082
L 390.483772 151.639978
L 390.574629 151.880243
L 390.849309 151.779348
L 390.937876 152.020468
L 391.213503 151.922191
L 391.299773 152.164142
L 391.576322 152.068491
L 391.660286 152.311252
L 391.937733 152.218237
L 392.019383 152.461786
L 392.297703 152.371415
L 392.377032 152.615729
L 392.656199 152.52801
L 392.7332 152.773068
L 393.013189 152.688009
L 393.087856 152.933789
L 393.368641 152.851397
L 393.440966 153.097876
L 393.722522 153.018159
L 393.792499 153.265315
L 394.074801 153.188281
L 394.142423 153.436091
L 394.425445 153.361746
L 394.490706 153.610189
L 394.774423 153.53854
L 394.837318 153.787592
L 395.121703 153.718646
L 395.182226 153.968285
L 395.467254 153.902047
L 395.525399 154.152251
L 395.811045 154.088728
L 395.866806 154.339473
L 396.153043 154.278671
L 396.206417 154.529936
L 396.49322 154.471859
L 396.5442 154.72362
L 396.831543 154.668275
L 396.880126 154.92051
L 397.167982 154.867901
L 397.214163 155.120586
L 397.502506 155.070718
L 397.546281 155.323832
L 397.835086 155.276709
L 397.876451 155.530228
L 398.165691 155.485855
L 398.204642 155.739756
L 398.494291 155.698137
L 398.530825 155.952396
L 398.820857 155.913535
L 398.85497 156.168131
L 399.145358 156.132031
L 399.177048 156.386939
L 399.467767 156.353603
L 399.49703 156.608802
L 399.788052 156.578234
L 399.814886 156.833699
L 400.106186 156.805901
L 400.130588 157.06161
L 400.42214 157.036584
L 400.444108 157.292514
L 400.735885 157.270263
L 400.755417 157.526391
L 401.047392 157.506917
L 401.064486 157.763218
L 401.356634 157.746523
L 401.371289 158.002976
L 401.663582 157.989061
L 401.675796 158.245641
L 401.968208 158.234508
L 401.977982 158.491192
L 402.270486 158.482841
L 402.277817 158.739608
L 402.570388 158.73404
L 402.575275 158.990864
L 402.867886 158.98808
L 402.87033 159.24494
L 403.162953 159.24494
L 403.162953 185.169156
L 466.271764 352.055835
L 464.640952 352.672533
L 464.72714 352.907173
L 463.090534 353.508327
L 463.174486 353.743777
L 461.532235 354.329334
L 461.613943 354.565571
L 459.966196 355.135477
L 460.045652 355.372482
L 458.392558 355.926685
L 458.469756 356.164435
L 456.811464 356.702886
L 456.886396 356.94136
L 455.223056 357.46401
L 455.295717 357.703185
L 453.627479 358.209987
L 453.697861 358.449843
L 452.024878 358.94075
L 452.092974 359.181265
L 450.415396 359.656233
L 450.481201 359.897385
L 448.799181 360.356372
L 448.862688 360.598139
L 447.176377 361.041102
L 447.237582 361.283462
L 445.547132 361.710362
L 445.606028 361.953294
L 443.911594 362.364092
L 443.968176 362.607573
L 442.269911 363.002231
L 442.324174 363.246239
L 440.62223 363.624723
L 440.674169 363.869236
L 438.968702 364.231511
L 439.018313 364.476507
L 437.309476 364.82254
L 437.356753 365.067997
L 435.644701 365.397757
L 435.689642 365.643653
L 433.97453 365.957109
L 434.017129 366.203421
L 432.299113 366.500546
L 432.339366 366.747252
L 430.618601 367.028018
L 430.656505 367.275097
L 428.933147 367.539479
L 428.968699 367.786907
L 427.242903 368.034881
L 427.2761 368.282636
L 425.548023 368.51418
L 425.578861 368.762239
L 423.848659 368.977333
L 423.877136 369.225674
L 422.144966 369.424297
L 422.171079 369.672898
L 420.437098 369.855032
L 420.460844 370.10387
L 418.725209 370.269499
L 418.746586 370.518552
L 417.009454 370.66766
L 417.028461 370.916906
L 415.289989 371.049481
L 415.306624 371.298895
L 413.566969 371.414925
L 413.58123 371.664486
L 411.84055 371.76396
L 411.852436 372.013646
L 410.110889 372.096554
L 410.120399 372.346342
L 408.378141 372.412677
L 408.385275 372.662544
L 406.642465 372.712301
L 406.647221 372.962225
L 404.904016 372.995399
L 404.906395 373.245356
L 403.162953 373.261944
L 403.162953 373.511913
L 376.922488 373.511913
L 376.922488 363.191836
L 376.153203 363.294912
L 375.91519 363.113146
L 374.50573 363.288365
L 374.269457 363.104342
L 372.858394 363.266144
L 372.623883 363.079881
L 371.211345 363.228252
L 370.978616 363.039766
L 369.56473 363.174691
L 369.333805 362.984
L 367.918699 363.105467
L 367.689599 362.912588
L 366.273401 363.020586
L 366.046146 362.825536
L 364.628986 362.920056
L 364.403597 362.722853
L 362.985601 362.803886
L 362.762098 362.604547
L 361.343396 362.672086
L 361.1218 362.47063
L 359.702519 362.524668
L 359.482849 362.321113
L 358.063118 362.361646
L 357.845396 362.15601
L 356.425343 362.183034
L 356.209587 361.975336
L 354.789342 361.988848
L 354.575571 361.779107
L 353.155262 361.779107
L 352.468993 361.092838
L 352.313004 361.152326
L 352.180171 360.804016
L 351.969692 360.593537
L 350.504449 361.152326
L 350.274815 360.550184
L 348.695895 361.152326
L 348.466261 360.550184
L 346.887341 361.152326
L 346.657706 360.550184
L 345.078787 361.152326
L 344.849152 360.550184
L 343.270232 361.152326
L 343.040598 360.550184
L 341.461678 361.152326
L 341.232044 360.550184
L 339.653124 361.152326
L 339.423489 360.550184
L 337.84457 361.152326
L 337.614935 360.550184
L 336.036015 361.152326
L 335.806381 360.550184
L 334.227461 361.152326
L 333.997827 360.550184
L 332.418907 361.152326
L 332.189272 360.550184
L 330.610353 361.152326
L 330.380718 360.550184
L 328.801798 361.152326
L 328.572164 360.550184
L 326.993244 361.152326
L 326.76361 360.550184
L 325.18469 361.152326
L 324.955055 360.550184
L 323.376136 361.152326
L 323.146501 360.550184
L 321.567581 361.152326
L 321.337947 360.550184
L 319.759027 361.152326
L 319.529393 360.550184
L 317.950473 361.152326
L 317.720838 360.550184
L 316.141919 361.152326
L 315.912284 360.550184
L 314.333364 361.152326
L 314.10373 360.550184
L 312.52481 361.152326
L 312.295176 360.550184
L 310.716256 361.152326
L 310.486621 360.550184
L 308.907702 361.152326
L 308.678067 360.550184
L 307.099147 361.152326
L 306.869513 360.550184
L 305.290593 361.152326
L 305.060959 360.550184
L 303.482039 361.152326
L 303.252404 360.550184
L 301.673485 361.152326
L 301.447922 360.56086
L 299.646425 361.244992
L 299.443993 360.711935
L 297.419301 361.472799
L 297.242494 361.002309
L 294.999361 361.831152
L 294.827803 361.366856
L 292.577456 362.184267
L 292.43458 361.790926
L 290.142323 362.607371
L 290.013421 362.245465
L 287.700287 363.052354
L 287.656181 362.925913
L 285.728121 363.408482
L 285.789566 363.663735
L 283.625523 364.184664
L 283.685825 364.445495
L 281.517503 364.946799
L 281.576568 365.213205
L 279.404191 365.694839
L 279.461921 365.966817
L 277.285712 366.428739
L 277.342011 366.706281
L 275.162196 367.148452
L 275.216967 367.431552
L 273.03377 367.853935
L 273.086917 368.142583
L 270.925705 368.540516
L 270.978328 368.841629
L 268.943821 369.197186
L 269.000055 369.537616
L 266.963294 369.874059
L 267.016872 370.218309
L 264.978067 370.535625
L 265.028921 370.883665
L 262.988282 371.181838
L 263.036346 371.533639
L 260.994084 371.81266
L 261.039291 372.168189
L 258.995615 372.428049
L 259.037897 372.787274
L 256.993018 373.027968
L 257.032311 373.390855
L 254.986439 373.612379
L 255.022676 373.978892
L 252.97602 374.181246
L 253.009137 374.55135
L 250.961908 374.734535
L 250.99184 375.108191
L 248.944247 375.272212
L 248.970929 375.649383
L 246.923182 375.794247
L 246.946551 376.174892
L 244.898859 376.300608
L 244.918852 376.684686
L 242.871423 376.791267
L 242.887979 377.178735
L 240.841022 377.266195
L 240.854077 377.657011
L 238.8078 377.725366
L 238.817294 378.119485
L 236.771905 378.168756
L 236.777778 378.566132
L 234.733484 378.596341
L 234.735674 378.996927
L 233.353964 379.004482
L 233.353964 379.966464
L 207.113499 379.966464
L 207.113499 368.233658
L 183.346273 368.233658
L 180.330127 365.217513
L 180.330127 337.468975
L 183.346273 334.452829
L 183.792011 334.452829
L 184.479866 333.75741
L 191.240424 333.720443
L 193.203803 333.69143
L 195.169698 333.644074
L 197.137878 333.578327
L 199.108111 333.494145
L 201.080166 333.391488
L 203.053808 333.270318
L 205.028804 333.130601
L 207.004919 332.972306
L 207.113499 332.96259
L 207.113499 215.013469
L 188.062952 215.013469
L 187.492207 215.003823
L 186.922115 214.974897
L 186.353325 214.926723
L 185.786488 214.859357
z
" clip-path="url(#p1e6651f0ca)" style="fill: #dcebe4; stroke: #a4c2b2; stroke-width: 0.8; stroke-linejoin: miter"/>
   </g>
   <g id="patch_4">
    <path d="M 183.346273 425.088
L 207.113499 425.088
L 207.113499 368.233658
L 183.346273 368.233658
z
" clip-path="url(#p1e6651f0ca)" style="fill: #e5d8bd; stroke: #ab9975; stroke-width: 0.8; stroke-linejoin: miter"/>
   </g>
   <g id="patch_5">
    <path d="M 183.346273 329.928611
L 207.113499 329.928611
L 207.113499 215.013469
L 183.346273 215.013469
z
" clip-path="url(#p1e6651f0ca)" style="fill: #e5d8bd; stroke: #ab9975; stroke-width: 0.8; stroke-linejoin: miter"/>
   </g>
   <g id="patch_6">
    <path d="M 183.346273 176.708422
L 207.113499 176.708422
L 207.113499 93.312
L 183.346273 93.312
z
" clip-path="url(#p1e6651f0ca)" style="fill: #e5d8bd; stroke: #ab9975; stroke-width: 0.8; stroke-linejoin: miter"/>
   </g>
   <g id="line2d_23">
    <path d="M 171.281691 195.860945
L 243.307244 195.860945
" clip-path="url(#p1e6651f0ca)" style="fill: none; stroke-dasharray: 2.22,0.96; stroke-dashoffset: 0; stroke: #576b73; stroke-width: 0.6"/>
   </g>
   <g id="line2d_24">
    <path d="M 171.281691 349.081135
L 243.307244 349.081135
" clip-path="url(#p1e6651f0ca)" style="fill: none; stroke-dasharray: 2.22,0.96; stroke-dashoffset: 0; stroke: #576b73; stroke-width: 0.6"/>
   </g>
   <g id="patch_7">
    <path d="M 123.023364 425.088
L 123.023364 93.312
" style="fill: none; stroke: #dddeda; stroke-width: 0.8; stroke-linejoin: miter; stroke-linecap: square"/>
   </g>
   <g id="patch_8">
    <path d="M 123.023364 425.088
L 484.368636 425.088
" style="fill: none; stroke: #dddeda; stroke-width: 0.8; stroke-linejoin: miter; stroke-linecap: square"/>
   </g>
   <g id="patch_9">
    <path d="M 150.633855 191.716659
L 173.335212 205.337474
L 173.611969 205.836721
L 173.905439 206.326331
L 174.215285 206.805745
L 174.541154 207.274415
L 174.882674 207.731807
L 175.239454 208.177396
L 175.611088 208.610675
L 175.99715 209.031149
L 176.3972 209.438337
L 176.810781 209.831775
L 177.237421 210.211013
L 177.676632 210.575617
L 178.127912 210.925172
L 178.590746 211.259278
L 179.064606 211.577553
L 179.54895 211.879635
L 180.043225 212.165178
L 180.546867 212.433855
L 181.0593 212.68536
L 181.579939 212.919407
L 182.108189 213.135726
L 182.643447 213.334072
L 183.185102 213.514218
L 183.732535 213.675958
L 184.28512 213.819107
L 184.842227 213.943501
L 185.40322 214.049
L 185.967457 214.135482
L 186.534294 214.202848
L 187.103083 214.251022
L 187.673176 214.279948
L 188.243921 214.289594
L 207.294468 214.289594
L 207.294468 333.728954
L 183.527241 333.728954
L 180.511096 336.7451
L 180.511096 364.493638
L 183.527241 367.509783
L 207.294468 367.509783
L 207.294468 379.242589
L 233.534933 379.242589
L 233.534933 164.975616
L 207.294468 164.975616
L 207.294468 180.508765
L 188.243921 180.508765
L 188.232435 180.508769
L 165.531078 166.887955
L 165.107599 166.643497
L 164.676107 166.41348
L 164.237093 166.198165
L 163.791058 165.997799
L 163.338512 165.812609
L 162.87997 165.642808
L 162.415955 165.488588
L 161.946997 165.350126
L 161.47363 165.227579
L 160.996395 165.121088
L 160.515836 165.030774
L 160.032502 164.956739
L 159.546943 164.899069
L 159.059713 164.857829
L 158.571368 164.833066
L 158.082466 164.824809
L 157.494214 164.836765
L 156.906934 164.872613
L 156.321596 164.932293
L 155.739165 165.015708
L 155.160605 165.12272
L 154.586871 165.253151
L 154.018911 165.406787
L 153.457662 165.583373
L 152.904052 165.782618
L 152.358994 166.004193
L 151.82339 166.247732
L 151.298123 166.512833
L 150.784062 166.799057
L 150.282056 167.105932
L 149.792933 167.432952
L 149.317501 167.779575
L 148.856546 168.14523
L 148.410829 168.529313
L 147.981087 168.931189
L 147.568028 169.350194
L 147.172335 169.785637
L 146.794663 170.236798
L 146.435633 170.702933
L 146.095841 171.18327
L 145.775846 171.677017
L 145.476177 172.183359
L 145.197329 172.701458
L 144.939764 173.23046
L 144.703905 173.769491
L 144.490143 174.317659
L 144.298831 174.874061
L 144.130285 175.437776
L 143.984783 176.007875
L 143.862565 176.583415
L 143.763834 177.163445
L 143.688752 177.747008
L 143.637444 178.33314
L 143.609994 178.920872
L 143.606447 179.509235
L 143.626809 180.097256
L 143.671048 180.683963
L 143.739089 181.268389
L 143.83082 181.849568
L 143.94609 182.426539
L 144.084709 182.99835
L 144.246446 183.564057
L 144.431037 184.122724
L 144.638174 184.67343
L 144.867517 185.215265
L 145.118687 185.747334
L 145.391268 186.268757
L 145.68481 186.778675
L 145.998829 187.276244
L 146.332806 187.760643
L 146.68619 188.231072
L 147.058396 188.686753
L 147.44881 189.126935
L 147.856788 189.55089
L 148.281654 189.957917
L 148.722708 190.347346
L 149.179221 190.718531
L 149.650439 191.070862
L 150.135584 191.403754
L 150.633855 191.716659
z
" clip-path="url(#p1e6651f0ca)" style="fill: none; stroke: #91b4a5; stroke-width: 0.65; stroke-linejoin: miter"/>
   </g>
   <g id="patch_10">
    <path d="M 157.095168 198.445362
L 181.81687 207.917197
L 182.176116 208.360801
L 182.550147 208.792013
L 182.938535 209.210339
L 183.340837 209.615302
L 183.756594 210.006441
L 184.18533 210.383306
L 184.626556 210.74547
L 185.079767 211.092516
L 185.544448 211.424051
L 186.020065 211.739693
L 186.506077 212.039084
L 187.001928 212.321882
L 187.507052 212.587762
L 188.020871 212.836422
L 188.5428 213.067577
L 189.072242 213.280964
L 189.608592 213.476338
L 190.151237 213.653478
L 190.699559 213.812179
L 191.25293 213.952261
L 191.810718 214.073565
L 192.372287 214.175951
L 192.936995 214.259302
L 193.504197 214.323524
L 194.073245 214.368543
L 194.643489 214.394308
L 195.214278 214.400788
L 195.784961 214.387977
L 196.354884 214.35589
L 196.923398 214.304563
L 197.489853 214.234054
L 198.053601 214.144444
L 216.814728 210.836352
L 237.555155 328.461159
L 214.149006 332.588295
L 211.702431 336.082367
L 216.520914 363.409342
L 220.014986 365.855917
L 243.421134 361.728782
L 245.458515 373.28334
L 271.300328 368.726731
L 234.093259 157.714955
L 208.251445 162.271564
L 210.948748 177.568729
L 192.187622 180.876822
L 192.176311 180.87882
L 167.454609 171.406986
L 166.995114 171.239779
L 166.530235 171.088184
L 166.060502 170.952374
L 165.586451 170.832505
L 165.108622 170.728713
L 164.62756 170.641116
L 164.143815 170.569814
L 163.657937 170.514889
L 163.170482 170.476404
L 162.682006 170.454401
L 162.193065 170.448907
L 161.704217 170.459928
L 161.21602 170.48745
L 160.729031 170.531443
L 160.243806 170.591857
L 159.760897 170.668622
L 159.183659 170.782545
L 158.611525 170.919828
L 158.045443 171.080246
L 157.486346 171.263531
L 156.935158 171.469383
L 156.392789 171.697461
L 155.860136 171.947388
L 155.338078 172.218751
L 154.827476 172.511103
L 154.329176 172.82396
L 153.843999 173.156805
L 153.372746 173.50909
L 152.916197 173.880231
L 152.475106 174.269617
L 152.0502 174.676604
L 151.642182 175.100519
L 151.251725 175.540663
L 150.879475 175.996309
L 150.526046 176.466703
L 150.192022 176.95107
L 149.877955 177.448609
L 149.584363 177.958498
L 149.311732 178.479895
L 149.060511 179.011939
L 148.831115 179.553752
L 148.623925 180.104438
L 148.439281 180.663088
L 148.277488 181.228779
L 148.138814 181.800577
L 148.023489 182.377537
L 147.931701 182.958706
L 147.863604 183.543126
L 147.819309 184.129829
L 147.798889 184.717848
L 147.802379 185.306211
L 147.829773 185.893946
L 147.881024 186.480083
L 147.95605 187.063653
L 148.054725 187.643693
L 148.176887 188.219244
L 148.322334 188.789357
L 148.490826 189.353089
L 148.682084 189.909509
L 148.895793 190.457698
L 149.131599 190.996752
L 149.389114 191.525778
L 149.667912 192.043905
L 149.967531 192.550275
L 150.287479 193.044053
L 150.627225 193.524423
L 150.986209 193.990592
L 151.363838 194.44179
L 151.759489 194.877271
L 152.172507 195.296316
L 152.602211 195.698234
L 153.047891 196.08236
L 153.50881 196.448059
L 153.984209 196.794729
L 154.4733 197.121795
L 154.975277 197.428719
L 155.48931 197.714993
L 156.014551 197.980144
L 156.550132 198.223735
L 157.095168 198.445362
z
" clip-path="url(#p1e6651f0ca)" style="fill: none; stroke: #91b4a5; stroke-width: 0.65; stroke-linejoin: miter"/>
   </g>
   <g id="patch_11">
    <path d="M 163.420863 201.853073
L 188.905544 209.023096
L 189.303873 209.431968
L 189.715791 209.827146
L 190.140828 210.20818
L 190.578497 210.574633
L 191.028299 210.926088
L 191.48972 211.262143
L 191.962234 211.582414
L 192.4453 211.886535
L 192.938366 212.174159
L 193.44087 212.444958
L 193.952238 212.698622
L 194.471885 212.934862
L 194.999219 213.153407
L 195.533636 213.354009
L 196.074526 213.536437
L 196.621272 213.700484
L 197.173249 213.845962
L 197.729827 213.972705
L 198.290369 214.080568
L 198.854236 214.169429
L 199.420784 214.239185
L 199.989366 214.289757
L 200.559331 214.321087
L 201.13003 214.33314
L 201.70081 214.325901
L 202.27102 214.299379
L 202.840008 214.253604
L 203.407124 214.188629
L 203.971721 214.104527
L 204.533153 214.001395
L 205.09078 213.879351
L 205.643964 213.738533
L 224.02369 208.727645
L 255.43997 323.961225
L 232.509651 330.212747
L 230.393053 333.916027
L 237.691785 360.687465
L 241.395064 362.804063
L 264.325382 356.552541
L 267.411477 367.872203
L 292.727945 360.970142
L 236.369043 154.248082
L 211.052574 161.150144
L 215.138277 176.136329
L 196.758551 181.147217
L 196.747471 181.150242
L 171.26279 173.980219
L 170.789923 173.855757
L 170.313123 173.747336
L 169.832934 173.655077
L 169.349903 173.579087
L 168.864581 173.519453
L 168.377522 173.476241
L 167.889282 173.449502
L 167.400417 173.439266
L 166.911485 173.445545
L 166.423045 173.468331
L 165.935652 173.507599
L 165.449864 173.563304
L 164.966233 173.635381
L 164.485313 173.72375
L 164.007651 173.828309
L 163.533792 173.948939
L 162.969399 174.115203
L 162.412228 174.304261
L 161.863199 174.515803
L 161.323218 174.749478
L 160.793178 175.004901
L 160.273954 175.281649
L 159.766404 175.579266
L 159.271366 175.89726
L 158.789657 176.235106
L 158.322074 176.592246
L 157.869388 176.96809
L 157.432347 177.362017
L 157.011674 177.773377
L 156.608062 178.20149
L 156.222179 178.645648
L 155.854661 179.10512
L 155.506116 179.579145
L 155.17712 180.06694
L 154.868216 180.567701
L 154.579913 181.080599
L 154.312689 181.604789
L 154.066985 182.139403
L 153.843206 182.683559
L 153.641722 183.236359
L 153.462865 183.796888
L 153.306933 184.364222
L 153.17418 184.937424
L 153.064828 185.515546
L 152.979057 186.097634
L 152.917007 186.682726
L 152.878783 187.269856
L 152.864447 187.858055
L 152.874022 188.44635
L 152.907493 189.033771
L 152.964804 189.619346
L 153.045861 190.202109
L 153.150531 190.781097
L 153.278639 191.355355
L 153.429975 191.923932
L 153.604288 192.485891
L 153.801291 193.040303
L 154.020659 193.586253
L 154.262028 194.122839
L 154.525 194.649174
L 154.809142 195.164389
L 155.113983 195.667633
L 155.43902 196.158076
L 155.783717 196.634906
L 156.147504 197.097337
L 156.529779 197.544605
L 156.929913 197.97597
L 157.347243 198.390721
L 157.781081 198.788173
L 158.23071 199.167669
L 158.695387 199.528581
L 159.174346 199.870315
L 159.666794 200.192306
L 160.171918 200.494021
L 160.688885 200.774963
L 161.21684 201.034668
L 161.754912 201.272706
L 162.302211 201.488684
L 162.857834 201.682247
L 163.420863 201.853073
z
" clip-path="url(#p1e6651f0ca)" style="fill: none; stroke: #91b4a5; stroke-width: 0.65; stroke-linejoin: miter"/>
   </g>
   <g id="patch_12">
    <path d="M 169.693751 204.042517
L 195.543933 209.756211
L 195.964802 210.141843
L 196.398462 210.513032
L 196.844416 210.869356
L 197.302157 211.210408
L 197.771161 211.535797
L 198.250892 211.845152
L 198.740802 212.13812
L 199.240333 212.414366
L 199.748913 212.673574
L 200.265961 212.915449
L 200.790887 213.139714
L 201.323092 213.346114
L 201.861967 213.534412
L 202.406897 213.704393
L 202.95726 213.855863
L 203.512426 213.988649
L 204.071763 214.1026
L 204.634631 214.197586
L 205.200387 214.273497
L 205.768385 214.330247
L 206.337977 214.367772
L 206.908511 214.386028
L 207.479336 214.384995
L 208.0498 214.364674
L 208.619252 214.325087
L 209.187041 214.266281
L 209.752518 214.188323
L 210.315039 214.0913
L 210.873959 213.975325
L 211.428642 213.84053
L 211.978453 213.687069
L 212.522764 213.515116
L 230.588848 207.470289
L 268.487513 320.737459
L 245.948491 328.278911
L 244.045245 332.09623
L 252.849986 358.410825
L 256.667305 360.31407
L 279.206328 352.772619
L 282.929202 363.899116
L 307.813656 355.572894
L 239.825747 152.378455
L 214.941293 160.704677
L 219.870034 175.435129
L 201.80395 181.479957
L 201.793059 181.483605
L 175.942877 175.769911
L 175.463714 175.672458
L 174.981534 175.591242
L 174.496887 175.526355
L 174.010325 175.477871
L 173.522403 175.445847
L 173.033677 175.430318
L 172.544706 175.431301
L 172.056048 175.448797
L 171.568258 175.482784
L 171.081895 175.533225
L 170.597513 175.600062
L 170.115663 175.683217
L 169.636897 175.782597
L 169.16176 175.898089
L 168.690794 176.02956
L 168.224536 176.17686
L 167.670477 176.374853
L 167.12492 176.595195
L 166.588767 176.837522
L 166.062902 177.101435
L 165.548195 177.386496
L 165.045496 177.692236
L 164.555635 178.018149
L 164.079421 178.363696
L 163.617641 178.728309
L 163.171057 179.111383
L 162.740407 179.512286
L 162.326402 179.930357
L 161.929726 180.364904
L 161.551034 180.81521
L 161.190952 181.280531
L 160.850074 181.760099
L 160.528964 182.253122
L 160.228151 182.758784
L 159.948133 183.276252
L 159.689372 183.80467
L 159.452295 184.343166
L 159.237295 184.89085
L 159.044725 185.446818
L 158.874905 186.010151
L 158.728115 186.579919
L 158.604596 187.155181
L 158.504554 187.734987
L 158.428153 188.318379
L 158.37552 188.904393
L 158.346741 189.492062
L 158.341864 190.080415
L 158.360897 190.66848
L 158.403809 191.255287
L 158.470529 191.839865
L 158.560946 192.421249
L 158.674911 192.998479
L 158.812236 193.570603
L 158.972695 194.136673
L 159.156022 194.695757
L 159.361914 195.24693
L 159.590031 195.789282
L 159.839997 196.321917
L 160.111399 196.843955
L 160.403788 197.354535
L 160.716681 197.852813
L 161.049562 198.337966
L 161.401881 198.809192
L 161.773056 199.265714
L 162.162474 199.706777
L 162.569492 200.131653
L 162.993437 200.53964
L 163.43361 200.930064
L 163.889283 201.302281
L 164.359703 201.655676
L 164.844094 201.989664
L 165.341656 202.303695
L 165.851567 202.59725
L 166.372984 202.869843
L 166.905047 203.121025
L 167.446876 203.35038
L 167.997577 203.557531
L 168.556241 203.742134
L 169.121944 203.903885
L 169.693751 204.042517
z
" clip-path="url(#p1e6651f0ca)" style="fill: none; stroke: #91b4a5; stroke-width: 0.65; stroke-linejoin: miter"/>
   </g>
   <g id="patch_13">
    <path d="M 174.865407 205.188077
L 200.845251 210.279826
L 201.275252 210.655247
L 201.717694 211.015924
L 202.172071 211.361444
L 202.637863 211.691414
L 203.11454 212.005455
L 203.601556 212.303209
L 204.098356 212.584337
L 204.604371 212.848516
L 205.119024 213.095446
L 205.641728 213.324845
L 206.171884 213.536449
L 206.708888 213.730018
L 207.252127 213.905331
L 207.800979 214.062187
L 208.354818 214.200407
L 208.913011 214.319834
L 209.474921 214.42033
L 210.039906 214.501782
L 210.607321 214.564095
L 211.176517 214.607199
L 211.746845 214.631045
L 212.317653 214.635606
L 212.888289 214.620875
L 213.458101 214.586871
L 214.026439 214.533632
L 214.592654 214.461218
L 215.156098 214.369712
L 215.716128 214.25922
L 216.272105 214.129867
L 216.823393 213.9818
L 217.369363 213.815189
L 217.909391 213.630225
L 235.825222 207.153625
L 276.43093 319.478765
L 254.079362 327.558891
L 252.268265 331.420781
L 261.701915 357.516521
L 265.563805 359.327618
L 287.915373 351.247492
L 291.904166 362.281451
L 316.581659 353.3605
L 243.737479 151.856006
L 219.059986 160.776957
L 224.340779 175.384898
L 206.424949 181.861498
L 206.414148 181.865407
L 180.434304 176.773658
L 179.952941 176.687731
L 179.468951 176.618109
L 178.982886 176.56487
L 178.495301 176.528076
L 178.006751 176.507769
L 177.517794 176.503972
L 177.028987 176.516689
L 176.540889 176.545905
L 176.054055 176.591588
L 175.569043 176.653685
L 175.086403 176.732125
L 174.606688 176.826819
L 174.130445 176.937659
L 173.658216 177.064519
L 173.19054 177.207253
L 172.727951 177.365699
L 172.178803 177.576931
L 171.63869 177.8103
L 171.108506 178.065424
L 170.589126 178.341879
L 170.081407 178.639209
L 169.58619 178.956923
L 169.10429 179.294497
L 168.636505 179.651372
L 168.183607 180.02696
L 167.746344 180.42064
L 167.325438 180.831762
L 166.921584 181.259647
L 166.535449 181.703587
L 166.167672 182.162851
L 165.81886 182.636679
L 165.489588 183.124288
L 165.1804 183.624874
L 164.891808 184.13761
L 164.624288 184.661648
L 164.378281 185.196123
L 164.154195 185.740153
L 163.952398 186.292838
L 163.773225 186.853267
L 163.616972 187.420513
L 163.483896 187.993639
L 163.374217 188.571699
L 163.288116 189.153739
L 163.225736 189.738796
L 163.18718 190.325904
L 163.172511 190.914095
L 163.181754 191.502395
L 163.214893 192.089834
L 163.271873 192.675442
L 163.352601 193.258251
L 163.456943 193.837298
L 163.584727 194.411628
L 163.735741 194.980291
L 163.909737 195.542348
L 164.106427 196.096872
L 164.325486 196.642945
L 164.566552 197.179667
L 164.829227 197.706151
L 165.113077 198.221526
L 165.417634 198.724943
L 165.742394 199.215569
L 166.086821 199.692594
L 166.450346 200.155231
L 166.832369 200.602714
L 167.232258 201.034306
L 167.649354 201.449293
L 168.082967 201.84699
L 168.532382 202.226739
L 168.996855 202.587915
L 169.47562 202.929919
L 169.967886 203.252188
L 170.47284 203.554189
L 170.989648 203.835423
L 171.517456 204.095426
L 172.055393 204.333768
L 172.60257 204.550056
L 173.158084 204.743932
L 173.721016 204.915076
L 174.290437 205.063206
L 174.865407 205.188077
z
" clip-path="url(#p1e6651f0ca)" style="fill: none; stroke: #91b4a5; stroke-width: 0.65; stroke-linejoin: miter"/>
   </g>
   <g id="patch_14">
    <path d="M 179.17343 206.00857
L 205.228001 210.702986
L 205.663686 211.071797
L 206.111584 211.425675
L 206.571184 211.764217
L 207.041961 212.087034
L 207.523378 212.393759
L 208.014884 212.684042
L 208.515919 212.95755
L 209.025909 213.213971
L 209.544274 213.453013
L 210.070419 213.674403
L 210.603745 213.877886
L 211.143643 214.063233
L 211.689495 214.230229
L 212.240679 214.378685
L 212.796564 214.508432
L 213.356516 214.61932
L 213.919895 214.711224
L 214.486058 214.784038
L 215.054358 214.837679
L 215.624146 214.872086
L 216.194772 214.88722
L 216.765583 214.883063
L 217.335927 214.85962
L 217.905154 214.816918
L 218.472612 214.755005
L 219.037655 214.673953
L 219.599636 214.573854
L 220.157913 214.454822
L 220.71185 214.316994
L 221.260813 214.160526
L 221.804175 213.985597
L 222.341316 213.792407
L 240.156153 207.042969
L 282.472448 318.73492
L 260.246878 327.155436
L 258.494967 331.044533
L 268.326026 356.993168
L 272.215123 358.745078
L 294.440693 350.324563
L 298.597521 361.296323
L 323.135904 351.999561
L 247.223036 151.63097
L 222.684652 160.927732
L 228.187908 175.453327
L 210.373071 182.202765
L 210.362331 182.206838
L 184.30776 177.512422
L 183.825142 177.433856
L 183.340145 177.371633
L 182.853324 177.325823
L 182.365233 177.296479
L 181.87643 177.283635
L 181.387472 177.287305
L 180.898916 177.307485
L 180.411321 177.344152
L 179.925242 177.397264
L 179.441234 177.46676
L 178.959849 177.552562
L 178.481636 177.654571
L 178.007141 177.77267
L 177.536904 177.906727
L 177.071463 178.056586
L 176.611347 178.222078
L 176.065488 178.441671
L 175.529003 178.683261
L 175.002776 178.946451
L 174.487678 179.230805
L 173.98456 179.535854
L 173.494252 179.861094
L 173.017564 180.205988
L 172.555283 180.569965
L 172.108173 180.952425
L 171.676973 181.352737
L 171.262394 181.770238
L 170.865122 182.20424
L 170.485812 182.654026
L 170.125091 183.118852
L 169.783555 183.597952
L 169.461767 184.090533
L 169.160261 184.595782
L 168.879532 185.112865
L 168.620046 185.640927
L 168.38223 186.179097
L 168.166477 186.726485
L 167.973144 187.282188
L 167.802551 187.845287
L 167.654978 188.414853
L 167.530669 188.989945
L 167.429831 189.569612
L 167.352629 190.152899
L 167.299191 190.73884
L 167.269605 191.326469
L 167.26392 191.914815
L 167.282145 192.502906
L 167.324251 193.08977
L 167.390168 193.67444
L 167.479786 194.255948
L 167.592959 194.833334
L 167.729498 195.405645
L 167.889179 195.971936
L 168.071738 196.531271
L 168.276873 197.082726
L 168.504245 197.62539
L 168.753479 198.158368
L 169.024163 198.680779
L 169.315851 199.19176
L 169.62806 199.690467
L 169.960274 200.176077
L 170.311946 200.647786
L 170.682494 201.104818
L 171.071305 201.546415
L 171.477739 201.97185
L 171.901124 202.380419
L 172.34076 202.771447
L 172.795921 203.14429
L 173.265856 203.49833
L 173.749788 203.832983
L 174.246918 204.147697
L 174.756425 204.441952
L 175.277467 204.715261
L 175.809184 204.967173
L 176.350698 205.197273
L 176.901114 205.405179
L 177.459523 205.59055
L 178.025004 205.753078
L 178.596621 205.892495
L 179.17343 206.00857
z
" clip-path="url(#p1e6651f0ca)" style="fill: none; stroke: #91b4a5; stroke-width: 0.65; stroke-linejoin: miter"/>
   </g>
   <g id="patch_15">
    <path d="M 181.771923 206.125486
L 207.836673 210.763048
L 208.273161 211.130908
L 208.72183 211.483808
L 209.182168 211.821346
L 209.653648 212.143136
L 210.135733 212.44881
L 210.627871 212.738019
L 211.129502 213.010434
L 211.64005 213.265742
L 212.158935 213.503652
L 212.685562 213.723893
L 213.219331 213.926213
L 213.759632 214.110381
L 214.305847 214.276186
L 214.857353 214.423439
L 215.41352 214.551973
L 215.973712 214.661639
L 216.537291 214.752313
L 217.103611 214.823892
L 217.672027 214.876293
L 218.241889 214.909457
L 218.812546 214.923346
L 219.383347 214.917944
L 219.953639 214.893257
L 220.522771 214.849313
L 221.090093 214.786163
L 221.654957 214.703878
L 222.216719 214.602553
L 222.774735 214.482304
L 223.32837 214.343267
L 223.87699 214.185601
L 224.419969 214.009488
L 224.956687 213.815127
L 242.756757 207.026839
L 285.316625 318.626204
L 263.109478 327.095188
L 261.366057 330.988098
L 271.253703 356.915223
L 275.146613 358.658645
L 297.353759 350.189661
L 301.534514 361.152326
L 326.052556 351.802052
L 249.702732 151.599554
L 225.18469 160.949828
L 230.719622 175.463382
L 212.919553 182.25167
L 212.908822 182.255766
L 186.844071 177.618204
L 186.361282 177.540691
L 185.876151 177.479526
L 185.389231 177.434779
L 184.901078 177.4065
L 184.412247 177.394722
L 183.923299 177.399459
L 183.434788 177.420704
L 182.947274 177.458435
L 182.461313 177.512607
L 181.977457 177.583159
L 181.496261 177.670011
L 181.018271 177.773063
L 180.544035 177.892198
L 180.074091 178.027279
L 179.608978 178.178154
L 179.149225 178.344649
L 178.603846 178.565432
L 178.067889 178.808193
L 177.542238 179.07253
L 177.027762 179.358007
L 176.52531 179.664153
L 176.035713 179.990462
L 175.559778 180.336394
L 175.098292 180.70138
L 174.652018 181.084814
L 174.221692 181.486066
L 173.808025 181.904471
L 173.411701 182.339338
L 173.033373 182.789951
L 172.673667 183.255563
L 172.333177 183.735406
L 172.012465 184.228688
L 171.712061 184.734594
L 171.432462 185.252288
L 171.174128 185.780915
L 170.937486 186.319602
L 170.722929 186.86746
L 170.530809 187.423583
L 170.361444 187.987053
L 170.215114 188.55694
L 170.09206 189.132301
L 169.992487 189.712188
L 169.916557 190.295641
L 169.864398 190.881698
L 169.836094 191.46939
L 169.831692 192.057746
L 169.851201 192.645796
L 169.894587 193.232568
L 169.961779 193.817092
L 170.052666 194.398403
L 170.167098 194.975541
L 170.304886 195.547553
L 170.465802 196.113494
L 170.64958 196.672429
L 170.855918 197.223435
L 171.084473 197.765602
L 171.33487 198.298035
L 171.606693 198.819854
L 171.899495 199.330198
L 172.212791 199.828222
L 172.546064 200.313106
L 172.898764 200.784047
L 173.270308 201.240269
L 173.660082 201.681017
L 174.067443 202.105564
L 174.491718 202.513209
L 174.932206 202.903277
L 175.388179 203.275126
L 175.858885 203.62814
L 176.343546 203.961737
L 176.841362 204.275365
L 177.351509 204.568507
L 177.873147 204.840679
L 178.405412 205.091431
L 178.947427 205.320348
L 179.498295 205.527054
L 180.057108 205.711205
L 180.622941 205.872499
L 181.194861 206.010669
L 181.771923 206.125486
z
" clip-path="url(#p1e6651f0ca)" style="fill: none; stroke: #91b4a5; stroke-width: 0.65; stroke-linejoin: miter"/>
   </g>
   <g id="patch_16">
    <path d="M 184.486453 206.125486
L 210.551204 210.763048
L 210.987692 211.130908
L 211.436361 211.483808
L 211.896698 211.821346
L 212.368179 212.143136
L 212.850264 212.44881
L 213.342402 212.738019
L 213.844032 213.010434
L 214.354581 213.265742
L 214.873466 213.503652
L 215.400093 213.723893
L 215.933862 213.926213
L 216.474162 214.110381
L 217.020378 214.276186
L 217.571884 214.423439
L 218.128051 214.551973
L 218.688243 214.661639
L 219.251822 214.752313
L 219.818142 214.823892
L 220.386558 214.876293
L 220.95642 214.909457
L 221.527077 214.923346
L 222.097877 214.917944
L 222.66817 214.893257
L 223.237302 214.849313
L 223.804624 214.786163
L 224.369488 214.703878
L 224.931249 214.602553
L 225.489266 214.482304
L 226.042901 214.343267
L 226.591521 214.185601
L 227.1345 214.009488
L 227.671218 213.815127
L 245.471288 207.026839
L 288.031156 318.626204
L 265.824009 327.095188
L 264.080588 330.988098
L 273.968234 356.915223
L 277.861144 358.658645
L 300.06829 350.189661
L 304.249045 361.152326
L 328.767087 351.802052
L 252.417263 151.599554
L 227.899221 160.949828
L 233.434153 175.463382
L 215.634084 182.25167
L 215.623353 182.255766
L 189.558602 177.618204
L 189.075813 177.540691
L 188.590682 177.479526
L 188.103762 177.434779
L 187.615608 177.4065
L 187.126778 177.394722
L 186.637829 177.399459
L 186.149319 177.420704
L 185.661805 177.458435
L 185.175843 177.512607
L 184.691988 177.583159
L 184.210791 177.670011
L 183.732802 177.773063
L 183.258565 177.892198
L 182.788622 178.027279
L 182.323509 178.178154
L 181.863756 178.344649
L 181.318377 178.565432
L 180.78242 178.808193
L 180.256769 179.07253
L 179.742293 179.358007
L 179.239841 179.664153
L 178.750243 179.990462
L 178.274309 180.336394
L 177.812823 180.70138
L 177.366549 181.084814
L 176.936223 181.486066
L 176.522556 181.904471
L 176.126232 182.339338
L 175.747904 182.789951
L 175.388198 183.255563
L 175.047708 183.735406
L 174.726996 184.228688
L 174.426592 184.734594
L 174.146992 185.252288
L 173.888659 185.780915
L 173.652017 186.319602
L 173.43746 186.86746
L 173.24534 187.423583
L 173.075975 187.987053
L 172.929645 188.55694
L 172.806591 189.132301
L 172.707018 189.712188
L 172.631088 190.295641
L 172.578929 190.881698
L 172.550625 191.46939
L 172.546223 192.057746
L 172.565732 192.645796
L 172.609118 193.232568
L 172.67631 193.817092
L 172.767197 194.398403
L 172.881629 194.975541
L 173.019417 195.547553
L 173.180333 196.113494
L 173.364111 196.672429
L 173.570449 197.223435
L 173.799004 197.765602
L 174.049401 198.298035
L 174.321224 198.819854
L 174.614026 199.330198
L 174.927322 199.828222
L 175.260595 200.313106
L 175.613295 200.784047
L 175.984839 201.240269
L 176.374613 201.681017
L 176.781974 202.105564
L 177.206249 202.513209
L 177.646737 202.903277
L 178.10271 203.275126
L 178.573416 203.62814
L 179.058077 203.961737
L 179.555893 204.275365
L 180.06604 204.568507
L 180.587678 204.840679
L 181.119943 205.091431
L 181.661958 205.320348
L 182.212826 205.527054
L 182.771639 205.711205
L 183.337472 205.872499
L 183.909392 206.010669
L 184.486453 206.125486
z
" clip-path="url(#p1e6651f0ca)" style="fill: none; stroke: #91b4a5; stroke-width: 0.65; stroke-linejoin: miter"/>
   </g>
   <g id="patch_17">
    <path d="M 225.204417 206.125486
L 251.269168 210.763048
L 251.705656 211.130908
L 252.154325 211.483808
L 252.614662 211.821346
L 253.086143 212.143136
L 253.568227 212.44881
L 254.060366 212.738019
L 254.561996 213.010434
L 255.072545 213.265742
L 255.591429 213.503652
L 256.118057 213.723893
L 256.651826 213.926213
L 257.192126 214.110381
L 257.738341 214.276186
L 258.289847 214.423439
L 258.846014 214.551973
L 259.406207 214.661639
L 259.969785 214.752313
L 260.536106 214.823892
L 261.104522 214.876293
L 261.674383 214.909457
L 262.245041 214.923346
L 262.815841 214.917944
L 263.386133 214.893257
L 263.955265 214.849313
L 264.522587 214.786163
L 265.087452 214.703878
L 265.649213 214.602553
L 266.20723 214.482304
L 266.760864 214.343267
L 267.309484 214.185601
L 267.852463 214.009488
L 268.389182 213.815127
L 286.189251 207.026839
L 328.749119 318.626204
L 306.541973 327.095188
L 304.798551 330.988098
L 314.686197 356.915223
L 318.579107 358.658645
L 340.786254 350.189661
L 344.967008 361.152326
L 369.485051 351.802052
L 293.135227 151.599554
L 268.617185 160.949828
L 274.152117 175.463382
L 256.352047 182.25167
L 256.341317 182.255766
L 230.276566 177.618204
L 229.793777 177.540691
L 229.308646 177.479526
L 228.821726 177.434779
L 228.333572 177.4065
L 227.844742 177.394722
L 227.355793 177.399459
L 226.867283 177.420704
L 226.379769 177.458435
L 225.893807 177.512607
L 225.409952 177.583159
L 224.928755 177.670011
L 224.450766 177.773063
L 223.976529 177.892198
L 223.506586 178.027279
L 223.041473 178.178154
L 222.58172 178.344649
L 222.036341 178.565432
L 221.500384 178.808193
L 220.974733 179.07253
L 220.460256 179.358007
L 219.957805 179.664153
L 219.468207 179.990462
L 218.992273 180.336394
L 218.530787 180.70138
L 218.084513 181.084814
L 217.654187 181.486066
L 217.24052 181.904471
L 216.844195 182.339338
L 216.465867 182.789951
L 216.106162 183.255563
L 215.765671 183.735406
L 215.44496 184.228688
L 215.144556 184.734594
L 214.864956 185.252288
L 214.606622 185.780915
L 214.369981 186.319602
L 214.155423 186.86746
L 213.963303 187.423583
L 213.793938 187.987053
L 213.647608 188.55694
L 213.524555 189.132301
L 213.424981 189.712188
L 213.349052 190.295641
L 213.296892 190.881698
L 213.268588 191.46939
L 213.264187 192.057746
L 213.283695 192.645796
L 213.327082 193.232568
L 213.394274 193.817092
L 213.485161 194.398403
L 213.599593 194.975541
L 213.73738 195.547553
L 213.898296 196.113494
L 214.082075 196.672429
L 214.288412 197.223435
L 214.516968 197.765602
L 214.767364 198.298035
L 215.039188 198.819854
L 215.331989 199.330198
L 215.645285 199.828222
L 215.978559 200.313106
L 216.331258 200.784047
L 216.702802 201.240269
L 217.092577 201.681017
L 217.499938 202.105564
L 217.924213 202.513209
L 218.3647 202.903277
L 218.820674 203.275126
L 219.29138 203.62814
L 219.776041 203.961737
L 220.273856 204.275365
L 220.784004 204.568507
L 221.305641 204.840679
L 221.837907 205.091431
L 222.379922 205.320348
L 222.93079 205.527054
L 223.489602 205.711205
L 224.055436 205.872499
L 224.627356 206.010669
L 225.204417 206.125486
z
" clip-path="url(#p1e6651f0ca)" style="fill: none; stroke: #91b4a5; stroke-width: 0.65; stroke-linejoin: miter"/>
   </g>
   <g id="patch_18">
    <path d="M 322.444947 206.125486
L 348.509697 210.763048
L 348.946185 211.130908
L 349.394854 211.483808
L 349.855192 211.821346
L 350.326672 212.143136
L 350.808757 212.44881
L 351.300895 212.738019
L 351.802526 213.010434
L 352.313074 213.265742
L 352.831959 213.503652
L 353.358586 213.723893
L 353.892355 213.926213
L 354.432656 214.110381
L 354.978871 214.276186
L 355.530377 214.423439
L 356.086544 214.551973
L 356.646736 214.661639
L 357.210315 214.752313
L 357.776635 214.823892
L 358.345051 214.876293
L 358.914913 214.909457
L 359.48557 214.923346
L 360.056371 214.917944
L 360.626663 214.893257
L 361.195795 214.849313
L 361.763117 214.786163
L 362.327981 214.703878
L 362.889743 214.602553
L 363.447759 214.482304
L 364.001394 214.343267
L 364.550014 214.185601
L 365.092993 214.009488
L 365.629711 213.815127
L 383.429781 207.026839
L 425.989649 318.626204
L 403.782502 327.095188
L 402.039081 330.988098
L 411.926727 356.915223
L 415.819637 358.658645
L 438.026783 350.189661
L 442.207538 361.152326
L 466.72558 351.802052
L 390.375756 151.599554
L 365.857714 160.949828
L 371.392646 175.463382
L 353.592577 182.25167
L 353.581846 182.255766
L 327.517095 177.618204
L 327.034306 177.540691
L 326.549175 177.479526
L 326.062255 177.434779
L 325.574102 177.4065
L 325.085271 177.394722
L 324.596323 177.399459
L 324.107812 177.420704
L 323.620298 177.458435
L 323.134337 177.512607
L 322.650481 177.583159
L 322.169285 177.670011
L 321.691295 177.773063
L 321.217059 177.892198
L 320.747115 178.027279
L 320.282002 178.178154
L 319.822249 178.344649
L 319.27687 178.565432
L 318.740913 178.808193
L 318.215262 179.07253
L 317.700786 179.358007
L 317.198334 179.664153
L 316.708737 179.990462
L 316.232802 180.336394
L 315.771316 180.70138
L 315.325042 181.084814
L 314.894716 181.486066
L 314.481049 181.904471
L 314.084725 182.339338
L 313.706397 182.789951
L 313.346691 183.255563
L 313.006201 183.735406
L 312.685489 184.228688
L 312.385085 184.734594
L 312.105486 185.252288
L 311.847152 185.780915
L 311.61051 186.319602
L 311.395953 186.86746
L 311.203833 187.423583
L 311.034468 187.987053
L 310.888138 188.55694
L 310.765084 189.132301
L 310.665511 189.712188
L 310.589581 190.295641
L 310.537422 190.881698
L 310.509118 191.46939
L 310.504716 192.057746
L 310.524225 192.645796
L 310.567611 193.232568
L 310.634803 193.817092
L 310.72569 194.398403
L 310.840122 194.975541
L 310.97791 195.547553
L 311.138826 196.113494
L 311.322604 196.672429
L 311.528942 197.223435
L 311.757497 197.765602
L 312.007894 198.298035
L 312.279717 198.819854
L 312.572519 199.330198
L 312.885815 199.828222
L 313.219088 200.313106
L 313.571788 200.784047
L 313.943332 201.240269
L 314.333106 201.681017
L 314.740467 202.105564
L 315.164742 202.513209
L 315.60523 202.903277
L 316.061203 203.275126
L 316.531909 203.62814
L 317.01657 203.961737
L 317.514386 204.275365
L 318.024533 204.568507
L 318.546171 204.840679
L 319.078436 205.091431
L 319.620451 205.320348
L 320.171319 205.527054
L 320.730132 205.711205
L 321.295965 205.872499
L 321.867885 206.010669
L 322.444947 206.125486
z
" clip-path="url(#p1e6651f0ca)" style="fill: none; stroke: #91b4a5; stroke-width: 0.65; stroke-linejoin: miter"/>
   </g>
   <g id="patch_19">
    <path d="M 150.452886 192.440534
L 173.154243 206.061348
L 173.431001 206.560596
L 173.72447 207.050206
L 174.034316 207.52962
L 174.360185 207.99829
L 174.701705 208.455681
L 175.058485 208.901271
L 175.430119 209.33455
L 175.816181 209.755024
L 176.216232 210.162212
L 176.629813 210.55565
L 177.056452 210.934888
L 177.495663 211.299492
L 177.946943 211.649047
L 178.409777 211.983153
L 178.883637 212.301428
L 179.367981 212.60351
L 179.862256 212.889053
L 180.365898 213.15773
L 180.878331 213.409235
L 181.39897 213.643282
L 181.92722 213.859601
L 182.462478 214.057947
L 183.004133 214.238093
L 183.551566 214.399832
L 184.104151 214.542982
L 184.661259 214.667376
L 185.222251 214.772875
L 185.786488 214.859357
L 186.353325 214.926723
L 186.922115 214.974897
L 187.492207 215.003823
L 188.062952 215.013469
L 207.113499 215.013469
L 207.113499 334.452829
L 183.346273 334.452829
L 180.330127 337.468975
L 180.330127 365.217513
L 183.346273 368.233658
L 207.113499 368.233658
L 207.113499 379.966464
L 233.353964 379.966464
L 233.353964 165.699491
L 207.113499 165.699491
L 207.113499 181.23264
L 188.062952 181.23264
L 188.051466 181.232644
L 165.350109 167.61183
L 164.92663 167.367372
L 164.495138 167.137355
L 164.056124 166.92204
L 163.61009 166.721674
L 163.157543 166.536484
L 162.699001 166.366683
L 162.234986 166.212463
L 161.766028 166.074001
L 161.292661 165.951454
L 160.815426 165.844963
L 160.334868 165.754649
L 159.851533 165.680614
L 159.365974 165.622944
L 158.878744 165.581704
L 158.3904 165.556941
L 157.901497 165.548684
L 157.313246 165.56064
L 156.725966 165.596487
L 156.140627 165.656168
L 155.558197 165.739583
L 154.979637 165.846595
L 154.405903 165.977026
L 153.837942 166.130662
L 153.276693 166.307248
L 152.723083 166.506493
L 152.178025 166.728068
L 151.642421 166.971607
L 151.117155 167.236708
L 150.603094 167.522932
L 150.101087 167.829807
L 149.611964 168.156827
L 149.136532 168.50345
L 148.675578 168.869105
L 148.229861 169.253188
L 147.800118 169.655064
L 147.387059 170.074069
L 146.991367 170.509512
L 146.613694 170.960673
L 146.254665 171.426808
L 145.914872 171.907145
L 145.594877 172.400892
L 145.295208 172.907234
L 145.016361 173.425333
L 144.758795 173.954335
L 144.522936 174.493365
L 144.309175 175.041534
L 144.117863 175.597936
L 143.949316 176.161651
L 143.803814 176.73175
L 143.681597 177.307289
L 143.582865 177.88732
L 143.507784 178.470883
L 143.456475 179.057015
L 143.429025 179.644747
L 143.425478 180.23311
L 143.445841 180.821131
L 143.490079 181.407838
L 143.55812 181.992264
L 143.649851 182.573443
L 143.765121 183.150414
L 143.90374 183.722225
L 144.065478 184.287932
L 144.250068 184.846599
L 144.457206 185.397305
L 144.686548 185.93914
L 144.937718 186.471209
L 145.210299 186.992632
L 145.503841 187.50255
L 145.817861 188.000119
L 146.151838 188.484518
L 146.505221 188.954947
L 146.877427 189.410628
L 147.267842 189.85081
L 147.675819 190.274765
L 148.100685 190.681792
L 148.541739 191.071221
L 148.998252 191.442406
L 149.469471 191.794736
L 149.954616 192.127629
z
" clip-path="url(#p1e6651f0ca)" style="fill: #147792; stroke: #17333e; stroke-width: 1.1; stroke-linejoin: miter"/>
   </g>
  </g>
  <g id="text_14">
   <text style="font-weight: 700; font-size: 23px; font-family: 'DejaVu Sans'; text-anchor: start; fill: #17333e" x="41.04" y="33.1776" transform="rotate(-0 41.04 33.1776)">The installation movement</text>
  </g>
  <g id="text_15">
   <text style="font-size: 11px; font-family: 'DejaVu Sans'; text-anchor: start; fill: #576b73" x="41.04" y="58.5792" transform="rotate(-0 41.04 58.5792)">Actual STEP center section along the verified insertion and removal path</text>
  </g>
  <g id="text_16">
   <text style="font-weight: 700; font-size: 10px; font-family: 'DejaVu Sans'; text-anchor: start; fill: #576b73" x="586.872" y="129.6" transform="rotate(-0 586.872 129.6)">MAXIMUM TILT</text>
  </g>
  <g id="text_17">
   <text style="font-weight: 700; font-size: 24px; font-family: 'DejaVu Sans'; text-anchor: start; fill: #147792" x="586.872" y="161.7408" transform="rotate(-0 586.872 161.7408)">20.875°</text>
  </g>
  <g id="text_18">
   <text style="font-weight: 700; font-size: 10px; font-family: 'DejaVu Sans'; text-anchor: start; fill: #576b73" x="586.872" y="212.544" transform="rotate(-0 586.872 212.544)">LIFT FROM SEATED</text>
  </g>
  <g id="text_19">
   <text style="font-weight: 700; font-size: 24px; font-family: 'DejaVu Sans'; text-anchor: start; fill: #147792" x="586.872" y="244.6848" transform="rotate(-0 586.872 244.6848)">1.07 mm</text>
  </g>
  <g id="text_20">
   <text style="font-weight: 700; font-size: 10px; font-family: 'DejaVu Sans'; text-anchor: start; fill: #576b73" x="586.872" y="295.488" transform="rotate(-0 586.872 295.488)">NOMINAL FLUSH LIP</text>
  </g>
  <g id="text_21">
   <text style="font-weight: 700; font-size: 24px; font-family: 'DejaVu Sans'; text-anchor: start; fill: #147792" x="586.872" y="327.6288" transform="rotate(-0 586.872 327.6288)">5.00 mm</text>
  </g>
  <g id="text_22">
   <text style="font-size: 10px; font-family: 'DejaVu Sans'; fill: #576b73" transform="translate(586.872 406.766437)">Pale: sampled section sweep</text>
   <text style="font-size: 10px; font-family: 'DejaVu Sans'; fill: #576b73" transform="translate(586.872 421.763469)">Blue: seated anchor</text>
   <text style="font-size: 10px; font-family: 'DejaVu Sans'; fill: #576b73" transform="translate(586.872 436.7605)">Lines: recorded waypoints</text>
  </g>
  <g id="text_23">
   <text style="font-size: 10px; font-family: 'DejaVu Sans'; text-anchor: start; fill: #576b73" x="41.04" y="474.336" transform="rotate(-0 41.04 474.336)">161 interpolated section poses illustrate the continuous certified path. Full approach distance is shown.</text>
  </g>
  <g id="text_24">
   <text style="font-size: 10px; font-family: 'DejaVu Sans'; text-anchor: start; fill: #576b73" x="41.04" y="495.072" transform="rotate(-0 41.04 495.072)">This is a center-section illustration. Use the separate allowed host volume for attached-part geometry.</text>
  </g>
 </g>
 <defs>
  <clipPath id="p1e6651f0ca">
   <rect x="123.023364" y="93.312" width="361.345273" height="331.776"/>
  </clipPath>
 </defs>
</svg>
