ISO-10303-21;
HEADER;
FILE_DESCRIPTION(('Open CASCADE Model'),'2;1');
FILE_NAME('Open CASCADE Shape Model','2026-09-08T16:42:05',('Author'),(
    'Open CASCADE'),'Open CASCADE STEP processor 7.8','Open CASCADE 7.8'
  ,'Unknown');
FILE_SCHEMA(('AUTOMOTIVE_DESIGN { 1 0 10303 214 1 1 1 1 }'));
ENDSEC;
DATA;
#1 = APPLICATION_PROTOCOL_DEFINITION('international standard',
  'automotive_design',2000,#2);
#2 = APPLICATION_CONTEXT(
  'core data for automotive mechanical design processes');
#3 = SHAPE_DEFINITION_REPRESENTATION(#4,#10);
#4 = PRODUCT_DEFINITION_SHAPE('','',#5);
#5 = PRODUCT_DEFINITION('design','',#6,#9);
#6 = PRODUCT_DEFINITION_FORMATION('','',#7);
#7 = PRODUCT('Open CASCADE STEP translator 7.8 1',
  'Open CASCADE STEP translator 7.8 1','',(#8));
#8 = PRODUCT_CONTEXT('',#2,'mechanical');
#9 = PRODUCT_DEFINITION_CONTEXT('part definition',#2,'design');
#10 = ADVANCED_BREP_SHAPE_REPRESENTATION('',(#11,#15),#1738);
#11 = AXIS2_PLACEMENT_3D('',#12,#13,#14);
#12 = CARTESIAN_POINT('',(0.,0.,0.));
#13 = DIRECTION('',(0.,0.,1.));
#14 = DIRECTION('',(1.,0.,-0.));
#15 = MANIFOLD_SOLID_BREP('',#16);
#16 = CLOSED_SHELL('',(#17,#411,#499,#551,#598,#766,#811,#856,#1112,
    #1120,#1150,#1226,#1275,#1324,#1351,#1489,#1538,#1640,#1668,#1675,
    #1703,#1731));
#17 = ADVANCED_FACE('',(#18,#143),#33,.T.);
#18 = FACE_BOUND('',#19,.T.);
#19 = EDGE_LOOP('',(#20,#56,#89,#122));
#20 = ORIENTED_EDGE('',*,*,#21,.T.);
#21 = EDGE_CURVE('',#22,#24,#26,.T.);
#22 = VERTEX_POINT('',#23);
#23 = CARTESIAN_POINT('',(1.714505518806E-16,-3.00809484921,2.545));
#24 = VERTEX_POINT('',#25);
#25 = CARTESIAN_POINT('',(-2.523854938383,-3.00809484921,-1.4675));
#26 = SURFACE_CURVE('',#27,(#32,#44),.PCURVE_S1.);
#27 = CIRCLE('',#28,2.8);
#28 = AXIS2_PLACEMENT_3D('',#29,#30,#31);
#29 = CARTESIAN_POINT('',(0.,-3.00809484921,-0.255));
#30 = DIRECTION('',(0.,-1.,0.));
#31 = DIRECTION('',(0.,-0.,-1.));
#32 = PCURVE('',#33,#38);
#33 = SPHERICAL_SURFACE('',#34,2.8);
#34 = AXIS2_PLACEMENT_3D('',#35,#36,#37);
#35 = CARTESIAN_POINT('',(0.,-3.00809484921,-0.255));
#36 = DIRECTION('',(0.,0.,1.));
#37 = DIRECTION('',(1.,0.,-0.));
#38 = DEFINITIONAL_REPRESENTATION('',(#39),#43);
#39 = LINE('',#40,#41);
#40 = CARTESIAN_POINT('',(3.14159265359,4.712388980385));
#41 = VECTOR('',#42,1.);
#42 = DIRECTION('',(0.,-1.));
#43 = ( GEOMETRIC_REPRESENTATION_CONTEXT(2) 
PARAMETRIC_REPRESENTATION_CONTEXT() REPRESENTATION_CONTEXT('2D SPACE',''
  ) );
#44 = PCURVE('',#45,#50);
#45 = CYLINDRICAL_SURFACE('',#46,2.8);
#46 = AXIS2_PLACEMENT_3D('',#47,#48,#49);
#47 = CARTESIAN_POINT('',(0.,1.4,-0.255));
#48 = DIRECTION('',(0.,-1.,0.));
#49 = DIRECTION('',(0.,-0.,-1.));
#50 = DEFINITIONAL_REPRESENTATION('',(#51),#55);
#51 = LINE('',#52,#53);
#52 = CARTESIAN_POINT('',(0.,4.40809484921));
#53 = VECTOR('',#54,1.);
#54 = DIRECTION('',(1.,0.));
#55 = ( GEOMETRIC_REPRESENTATION_CONTEXT(2) 
PARAMETRIC_REPRESENTATION_CONTEXT() REPRESENTATION_CONTEXT('2D SPACE',''
  ) );
#56 = ORIENTED_EDGE('',*,*,#57,.T.);
#57 = EDGE_CURVE('',#24,#58,#60,.T.);
#58 = VERTEX_POINT('',#59);
#59 = CARTESIAN_POINT('',(-2.571758278209E-16,-3.00809484921,-3.055));
#60 = SURFACE_CURVE('',#61,(#66,#73),.PCURVE_S1.);
#61 = CIRCLE('',#62,2.8);
#62 = AXIS2_PLACEMENT_3D('',#63,#64,#65);
#63 = CARTESIAN_POINT('',(0.,-3.00809484921,-0.255));
#64 = DIRECTION('',(0.,-1.,0.));
#65 = DIRECTION('',(0.,-0.,-1.));
#66 = PCURVE('',#33,#67);
#67 = DEFINITIONAL_REPRESENTATION('',(#68),#72);
#68 = LINE('',#69,#70);
#69 = CARTESIAN_POINT('',(3.14159265359,4.712388980385));
#70 = VECTOR('',#71,1.);
#71 = DIRECTION('',(0.,-1.));
#72 = ( GEOMETRIC_REPRESENTATION_CONTEXT(2) 
PARAMETRIC_REPRESENTATION_CONTEXT() REPRESENTATION_CONTEXT('2D SPACE',''
  ) );
#73 = PCURVE('',#74,#79);
#74 = PLANE('',#75);
#75 = AXIS2_PLACEMENT_3D('',#76,#77,#78);
#76 = CARTESIAN_POINT('',(0.,-3.00809484921,0.12));
#77 = DIRECTION('',(0.,1.,0.));
#78 = DIRECTION('',(0.,-0.,1.));
#79 = DEFINITIONAL_REPRESENTATION('',(#80),#88);
#80 = ( BOUNDED_CURVE() B_SPLINE_CURVE(2,(#81,#82,#83,#84,#85,#86,#87),
.UNSPECIFIED.,.T.,.F.) B_SPLINE_CURVE_WITH_KNOTS((1,2,2,2,2,1),(
    -2.094395102393,0.,2.094395102393,4.188790204786,6.28318530718,
8.377580409573),.UNSPECIFIED.) CURVE() GEOMETRIC_REPRESENTATION_ITEM() 
RATIONAL_B_SPLINE_CURVE((1.,0.5,1.,0.5,1.,0.5,1.)) REPRESENTATION_ITEM(
  '') );
#81 = CARTESIAN_POINT('',(-3.175,0.));
#82 = CARTESIAN_POINT('',(-3.175,4.849742261193));
#83 = CARTESIAN_POINT('',(1.025,2.424871130596));
#84 = CARTESIAN_POINT('',(5.225,6.858022075225E-16));
#85 = CARTESIAN_POINT('',(1.025,-2.424871130596));
#86 = CARTESIAN_POINT('',(-3.175,-4.849742261193));
#87 = CARTESIAN_POINT('',(-3.175,0.));
#88 = ( GEOMETRIC_REPRESENTATION_CONTEXT(2) 
PARAMETRIC_REPRESENTATION_CONTEXT() REPRESENTATION_CONTEXT('2D SPACE',''
  ) );
#89 = ORIENTED_EDGE('',*,*,#90,.T.);
#90 = EDGE_CURVE('',#58,#91,#93,.T.);
#91 = VERTEX_POINT('',#92);
#92 = CARTESIAN_POINT('',(2.523854938383,-3.00809484921,-1.4675));
#93 = SURFACE_CURVE('',#94,(#99,#106),.PCURVE_S1.);
#94 = CIRCLE('',#95,2.8);
#95 = AXIS2_PLACEMENT_3D('',#96,#97,#98);
#96 = CARTESIAN_POINT('',(0.,-3.00809484921,-0.255));
#97 = DIRECTION('',(-2.449293598295E-16,-1.,0.));
#98 = DIRECTION('',(1.,-2.449293598295E-16,0.));
#99 = PCURVE('',#33,#100);
#100 = DEFINITIONAL_REPRESENTATION('',(#101),#105);
#101 = LINE('',#102,#103);
#102 = CARTESIAN_POINT('',(6.28318530718,-6.28318530718));
#103 = VECTOR('',#104,1.);
#104 = DIRECTION('',(0.,1.));
#105 = ( GEOMETRIC_REPRESENTATION_CONTEXT(2) 
PARAMETRIC_REPRESENTATION_CONTEXT() REPRESENTATION_CONTEXT('2D SPACE',''
  ) );
#106 = PCURVE('',#107,#112);
#107 = PLANE('',#108);
#108 = AXIS2_PLACEMENT_3D('',#109,#110,#111);
#109 = CARTESIAN_POINT('',(0.,-3.00809484921,0.12));
#110 = DIRECTION('',(0.,1.,0.));
#111 = DIRECTION('',(0.,-0.,1.));
#112 = DEFINITIONAL_REPRESENTATION('',(#113),#121);
#113 = ( BOUNDED_CURVE() B_SPLINE_CURVE(2,(#114,#115,#116,#117,#118,#119
,#120),.UNSPECIFIED.,.T.,.F.) B_SPLINE_CURVE_WITH_KNOTS((1,2,2,2,2,1),(
    -2.094395102393,0.,2.094395102393,4.188790204786,6.28318530718,
8.377580409573),.UNSPECIFIED.) CURVE() GEOMETRIC_REPRESENTATION_ITEM() 
RATIONAL_B_SPLINE_CURVE((1.,0.5,1.,0.5,1.,0.5,1.)) REPRESENTATION_ITEM(
  '') );
#114 = CARTESIAN_POINT('',(-0.375,2.8));
#115 = CARTESIAN_POINT('',(4.474742261193,2.8));
#116 = CARTESIAN_POINT('',(2.049871130596,-1.4));
#117 = CARTESIAN_POINT('',(-0.375,-5.6));
#118 = CARTESIAN_POINT('',(-2.799871130596,-1.4));
#119 = CARTESIAN_POINT('',(-5.224742261193,2.8));
#120 = CARTESIAN_POINT('',(-0.375,2.8));
#121 = ( GEOMETRIC_REPRESENTATION_CONTEXT(2) 
PARAMETRIC_REPRESENTATION_CONTEXT() REPRESENTATION_CONTEXT('2D SPACE',''
  ) );
#122 = ORIENTED_EDGE('',*,*,#123,.T.);
#123 = EDGE_CURVE('',#91,#22,#124,.T.);
#124 = SURFACE_CURVE('',#125,(#130,#137),.PCURVE_S1.);
#125 = CIRCLE('',#126,2.8);
#126 = AXIS2_PLACEMENT_3D('',#127,#128,#129);
#127 = CARTESIAN_POINT('',(0.,-3.00809484921,-0.255));
#128 = DIRECTION('',(-2.449293598295E-16,-1.,0.));
#129 = DIRECTION('',(1.,-2.449293598295E-16,0.));
#130 = PCURVE('',#33,#131);
#131 = DEFINITIONAL_REPRESENTATION('',(#132),#136);
#132 = LINE('',#133,#134);
#133 = CARTESIAN_POINT('',(6.28318530718,-6.28318530718));
#134 = VECTOR('',#135,1.);
#135 = DIRECTION('',(0.,1.));
#136 = ( GEOMETRIC_REPRESENTATION_CONTEXT(2) 
PARAMETRIC_REPRESENTATION_CONTEXT() REPRESENTATION_CONTEXT('2D SPACE',''
  ) );
#137 = PCURVE('',#45,#138);
#138 = DEFINITIONAL_REPRESENTATION('',(#139),#142);
#139 = B_SPLINE_CURVE_WITH_KNOTS('',1,(#140,#141),.UNSPECIFIED.,.F.,.F.,
  (2,2),(4.712388980385,7.853981633974),.PIECEWISE_BEZIER_KNOTS.);
#140 = CARTESIAN_POINT('',(0.,4.40809484921));
#141 = CARTESIAN_POINT('',(3.14159265359,4.40809484921));
#142 = ( GEOMETRIC_REPRESENTATION_CONTEXT(2) 
PARAMETRIC_REPRESENTATION_CONTEXT() REPRESENTATION_CONTEXT('2D SPACE',''
  ) );
#143 = FACE_BOUND('',#144,.T.);
#144 = EDGE_LOOP('',(#145));
#145 = ORIENTED_EDGE('',*,*,#146,.F.);
#146 = EDGE_CURVE('',#147,#147,#149,.T.);
#147 = VERTEX_POINT('',#148);
#148 = CARTESIAN_POINT('',(-5.878304635907E-16,-5.479578547037,
    -1.570966690829));
#149 = SURFACE_CURVE('',#150,(#155,#399),.PCURVE_S1.);
#150 = CIRCLE('',#151,2.4);
#151 = AXIS2_PLACEMENT_3D('',#152,#153,#154);
#152 = CARTESIAN_POINT('',(0.,-4.244788734011,0.487016330881));
#153 = DIRECTION('',(0.,-0.857492925713,0.514495755428));
#154 = DIRECTION('',(0.,-0.514495755428,-0.857492925713));
#155 = PCURVE('',#33,#156);
#156 = DEFINITIONAL_REPRESENTATION('',(#157),#398);
#157 = B_SPLINE_CURVE_WITH_KNOTS('',8,(#158,#159,#160,#161,#162,#163,
    #164,#165,#166,#167,#168,#169,#170,#171,#172,#173,#174,#175,#176,
    #177,#178,#179,#180,#181,#182,#183,#184,#185,#186,#187,#188,#189,
    #190,#191,#192,#193,#194,#195,#196,#197,#198,#199,#200,#201,#202,
    #203,#204,#205,#206,#207,#208,#209,#210,#211,#212,#213,#214,#215,
    #216,#217,#218,#219,#220,#221,#222,#223,#224,#225,#226,#227,#228,
    #229,#230,#231,#232,#233,#234,#235,#236,#237,#238,#239,#240,#241,
    #242,#243,#244,#245,#246,#247,#248,#249,#250,#251,#252,#253,#254,
    #255,#256,#257,#258,#259,#260,#261,#262,#263,#264,#265,#266,#267,
    #268,#269,#270,#271,#272,#273,#274,#275,#276,#277,#278,#279,#280,
    #281,#282,#283,#284,#285,#286,#287,#288,#289,#290,#291,#292,#293,
    #294,#295,#296,#297,#298,#299,#300,#301,#302,#303,#304,#305,#306,
    #307,#308,#309,#310,#311,#312,#313,#314,#315,#316,#317,#318,#319,
    #320,#321,#322,#323,#324,#325,#326,#327,#328,#329,#330,#331,#332,
    #333,#334,#335,#336,#337,#338,#339,#340,#341,#342,#343,#344,#345,
    #346,#347,#348,#349,#350,#351,#352,#353,#354,#355,#356,#357,#358,
    #359,#360,#361,#362,#363,#364,#365,#366,#367,#368,#369,#370,#371,
    #372,#373,#374,#375,#376,#377,#378,#379,#380,#381,#382,#383,#384,
    #385,#386,#387,#388,#389,#390,#391,#392,#393,#394,#395,#396,#397),
  .UNSPECIFIED.,.F.,.F.,(9,7,7,7,7,7,7,7,7,7,7,7,7,7,7,7,7,7,7,7,7,7,7,7
    ,7,7,7,7,7,7,7,7,7,7,9),(0.,0.785398163397,1.47262155637,
    2.073942025221,2.600097435465,2.830290427447,2.938193392439,
    3.042724389774,3.093356591609,3.118277128449,3.124458589736,
    3.130627977856,3.133706647122,3.136782309876,3.138318639465,
    3.139854218893,3.140621633709,3.141005247439,3.14138881434,
    3.14177233442,3.142155807683,3.142922660589,3.144455991959,
    3.145988574632,3.149052243317,3.155173596957,3.1673923927,
    3.191734524844,3.240038443318,3.335136782814,3.519389815587,
    4.210338688485,5.246761997832,5.764973652506,6.28318530718),
  .UNSPECIFIED.);
#158 = CARTESIAN_POINT('',(4.712388980385,-0.489277300567));
#159 = CARTESIAN_POINT('',(4.807724203201,-0.489277300567));
#160 = CARTESIAN_POINT('',(4.903058729089,-0.480104892571));
#161 = CARTESIAN_POINT('',(4.996456473111,-0.461761643471));
#162 = CARTESIAN_POINT('',(5.08595008108,-0.434679489601));
#163 = CARTESIAN_POINT('',(5.170217959341,-0.39976223226));
#164 = CARTESIAN_POINT('',(5.248898997062,-0.357996629188));
#165 = CARTESIAN_POINT('',(5.321993889466,-0.310314915998));
#166 = CARTESIAN_POINT('',(5.44909797781,-0.211383096593));
#167 = CARTESIAN_POINT('',(5.504350284192,-0.161323952986));
#168 = CARTESIAN_POINT('',(5.555722771052,-0.107932687337));
#169 = CARTESIAN_POINT('',(5.603545149083,-5.170778583074E-02));
#170 = CARTESIAN_POINT('',(5.648179804967,6.933695614004E-03));
#171 = CARTESIAN_POINT('',(5.689973442536,6.764752034998E-02));
#172 = CARTESIAN_POINT('',(5.729245315337,0.130144220121));
#173 = CARTESIAN_POINT('',(5.798691126882,0.25021478113));
#174 = CARTESIAN_POINT('',(5.829388611465,0.307427443574));
#175 = CARTESIAN_POINT('',(5.858568560663,0.365657524987));
#176 = CARTESIAN_POINT('',(5.886404500962,0.424769766926));
#177 = CARTESIAN_POINT('',(5.913050822766,0.484650174746));
#178 = CARTESIAN_POINT('',(5.938644022552,0.545201318585));
#179 = CARTESIAN_POINT('',(5.96330482435,0.606338728115));
#180 = CARTESIAN_POINT('',(6.007997992159,0.721931827345));
#181 = CARTESIAN_POINT('',(6.028223373459,0.776267453481));
#182 = CARTESIAN_POINT('',(6.047890237603,0.830945668406));
#183 = CARTESIAN_POINT('',(6.067061692164,0.885922920874));
#184 = CARTESIAN_POINT('',(6.085795056935,0.941160408168));
#185 = CARTESIAN_POINT('',(6.104142086686,0.996623014758));
#186 = CARTESIAN_POINT('',(6.122145398871,1.052278480878));
#187 = CARTESIAN_POINT('',(6.147568603257,1.132517316078));
#188 = CARTESIAN_POINT('',(6.155245175946,1.156969001839));
#189 = CARTESIAN_POINT('',(6.162863240992,1.181449344628));
#190 = CARTESIAN_POINT('',(6.170423517017,1.205955911588));
#191 = CARTESIAN_POINT('',(6.177926209199,1.230486340517));
#192 = CARTESIAN_POINT('',(6.185370204268,1.255038329715));
#193 = CARTESIAN_POINT('',(6.19275027587,1.279609627856));
#194 = CARTESIAN_POINT('',(6.203475124306,1.315723834507));
#195 = CARTESIAN_POINT('',(6.206880898716,1.32725340203));
#196 = CARTESIAN_POINT('',(6.210267720059,1.338786498557));
#197 = CARTESIAN_POINT('',(6.213633767115,1.350322898312));
#198 = CARTESIAN_POINT('',(6.21697651012,1.361862377169));
#199 = CARTESIAN_POINT('',(6.22029191995,1.373404712198));
#200 = CARTESIAN_POINT('',(6.223573677295,1.384949681203));
#201 = CARTESIAN_POINT('',(6.229949876854,1.407683587677));
#202 = CARTESIAN_POINT('',(6.233047171385,1.418872376818));
#203 = CARTESIAN_POINT('',(6.236092807,1.43006322695));
#204 = CARTESIAN_POINT('',(6.239079845016,1.441255938042));
#205 = CARTESIAN_POINT('',(6.241981373006,1.452450304287));
#206 = CARTESIAN_POINT('',(6.244768097779,1.463646119934));
#207 = CARTESIAN_POINT('',(6.247397733856,1.474843175527));
#208 = CARTESIAN_POINT('',(6.2508239128,1.491465273763));
#209 = CARTESIAN_POINT('',(6.251866182641,1.496889558926));
#210 = CARTESIAN_POINT('',(6.252815051921,1.502314048032));
#211 = CARTESIAN_POINT('',(6.253637338152,1.507738707732));
#212 = CARTESIAN_POINT('',(6.254307977502,1.513163507442));
#213 = CARTESIAN_POINT('',(6.254737169332,1.518588394616));
#214 = CARTESIAN_POINT('',(6.254856111654,1.524013323844));
#215 = CARTESIAN_POINT('',(6.254068661225,1.532108194655));
#216 = CARTESIAN_POINT('',(6.253651790927,1.534778207558));
#217 = CARTESIAN_POINT('',(6.253040868331,1.537448182271));
#218 = CARTESIAN_POINT('',(6.252164796409,1.540118091963));
#219 = CARTESIAN_POINT('',(6.250972987476,1.542787916876));
#220 = CARTESIAN_POINT('',(6.249270691093,1.545457588068));
#221 = CARTESIAN_POINT('',(6.246916540238,1.548127054902));
#222 = CARTESIAN_POINT('',(6.242250903608,1.551458105255));
#223 = CARTESIAN_POINT('',(6.241238381931,1.552120116903));
#224 = CARTESIAN_POINT('',(6.240129480968,1.552782096625));
#225 = CARTESIAN_POINT('',(6.238910320885,1.553444039656));
#226 = CARTESIAN_POINT('',(6.237564126254,1.554105940246));
#227 = CARTESIAN_POINT('',(6.236069872622,1.554767791197));
#228 = CARTESIAN_POINT('',(6.234399739181,1.555429582997));
#229 = CARTESIAN_POINT('',(6.230634676307,1.55675172966));
#230 = CARTESIAN_POINT('',(6.228540632793,1.557412084824));
#231 = CARTESIAN_POINT('',(6.22619436626,1.558072354747));
#232 = CARTESIAN_POINT('',(6.223548064843,1.558732523107));
#233 = CARTESIAN_POINT('',(6.220534442617,1.559392566928));
#234 = CARTESIAN_POINT('',(6.217064773851,1.560052455927));
#235 = CARTESIAN_POINT('',(6.213011079836,1.560712146426));
#236 = CARTESIAN_POINT('',(6.205721289613,1.561700624997));
#237 = CARTESIAN_POINT('',(6.203092861903,1.562029619905));
#238 = CARTESIAN_POINT('',(6.200235095215,1.562358536716));
#239 = CARTESIAN_POINT('',(6.197112945642,1.562687363451));
#240 = CARTESIAN_POINT('',(6.193683824844,1.563016085548));
#241 = CARTESIAN_POINT('',(6.189893777142,1.563344684553));
#242 = CARTESIAN_POINT('',(6.185670009535,1.56367313554));
#243 = CARTESIAN_POINT('',(6.176154188443,1.564329350441));
#244 = CARTESIAN_POINT('',(6.170863413122,1.564657114799));
#245 = CARTESIAN_POINT('',(6.164932166609,1.564984660201));
#246 = CARTESIAN_POINT('',(6.158231846302,1.565311942618));
#247 = CARTESIAN_POINT('',(6.150572926234,1.565638896768));
#248 = CARTESIAN_POINT('',(6.141704113507,1.565965436176));
#249 = CARTESIAN_POINT('',(6.131254273907,1.566291432962));
#250 = CARTESIAN_POINT('',(6.112163784364,1.566779090213));
#251 = CARTESIAN_POINT('',(6.105235154223,1.566941340607));
#252 = CARTESIAN_POINT('',(6.097649197101,1.567103364199));
#253 = CARTESIAN_POINT('',(6.089297729834,1.567265123334));
#254 = CARTESIAN_POINT('',(6.08004077807,1.567426569015));
#255 = CARTESIAN_POINT('',(6.069698003345,1.567587637998));
#256 = CARTESIAN_POINT('',(6.058024327576,1.567748243929));
#257 = CARTESIAN_POINT('',(6.031283938709,1.568068188349));
#258 = CARTESIAN_POINT('',(6.016218715462,1.568227527272));
#259 = CARTESIAN_POINT('',(5.999087338831,1.568386141413));
#260 = CARTESIAN_POINT('',(5.979391483452,1.568543848979));
#261 = CARTESIAN_POINT('',(5.956457321063,1.568700412694));
#262 = CARTESIAN_POINT('',(5.929266579373,1.568855446693));
#263 = CARTESIAN_POINT('',(5.8963280565,1.569008414088));
#264 = CARTESIAN_POINT('',(5.833865288714,1.56923294593));
#265 = CARTESIAN_POINT('',(5.810875319045,1.56930695246));
#266 = CARTESIAN_POINT('',(5.785342290476,1.569379997544));
#267 = CARTESIAN_POINT('',(5.756797387232,1.569451891211));
#268 = CARTESIAN_POINT('',(5.724664611078,1.569522386016));
#269 = CARTESIAN_POINT('',(5.688187284255,1.56959115039));
#270 = CARTESIAN_POINT('',(5.646366275591,1.569657719275));
#271 = CARTESIAN_POINT('',(5.573807122966,1.569753247832));
#272 = CARTESIAN_POINT('',(5.547986849169,1.569784366429));
#273 = CARTESIAN_POINT('',(5.520377074956,1.569814680459));
#274 = CARTESIAN_POINT('',(5.490816030515,1.569844091746));
#275 = CARTESIAN_POINT('',(5.45913033068,1.56987248564));
#276 = CARTESIAN_POINT('',(5.425143415946,1.569899728812));
#277 = CARTESIAN_POINT('',(5.388693953965,1.569925668668));
#278 = CARTESIAN_POINT('',(5.310639213455,1.56997459704));
#279 = CARTESIAN_POINT('',(5.269034801075,1.569997586025));
#280 = CARTESIAN_POINT('',(5.22473338342,1.570018930666));
#281 = CARTESIAN_POINT('',(5.177665254002,1.570038443989));
#282 = CARTESIAN_POINT('',(5.127832709285,1.57005592377));
#283 = CARTESIAN_POINT('',(5.075366327045,1.570071164093));
#284 = CARTESIAN_POINT('',(5.020565652104,1.570083974715));
#285 = CARTESIAN_POINT('',(4.907194361808,1.570104435115));
#286 = CARTESIAN_POINT('',(4.848624053058,1.570112085405));
#287 = CARTESIAN_POINT('',(4.788611721115,1.570117006615));
#288 = CARTESIAN_POINT('',(4.72774499554,1.570119086022));
#289 = CARTESIAN_POINT('',(4.666741214932,1.570118274659));
#290 = CARTESIAN_POINT('',(4.606332526234,1.570114598511));
#291 = CARTESIAN_POINT('',(4.547144973484,1.570108152049));
#292 = CARTESIAN_POINT('',(4.432199334783,1.570089992896));
#293 = CARTESIAN_POINT('',(4.376440793078,1.57007828097));
#294 = CARTESIAN_POINT('',(4.322882877123,1.570064072986));
#295 = CARTESIAN_POINT('',(4.271877946824,1.570047551194));
#296 = CARTESIAN_POINT('',(4.223603242824,1.570028919528));
#297 = CARTESIAN_POINT('',(4.178095958284,1.570008382412));
#298 = CARTESIAN_POINT('',(4.135310044296,1.569986130868));
#299 = CARTESIAN_POINT('',(4.014821081166,1.569914766201));
#300 = CARTESIAN_POINT('',(3.944974431263,1.569861038469));
#301 = CARTESIAN_POINT('',(3.884797023693,1.569802562603));
#302 = CARTESIAN_POINT('',(3.832605082218,1.569740479757));
#303 = CARTESIAN_POINT('',(3.787018882182,1.569675546072));
#304 = CARTESIAN_POINT('',(3.746910281215,1.56960834113));
#305 = CARTESIAN_POINT('',(3.711376159994,1.569539285681));
#306 = CARTESIAN_POINT('',(3.616347821203,1.569327578312));
#307 = CARTESIAN_POINT('',(3.568404832596,1.56918035617));
#308 = CARTESIAN_POINT('',(3.530085992603,1.569029612298));
#309 = CARTESIAN_POINT('',(3.498532972704,1.568876393069));
#310 = CARTESIAN_POINT('',(3.472027282095,1.568721339742));
#311 = CARTESIAN_POINT('',(3.449363323692,1.568564935508));
#312 = CARTESIAN_POINT('',(3.429744733274,1.568407441559));
#313 = CARTESIAN_POINT('',(3.395408577544,1.568090808432));
#314 = CARTESIAN_POINT('',(3.380689290572,1.56793166805));
#315 = CARTESIAN_POINT('',(3.367823549478,1.567771879122));
#316 = CARTESIAN_POINT('',(3.356439031213,1.567611573872));
#317 = CARTESIAN_POINT('',(3.346269184381,1.567450846412));
#318 = CARTESIAN_POINT('',(3.337110349989,1.567289768549));
#319 = CARTESIAN_POINT('',(3.328809512431,1.56712839374));
#320 = CARTESIAN_POINT('',(3.306118061126,1.566643665834));
#321 = CARTESIAN_POINT('',(3.29392856898,1.566319552267));
#322 = CARTESIAN_POINT('',(3.283696106102,1.56599476627));
#323 = CARTESIAN_POINT('',(3.274951704039,1.565669469263));
#324 = CARTESIAN_POINT('',(3.267350300446,1.565343780761));
#325 = CARTESIAN_POINT('',(3.260672330421,1.565017776018));
#326 = CARTESIAN_POINT('',(3.254746579381,1.564691514001));
#327 = CARTESIAN_POINT('',(3.238858958994,1.563712723216));
#328 = CARTESIAN_POINT('',(3.230770729654,1.563059554013));
#329 = CARTESIAN_POINT('',(3.224175188319,1.56240587602));
#330 = CARTESIAN_POINT('',(3.218697092379,1.561751817126));
#331 = CARTESIAN_POINT('',(3.214030116253,1.561097482271));
#332 = CARTESIAN_POINT('',(3.210012860222,1.560442926406));
#333 = CARTESIAN_POINT('',(3.206509185453,1.559788196076));
#334 = CARTESIAN_POINT('',(3.197273569846,1.55782613443));
#335 = CARTESIAN_POINT('',(3.192797146815,1.556518377038));
#336 = CARTESIAN_POINT('',(3.189249987119,1.555210305803));
#337 = CARTESIAN_POINT('',(3.186400905721,1.553901999619));
#338 = CARTESIAN_POINT('',(3.184036889266,1.55259353143));
#339 = CARTESIAN_POINT('',(3.182063416736,1.551284933626));
#340 = CARTESIAN_POINT('',(3.180392061384,1.54997623666));
#341 = CARTESIAN_POINT('',(3.176127335114,1.546060131182));
#342 = CARTESIAN_POINT('',(3.174263259789,1.543452486193));
#343 = CARTESIAN_POINT('',(3.172917552274,1.540844682871));
#344 = CARTESIAN_POINT('',(3.171963812541,1.538236766638));
#345 = CARTESIAN_POINT('',(3.171275151682,1.535628783104));
#346 = CARTESIAN_POINT('',(3.170801387787,1.53302075177));
#347 = CARTESIAN_POINT('',(3.170491713058,1.530412692361));
#348 = CARTESIAN_POINT('',(3.169965372286,1.52262921981));
#349 = CARTESIAN_POINT('',(3.170138941701,1.517453762597));
#350 = CARTESIAN_POINT('',(3.170589010401,1.512278349262));
#351 = CARTESIAN_POINT('',(3.171239008834,1.50710302495));
#352 = CARTESIAN_POINT('',(3.172037900798,1.501927826141));
#353 = CARTESIAN_POINT('',(3.172942064617,1.496752786815));
#354 = CARTESIAN_POINT('',(3.173935214999,1.491577931674));
#355 = CARTESIAN_POINT('',(3.177089118658,1.476215704216));
#356 = CARTESIAN_POINT('',(3.179450285181,1.466028935688));
#357 = CARTESIAN_POINT('',(3.181954383879,1.455843170591));
#358 = CARTESIAN_POINT('',(3.1845625116,1.445658568994));
#359 = CARTESIAN_POINT('',(3.187248789562,1.435475287015));
#360 = CARTESIAN_POINT('',(3.189991086675,1.425293480071));
#361 = CARTESIAN_POINT('',(3.192781357356,1.415113299454));
#362 = CARTESIAN_POINT('',(3.201089655912,1.385214244732));
#363 = CARTESIAN_POINT('',(3.206713257037,1.36550026962));
#364 = CARTESIAN_POINT('',(3.212420453575,1.345794078972));
#365 = CARTESIAN_POINT('',(3.21819349795,1.326096775621));
#366 = CARTESIAN_POINT('',(3.224021223841,1.30640947356));
#367 = CARTESIAN_POINT('',(3.229894458344,1.286733302221));
#368 = CARTESIAN_POINT('',(3.235810830037,1.267069407673));
#369 = CARTESIAN_POINT('',(3.264103689009,1.173729772558));
#370 = CARTESIAN_POINT('',(3.287003462184,1.100229657798));
#371 = CARTESIAN_POINT('',(3.310348449342,1.026980205467));
#372 = CARTESIAN_POINT('',(3.33429563513,0.954047252711));
#373 = CARTESIAN_POINT('',(3.35888453973,0.881503229639));
#374 = CARTESIAN_POINT('',(3.384272253573,0.809429746155));
#375 = CARTESIAN_POINT('',(3.410582914888,0.737921171918));
#376 = CARTESIAN_POINT('',(3.479086208682,0.560843209214));
#377 = CARTESIAN_POINT('',(3.522640968519,0.456120493314));
#378 = CARTESIAN_POINT('',(3.569201281653,0.353302026863));
#379 = CARTESIAN_POINT('',(3.619434926695,0.252856853422));
#380 = CARTESIAN_POINT('',(3.674167062996,0.155394808036));
#381 = CARTESIAN_POINT('',(3.7343854944,6.170249905708E-02));
#382 = CARTESIAN_POINT('',(3.801353686903,-2.710681386963E-02));
#383 = CARTESIAN_POINT('',(3.913620347846,-0.150766644447));
#384 = CARTESIAN_POINT('',(3.953011817195,-0.190394369271));
#385 = CARTESIAN_POINT('',(3.994512380733,-0.228243585796));
#386 = CARTESIAN_POINT('',(4.038255305676,-0.264106553775));
#387 = CARTESIAN_POINT('',(4.084350968031,-0.297749967875));
#388 = CARTESIAN_POINT('',(4.132864288368,-0.328918215854));
#389 = CARTESIAN_POINT('',(4.18378591662,-0.357344009335));
#390 = CARTESIAN_POINT('',(4.290208415221,-0.408188765055));
#391 = CARTESIAN_POINT('',(4.345709776272,-0.430607842881));
#392 = CARTESIAN_POINT('',(4.403383018459,-0.449763055023));
#393 = CARTESIAN_POINT('',(4.463010082311,-0.465401840421));
#394 = CARTESIAN_POINT('',(4.524237413505,-0.477298034737));
#395 = CARTESIAN_POINT('',(4.586583374876,-0.485284194058));
#396 = CARTESIAN_POINT('',(4.649486078562,-0.489277300567));
#397 = CARTESIAN_POINT('',(4.712388980385,-0.489277300567));
#398 = ( GEOMETRIC_REPRESENTATION_CONTEXT(2) 
PARAMETRIC_REPRESENTATION_CONTEXT() REPRESENTATION_CONTEXT('2D SPACE',''
  ) );
#399 = PCURVE('',#400,#405);
#400 = CYLINDRICAL_SURFACE('',#401,2.4);
#401 = AXIS2_PLACEMENT_3D('',#402,#403,#404);
#402 = CARTESIAN_POINT('',(0.,-3.00809484921,-0.255));
#403 = DIRECTION('',(0.,-0.857492925713,0.514495755428));
#404 = DIRECTION('',(0.,-0.514495755428,-0.857492925713));
#405 = DEFINITIONAL_REPRESENTATION('',(#406),#410);
#406 = LINE('',#407,#408);
#407 = CARTESIAN_POINT('',(0.,1.442220510186));
#408 = VECTOR('',#409,1.);
#409 = DIRECTION('',(1.,0.));
#410 = ( GEOMETRIC_REPRESENTATION_CONTEXT(2) 
PARAMETRIC_REPRESENTATION_CONTEXT() REPRESENTATION_CONTEXT('2D SPACE',''
  ) );
#411 = ADVANCED_FACE('',(#412),#45,.T.);
#412 = FACE_BOUND('',#413,.T.);
#413 = EDGE_LOOP('',(#414,#440,#473,#497,#498));
#414 = ORIENTED_EDGE('',*,*,#415,.F.);
#415 = EDGE_CURVE('',#416,#91,#418,.T.);
#416 = VERTEX_POINT('',#417);
#417 = CARTESIAN_POINT('',(2.523854938383,0.15,-1.4675));
#418 = SURFACE_CURVE('',#419,(#423,#429),.PCURVE_S1.);
#419 = LINE('',#420,#421);
#420 = CARTESIAN_POINT('',(2.523854938383,1.4,-1.4675));
#421 = VECTOR('',#422,1.);
#422 = DIRECTION('',(0.,-1.,0.));
#423 = PCURVE('',#45,#424);
#424 = DEFINITIONAL_REPRESENTATION('',(#425),#428);
#425 = B_SPLINE_CURVE_WITH_KNOTS('',1,(#426,#427),.UNSPECIFIED.,.F.,.F.,
  (2,2),(1.2499994,4.40809544921),.PIECEWISE_BEZIER_KNOTS.);
#426 = CARTESIAN_POINT('',(1.122938399751,1.2499994));
#427 = CARTESIAN_POINT('',(1.122938399751,4.40809544921));
#428 = ( GEOMETRIC_REPRESENTATION_CONTEXT(2) 
PARAMETRIC_REPRESENTATION_CONTEXT() REPRESENTATION_CONTEXT('2D SPACE',''
  ) );
#429 = PCURVE('',#430,#435);
#430 = PLANE('',#431);
#431 = AXIS2_PLACEMENT_3D('',#432,#433,#434);
#432 = CARTESIAN_POINT('',(-4.175,-4.00809484921,-1.4675));
#433 = DIRECTION('',(0.,0.,1.));
#434 = DIRECTION('',(1.,0.,-0.));
#435 = DEFINITIONAL_REPRESENTATION('',(#436),#439);
#436 = B_SPLINE_CURVE_WITH_KNOTS('',1,(#437,#438),.UNSPECIFIED.,.F.,.F.,
  (2,2),(1.2499994,4.40809544921),.PIECEWISE_BEZIER_KNOTS.);
#437 = CARTESIAN_POINT('',(6.698854938383,4.15809544921));
#438 = CARTESIAN_POINT('',(6.698854938383,0.9999994));
#439 = ( GEOMETRIC_REPRESENTATION_CONTEXT(2) 
PARAMETRIC_REPRESENTATION_CONTEXT() REPRESENTATION_CONTEXT('2D SPACE',''
  ) );
#440 = ORIENTED_EDGE('',*,*,#441,.T.);
#441 = EDGE_CURVE('',#416,#442,#444,.T.);
#442 = VERTEX_POINT('',#443);
#443 = CARTESIAN_POINT('',(-2.523854938383,0.15,-1.4675));
#444 = SURFACE_CURVE('',#445,(#450,#457),.PCURVE_S1.);
#445 = CIRCLE('',#446,2.8);
#446 = AXIS2_PLACEMENT_3D('',#447,#448,#449);
#447 = CARTESIAN_POINT('',(0.,0.15,-0.255));
#448 = DIRECTION('',(0.,-1.,0.));
#449 = DIRECTION('',(0.,-0.,-1.));
#450 = PCURVE('',#45,#451);
#451 = DEFINITIONAL_REPRESENTATION('',(#452),#456);
#452 = LINE('',#453,#454);
#453 = CARTESIAN_POINT('',(0.,1.25));
#454 = VECTOR('',#455,1.);
#455 = DIRECTION('',(1.,0.));
#456 = ( GEOMETRIC_REPRESENTATION_CONTEXT(2) 
PARAMETRIC_REPRESENTATION_CONTEXT() REPRESENTATION_CONTEXT('2D SPACE',''
  ) );
#457 = PCURVE('',#458,#463);
#458 = PLANE('',#459);
#459 = AXIS2_PLACEMENT_3D('',#460,#461,#462);
#460 = CARTESIAN_POINT('',(-3.,0.15,5.12));
#461 = DIRECTION('',(-0.,1.,0.));
#462 = DIRECTION('',(0.,0.,-1.));
#463 = DEFINITIONAL_REPRESENTATION('',(#464),#472);
#464 = ( BOUNDED_CURVE() B_SPLINE_CURVE(2,(#465,#466,#467,#468,#469,#470
,#471),.UNSPECIFIED.,.T.,.F.) B_SPLINE_CURVE_WITH_KNOTS((1,2,2,2,2,1),(
    -2.094395102393,0.,2.094395102393,4.188790204786,6.28318530718,
8.377580409573),.UNSPECIFIED.) CURVE() GEOMETRIC_REPRESENTATION_ITEM() 
RATIONAL_B_SPLINE_CURVE((1.,0.5,1.,0.5,1.,0.5,1.)) REPRESENTATION_ITEM(
  '') );
#465 = CARTESIAN_POINT('',(8.175,-3.));
#466 = CARTESIAN_POINT('',(8.175,-7.849742261193));
#467 = CARTESIAN_POINT('',(3.975,-5.424871130596));
#468 = CARTESIAN_POINT('',(-0.225,-3.));
#469 = CARTESIAN_POINT('',(3.975,-0.575128869404));
#470 = CARTESIAN_POINT('',(8.175,1.849742261193));
#471 = CARTESIAN_POINT('',(8.175,-3.));
#472 = ( GEOMETRIC_REPRESENTATION_CONTEXT(2) 
PARAMETRIC_REPRESENTATION_CONTEXT() REPRESENTATION_CONTEXT('2D SPACE',''
  ) );
#473 = ORIENTED_EDGE('',*,*,#474,.T.);
#474 = EDGE_CURVE('',#442,#24,#475,.T.);
#475 = SURFACE_CURVE('',#476,(#480,#486),.PCURVE_S1.);
#476 = LINE('',#477,#478);
#477 = CARTESIAN_POINT('',(-2.523854938383,1.4,-1.4675));
#478 = VECTOR('',#479,1.);
#479 = DIRECTION('',(0.,-1.,0.));
#480 = PCURVE('',#45,#481);
#481 = DEFINITIONAL_REPRESENTATION('',(#482),#485);
#482 = B_SPLINE_CURVE_WITH_KNOTS('',1,(#483,#484),.UNSPECIFIED.,.F.,.F.,
  (2,2),(1.2499994,4.40809544921),.PIECEWISE_BEZIER_KNOTS.);
#483 = CARTESIAN_POINT('',(5.160246907429,1.2499994));
#484 = CARTESIAN_POINT('',(5.160246907429,4.40809544921));
#485 = ( GEOMETRIC_REPRESENTATION_CONTEXT(2) 
PARAMETRIC_REPRESENTATION_CONTEXT() REPRESENTATION_CONTEXT('2D SPACE',''
  ) );
#486 = PCURVE('',#487,#492);
#487 = PLANE('',#488);
#488 = AXIS2_PLACEMENT_3D('',#489,#490,#491);
#489 = CARTESIAN_POINT('',(-4.175,-4.00809484921,-1.4675));
#490 = DIRECTION('',(0.,0.,1.));
#491 = DIRECTION('',(1.,0.,-0.));
#492 = DEFINITIONAL_REPRESENTATION('',(#493),#496);
#493 = B_SPLINE_CURVE_WITH_KNOTS('',1,(#494,#495),.UNSPECIFIED.,.F.,.F.,
  (2,2),(1.2499994,4.40809544921),.PIECEWISE_BEZIER_KNOTS.);
#494 = CARTESIAN_POINT('',(1.651145061617,4.15809544921));
#495 = CARTESIAN_POINT('',(1.651145061617,0.9999994));
#496 = ( GEOMETRIC_REPRESENTATION_CONTEXT(2) 
PARAMETRIC_REPRESENTATION_CONTEXT() REPRESENTATION_CONTEXT('2D SPACE',''
  ) );
#497 = ORIENTED_EDGE('',*,*,#21,.F.);
#498 = ORIENTED_EDGE('',*,*,#123,.F.);
#499 = ADVANCED_FACE('',(#500),#74,.F.);
#500 = FACE_BOUND('',#501,.F.);
#501 = EDGE_LOOP('',(#502,#531,#550));
#502 = ORIENTED_EDGE('',*,*,#503,.T.);
#503 = EDGE_CURVE('',#58,#504,#506,.T.);
#504 = VERTEX_POINT('',#505);
#505 = CARTESIAN_POINT('',(-2.749630657016,-3.00809484921,-1.4675));
#506 = SURFACE_CURVE('',#507,(#512,#519),.PCURVE_S1.);
#507 = CIRCLE('',#508,3.175);
#508 = AXIS2_PLACEMENT_3D('',#509,#510,#511);
#509 = CARTESIAN_POINT('',(0.,-3.00809484921,0.12));
#510 = DIRECTION('',(0.,1.,0.));
#511 = DIRECTION('',(0.,-0.,1.));
#512 = PCURVE('',#74,#513);
#513 = DEFINITIONAL_REPRESENTATION('',(#514),#518);
#514 = CIRCLE('',#515,3.175);
#515 = AXIS2_PLACEMENT_2D('',#516,#517);
#516 = CARTESIAN_POINT('',(0.,0.));
#517 = DIRECTION('',(1.,0.));
#518 = ( GEOMETRIC_REPRESENTATION_CONTEXT(2) 
PARAMETRIC_REPRESENTATION_CONTEXT() REPRESENTATION_CONTEXT('2D SPACE',''
  ) );
#519 = PCURVE('',#520,#525);
#520 = CYLINDRICAL_SURFACE('',#521,3.175);
#521 = AXIS2_PLACEMENT_3D('',#522,#523,#524);
#522 = CARTESIAN_POINT('',(0.,-3.00809484921,0.12));
#523 = DIRECTION('',(0.,1.,0.));
#524 = DIRECTION('',(0.,-0.,1.));
#525 = DEFINITIONAL_REPRESENTATION('',(#526),#530);
#526 = LINE('',#527,#528);
#527 = CARTESIAN_POINT('',(0.,0.));
#528 = VECTOR('',#529,1.);
#529 = DIRECTION('',(1.,0.));
#530 = ( GEOMETRIC_REPRESENTATION_CONTEXT(2) 
PARAMETRIC_REPRESENTATION_CONTEXT() REPRESENTATION_CONTEXT('2D SPACE',''
  ) );
#531 = ORIENTED_EDGE('',*,*,#532,.T.);
#532 = EDGE_CURVE('',#504,#24,#533,.T.);
#533 = SURFACE_CURVE('',#534,(#538,#544),.PCURVE_S1.);
#534 = LINE('',#535,#536);
#535 = CARTESIAN_POINT('',(-2.0875,-3.00809484921,-1.4675));
#536 = VECTOR('',#537,1.);
#537 = DIRECTION('',(1.,0.,0.));
#538 = PCURVE('',#74,#539);
#539 = DEFINITIONAL_REPRESENTATION('',(#540),#543);
#540 = B_SPLINE_CURVE_WITH_KNOTS('',1,(#541,#542),.UNSPECIFIED.,.F.,.F.,
  (2,2),(-1.0875,5.2625),.PIECEWISE_BEZIER_KNOTS.);
#541 = CARTESIAN_POINT('',(-1.5875,-3.175));
#542 = CARTESIAN_POINT('',(-1.5875,3.175));
#543 = ( GEOMETRIC_REPRESENTATION_CONTEXT(2) 
PARAMETRIC_REPRESENTATION_CONTEXT() REPRESENTATION_CONTEXT('2D SPACE',''
  ) );
#544 = PCURVE('',#487,#545);
#545 = DEFINITIONAL_REPRESENTATION('',(#546),#549);
#546 = B_SPLINE_CURVE_WITH_KNOTS('',1,(#547,#548),.UNSPECIFIED.,.F.,.F.,
  (2,2),(-1.0875,5.2625),.PIECEWISE_BEZIER_KNOTS.);
#547 = CARTESIAN_POINT('',(1.,1.));
#548 = CARTESIAN_POINT('',(7.35,1.));
#549 = ( GEOMETRIC_REPRESENTATION_CONTEXT(2) 
PARAMETRIC_REPRESENTATION_CONTEXT() REPRESENTATION_CONTEXT('2D SPACE',''
  ) );
#550 = ORIENTED_EDGE('',*,*,#57,.T.);
#551 = ADVANCED_FACE('',(#552),#107,.F.);
#552 = FACE_BOUND('',#553,.F.);
#553 = EDGE_LOOP('',(#554,#578,#579));
#554 = ORIENTED_EDGE('',*,*,#555,.T.);
#555 = EDGE_CURVE('',#556,#58,#558,.T.);
#556 = VERTEX_POINT('',#557);
#557 = CARTESIAN_POINT('',(2.749630657016,-3.00809484921,-1.4675));
#558 = SURFACE_CURVE('',#559,(#564,#571),.PCURVE_S1.);
#559 = CIRCLE('',#560,3.175);
#560 = AXIS2_PLACEMENT_3D('',#561,#562,#563);
#561 = CARTESIAN_POINT('',(0.,-3.00809484921,0.12));
#562 = DIRECTION('',(0.,1.,0.));
#563 = DIRECTION('',(0.,-0.,1.));
#564 = PCURVE('',#107,#565);
#565 = DEFINITIONAL_REPRESENTATION('',(#566),#570);
#566 = CIRCLE('',#567,3.175);
#567 = AXIS2_PLACEMENT_2D('',#568,#569);
#568 = CARTESIAN_POINT('',(0.,0.));
#569 = DIRECTION('',(1.,0.));
#570 = ( GEOMETRIC_REPRESENTATION_CONTEXT(2) 
PARAMETRIC_REPRESENTATION_CONTEXT() REPRESENTATION_CONTEXT('2D SPACE',''
  ) );
#571 = PCURVE('',#520,#572);
#572 = DEFINITIONAL_REPRESENTATION('',(#573),#577);
#573 = LINE('',#574,#575);
#574 = CARTESIAN_POINT('',(0.,0.));
#575 = VECTOR('',#576,1.);
#576 = DIRECTION('',(1.,0.));
#577 = ( GEOMETRIC_REPRESENTATION_CONTEXT(2) 
PARAMETRIC_REPRESENTATION_CONTEXT() REPRESENTATION_CONTEXT('2D SPACE',''
  ) );
#578 = ORIENTED_EDGE('',*,*,#90,.T.);
#579 = ORIENTED_EDGE('',*,*,#580,.T.);
#580 = EDGE_CURVE('',#91,#556,#581,.T.);
#581 = SURFACE_CURVE('',#582,(#586,#592),.PCURVE_S1.);
#582 = LINE('',#583,#584);
#583 = CARTESIAN_POINT('',(-2.0875,-3.00809484921,-1.4675));
#584 = VECTOR('',#585,1.);
#585 = DIRECTION('',(1.,0.,0.));
#586 = PCURVE('',#107,#587);
#587 = DEFINITIONAL_REPRESENTATION('',(#588),#591);
#588 = B_SPLINE_CURVE_WITH_KNOTS('',1,(#589,#590),.UNSPECIFIED.,.F.,.F.,
  (2,2),(-1.0875,5.2625),.PIECEWISE_BEZIER_KNOTS.);
#589 = CARTESIAN_POINT('',(-1.5875,-3.175));
#590 = CARTESIAN_POINT('',(-1.5875,3.175));
#591 = ( GEOMETRIC_REPRESENTATION_CONTEXT(2) 
PARAMETRIC_REPRESENTATION_CONTEXT() REPRESENTATION_CONTEXT('2D SPACE',''
  ) );
#592 = PCURVE('',#430,#593);
#593 = DEFINITIONAL_REPRESENTATION('',(#594),#597);
#594 = B_SPLINE_CURVE_WITH_KNOTS('',1,(#595,#596),.UNSPECIFIED.,.F.,.F.,
  (2,2),(-1.0875,5.2625),.PIECEWISE_BEZIER_KNOTS.);
#595 = CARTESIAN_POINT('',(1.,1.));
#596 = CARTESIAN_POINT('',(7.35,1.));
#597 = ( GEOMETRIC_REPRESENTATION_CONTEXT(2) 
PARAMETRIC_REPRESENTATION_CONTEXT() REPRESENTATION_CONTEXT('2D SPACE',''
  ) );
#598 = ADVANCED_FACE('',(#599),#400,.T.);
#599 = FACE_BOUND('',#600,.T.);
#600 = EDGE_LOOP('',(#601,#624,#722,#764,#765));
#601 = ORIENTED_EDGE('',*,*,#602,.T.);
#602 = EDGE_CURVE('',#147,#603,#605,.T.);
#603 = VERTEX_POINT('',#604);
#604 = CARTESIAN_POINT('',(-5.878304635907E-16,-9.242884662236,
    0.68701697829));
#605 = SEAM_CURVE('',#606,(#610,#617),.PCURVE_S1.);
#606 = LINE('',#607,#608);
#607 = CARTESIAN_POINT('',(-5.878304635907E-16,-4.242884662236,
    -2.31298302171));
#608 = VECTOR('',#609,1.);
#609 = DIRECTION('',(0.,-0.857492925713,0.514495755428));
#610 = PCURVE('',#400,#611);
#611 = DEFINITIONAL_REPRESENTATION('',(#612),#616);
#612 = LINE('',#613,#614);
#613 = CARTESIAN_POINT('',(6.28318530718,-0.));
#614 = VECTOR('',#615,1.);
#615 = DIRECTION('',(0.,1.));
#616 = ( GEOMETRIC_REPRESENTATION_CONTEXT(2) 
PARAMETRIC_REPRESENTATION_CONTEXT() REPRESENTATION_CONTEXT('2D SPACE',''
  ) );
#617 = PCURVE('',#400,#618);
#618 = DEFINITIONAL_REPRESENTATION('',(#619),#623);
#619 = LINE('',#620,#621);
#620 = CARTESIAN_POINT('',(0.,-0.));
#621 = VECTOR('',#622,1.);
#622 = DIRECTION('',(0.,1.));
#623 = ( GEOMETRIC_REPRESENTATION_CONTEXT(2) 
PARAMETRIC_REPRESENTATION_CONTEXT() REPRESENTATION_CONTEXT('2D SPACE',''
  ) );
#624 = ORIENTED_EDGE('',*,*,#625,.F.);
#625 = EDGE_CURVE('',#626,#603,#628,.T.);
#626 = VERTEX_POINT('',#627);
#627 = CARTESIAN_POINT('',(2.4,-8.00809484921,2.745));
#628 = SURFACE_CURVE('',#629,(#634,#641),.PCURVE_S1.);
#629 = CIRCLE('',#630,2.4);
#630 = AXIS2_PLACEMENT_3D('',#631,#632,#633);
#631 = CARTESIAN_POINT('',(0.,-8.00809484921,2.745));
#632 = DIRECTION('',(0.,-0.857492925713,0.514495755428));
#633 = DIRECTION('',(0.,-0.514495755428,-0.857492925713));
#634 = PCURVE('',#400,#635);
#635 = DEFINITIONAL_REPRESENTATION('',(#636),#640);
#636 = LINE('',#637,#638);
#637 = CARTESIAN_POINT('',(0.,5.830951894845));
#638 = VECTOR('',#639,1.);
#639 = DIRECTION('',(1.,0.));
#640 = ( GEOMETRIC_REPRESENTATION_CONTEXT(2) 
PARAMETRIC_REPRESENTATION_CONTEXT() REPRESENTATION_CONTEXT('2D SPACE',''
  ) );
#641 = PCURVE('',#642,#647);
#642 = SPHERICAL_SURFACE('',#643,2.4);
#643 = AXIS2_PLACEMENT_3D('',#644,#645,#646);
#644 = CARTESIAN_POINT('',(0.,-8.00809484921,2.745));
#645 = DIRECTION('',(0.,0.,1.));
#646 = DIRECTION('',(1.,0.,-0.));
#647 = DEFINITIONAL_REPRESENTATION('',(#648),#721);
#648 = B_SPLINE_CURVE_WITH_KNOTS('',8,(#649,#650,#651,#652,#653,#654,
    #655,#656,#657,#658,#659,#660,#661,#662,#663,#664,#665,#666,#667,
    #668,#669,#670,#671,#672,#673,#674,#675,#676,#677,#678,#679,#680,
    #681,#682,#683,#684,#685,#686,#687,#688,#689,#690,#691,#692,#693,
    #694,#695,#696,#697,#698,#699,#700,#701,#702,#703,#704,#705,#706,
    #707,#708,#709,#710,#711,#712,#713,#714,#715,#716,#717,#718,#719,
    #720),.UNSPECIFIED.,.F.,.F.,(9,7,7,7,7,7,7,7,7,7,9),(1.570796326795,
    2.159844949343,2.675262494073,2.900757669892,3.112159397222,
    3.508537635967,4.20219955377,5.242692430475,5.762938868827,
    6.023062088003,6.28318530718),.UNSPECIFIED.);
#649 = CARTESIAN_POINT('',(-8.881784197001E-16,-4.25585492773E-15));
#650 = CARTESIAN_POINT('',(3.788287700517E-02,6.313812834196E-02));
#651 = CARTESIAN_POINT('',(7.576603557949E-02,0.126275961875));
#652 = CARTESIAN_POINT('',(0.114108286763,0.189276832227));
#653 = CARTESIAN_POINT('',(0.153372610506,0.252000308281));
#654 = CARTESIAN_POINT('',(0.194055846271,0.314295852094));
#655 = CARTESIAN_POINT('',(0.236732658075,0.375986766802));
#656 = CARTESIAN_POINT('',(0.282113773971,0.436844436505));
#657 = CARTESIAN_POINT('',(0.373997635208,0.548797727056));
#658 = CARTESIAN_POINT('',(0.419651192193,0.600162489758));
#659 = CARTESIAN_POINT('',(0.468695881803,0.650433957012));
#660 = CARTESIAN_POINT('',(0.521869017983,0.699346816134));
#661 = CARTESIAN_POINT('',(0.580075193652,0.746552742725));
#662 = CARTESIAN_POINT('',(0.644390774229,0.791602934906));
#663 = CARTESIAN_POINT('',(0.716147238139,0.833857139369));
#664 = CARTESIAN_POINT('',(0.831424933396,0.889394862194));
#665 = CARTESIAN_POINT('',(0.868124432629,0.905604924816));
#666 = CARTESIAN_POINT('',(0.906521672076,0.921053269145));
#667 = CARTESIAN_POINT('',(0.946688828225,0.9356645508));
#668 = CARTESIAN_POINT('',(0.988675458619,0.949356816064));
#669 = CARTESIAN_POINT('',(1.032495216173,0.962043093468));
#670 = CARTESIAN_POINT('',(1.078111316308,0.973634837609));
#671 = CARTESIAN_POINT('',(1.169773357466,0.993808838583));
#672 = CARTESIAN_POINT('',(1.215614452649,1.00253385826));
#673 = CARTESIAN_POINT('',(1.262859661782,1.010152736154));
#674 = CARTESIAN_POINT('',(1.311376628499,1.016598101581));
#675 = CARTESIAN_POINT('',(1.3609752468,1.021810219942));
#676 = CARTESIAN_POINT('',(1.411410234276,1.025741610746));
#677 = CARTESIAN_POINT('',(1.462396052482,1.02836082498));
#678 = CARTESIAN_POINT('',(1.609705653234,1.032082675924));
#679 = CARTESIAN_POINT('',(1.706663434334,1.029852614496));
#680 = CARTESIAN_POINT('',(1.80254334943,1.022882163575));
#681 = CARTESIAN_POINT('',(1.895185085578,1.011305311461));
#682 = CARTESIAN_POINT('',(1.982876853334,0.995533609576));
#683 = CARTESIAN_POINT('',(2.065022099545,0.976070554959));
#684 = CARTESIAN_POINT('',(2.141465769837,0.953402491132));
#685 = CARTESIAN_POINT('',(2.336548857974,0.883476866629));
#686 = CARTESIAN_POINT('',(2.443834744798,0.830527024588));
#687 = CARTESIAN_POINT('',(2.535266043186,0.771515485044));
#688 = CARTESIAN_POINT('',(2.614927691164,0.708385735414));
#689 = CARTESIAN_POINT('',(2.685452794675,0.642165934505));
#690 = CARTESIAN_POINT('',(2.748991534973,0.573695160532));
#691 = CARTESIAN_POINT('',(2.807162233813,0.503517538669));
#692 = CARTESIAN_POINT('',(2.942404038541,0.324895451008));
#693 = CARTESIAN_POINT('',(3.014382682818,0.214860813564));
#694 = CARTESIAN_POINT('',(3.081564033947,0.10341530978));
#695 = CARTESIAN_POINT('',(3.146628631321,-8.665210605811E-03));
#696 = CARTESIAN_POINT('',(3.211823997088,-0.12070644393));
#697 = CARTESIAN_POINT('',(3.279415518481,-0.232029949031));
#698 = CARTESIAN_POINT('',(3.352152983548,-0.341838054308));
#699 = CARTESIAN_POINT('',(3.475783203353,-0.501999733174));
#700 = CARTESIAN_POINT('',(3.519413777077,-0.554628497186));
#701 = CARTESIAN_POINT('',(3.566032212414,-0.606308377835));
#702 = CARTESIAN_POINT('',(3.616312506271,-0.656804470524));
#703 = CARTESIAN_POINT('',(3.671088140069,-0.705811178771));
#704 = CARTESIAN_POINT('',(3.73135477274,-0.752934089716));
#705 = CARTESIAN_POINT('',(3.798390555123,-0.797614121607));
#706 = CARTESIAN_POINT('',(3.910817166262,-0.859846716659));
#707 = CARTESIAN_POINT('',(3.950271712176,-0.879793077485));
#708 = CARTESIAN_POINT('',(3.991847576474,-0.898847753893));
#709 = CARTESIAN_POINT('',(4.035680771985,-0.916906011379));
#710 = CARTESIAN_POINT('',(4.081884710789,-0.933850070654));
#711 = CARTESIAN_POINT('',(4.130527337048,-0.949550705228));
#712 = CARTESIAN_POINT('',(4.181601696726,-0.963872593753));
#713 = CARTESIAN_POINT('',(4.28837819165,-0.989494260486));
#714 = CARTESIAN_POINT('',(4.344080763275,-1.000793836063));
#715 = CARTESIAN_POINT('',(4.401980540269,-1.010451333651));
#716 = CARTESIAN_POINT('',(4.461858393283,-1.018336275704));
#717 = CARTESIAN_POINT('',(4.523357982204,-1.024334915834));
#718 = CARTESIAN_POINT('',(4.585992076765,-1.028363275163));
#719 = CARTESIAN_POINT('',(4.649190397978,-1.030376826524));
#720 = CARTESIAN_POINT('',(4.712388980385,-1.030376826524));
#721 = ( GEOMETRIC_REPRESENTATION_CONTEXT(2) 
PARAMETRIC_REPRESENTATION_CONTEXT() REPRESENTATION_CONTEXT('2D SPACE',''
  ) );
#722 = ORIENTED_EDGE('',*,*,#723,.F.);
#723 = EDGE_CURVE('',#603,#626,#724,.T.);
#724 = SURFACE_CURVE('',#725,(#730,#737),.PCURVE_S1.);
#725 = CIRCLE('',#726,2.4);
#726 = AXIS2_PLACEMENT_3D('',#727,#728,#729);
#727 = CARTESIAN_POINT('',(0.,-8.00809484921,2.745));
#728 = DIRECTION('',(0.,-0.857492925713,0.514495755428));
#729 = DIRECTION('',(0.,-0.514495755428,-0.857492925713));
#730 = PCURVE('',#400,#731);
#731 = DEFINITIONAL_REPRESENTATION('',(#732),#736);
#732 = LINE('',#733,#734);
#733 = CARTESIAN_POINT('',(0.,5.830951894845));
#734 = VECTOR('',#735,1.);
#735 = DIRECTION('',(1.,0.));
#736 = ( GEOMETRIC_REPRESENTATION_CONTEXT(2) 
PARAMETRIC_REPRESENTATION_CONTEXT() REPRESENTATION_CONTEXT('2D SPACE',''
  ) );
#737 = PCURVE('',#642,#738);
#738 = DEFINITIONAL_REPRESENTATION('',(#739),#763);
#739 = B_SPLINE_CURVE_WITH_KNOTS('',8,(#740,#741,#742,#743,#744,#745,
    #746,#747,#748,#749,#750,#751,#752,#753,#754,#755,#756,#757,#758,
    #759,#760,#761,#762),.UNSPECIFIED.,.F.,.F.,(9,7,7,9),(0.,
    0.392699081699,0.981747704247,1.570796326795),.UNSPECIFIED.);
#740 = CARTESIAN_POINT('',(4.712388980385,-1.030376826524));
#741 = CARTESIAN_POINT('',(4.807797707657,-1.030376826524));
#742 = CARTESIAN_POINT('',(4.903205733607,-1.025787086339));
#743 = CARTESIAN_POINT('',(4.996673057902,-1.016608391938));
#744 = CARTESIAN_POINT('',(5.086228205662,-1.003057170265));
#745 = CARTESIAN_POINT('',(5.170548019054,-0.9855863166));
#746 = CARTESIAN_POINT('',(5.249272555175,-0.964689999072));
#747 = CARTESIAN_POINT('',(5.322403864319,-0.940834941824));
#748 = CARTESIAN_POINT('',(5.491953532439,-0.874844242005));
#749 = CARTESIAN_POINT('',(5.58173146926,-0.829531817287));
#750 = CARTESIAN_POINT('',(5.660482392432,-0.77991106729));
#751 = CARTESIAN_POINT('',(5.730415750953,-0.727128757335));
#752 = CARTESIAN_POINT('',(5.793261658295,-0.671910772814));
#753 = CARTESIAN_POINT('',(5.850433460812,-0.614820278507));
#754 = CARTESIAN_POINT('',(5.903062081222,-0.556261279759));
#755 = CARTESIAN_POINT('',(6.001071533209,-0.436844436505));
#756 = CARTESIAN_POINT('',(6.046452649104,-0.375986766802));
#757 = CARTESIAN_POINT('',(6.089129460908,-0.314295852094));
#758 = CARTESIAN_POINT('',(6.129812696674,-0.252000308281));
#759 = CARTESIAN_POINT('',(6.169077020417,-0.189276832227));
#760 = CARTESIAN_POINT('',(6.2074192716,-0.126275961875));
#761 = CARTESIAN_POINT('',(6.245302430174,-6.313812834197E-02));
#762 = CARTESIAN_POINT('',(6.28318530718,-4.25585492773E-15));
#763 = ( GEOMETRIC_REPRESENTATION_CONTEXT(2) 
PARAMETRIC_REPRESENTATION_CONTEXT() REPRESENTATION_CONTEXT('2D SPACE',''
  ) );
#764 = ORIENTED_EDGE('',*,*,#602,.F.);
#765 = ORIENTED_EDGE('',*,*,#146,.T.);
#766 = ADVANCED_FACE('',(#767),#430,.T.);
#767 = FACE_BOUND('',#768,.T.);
#768 = EDGE_LOOP('',(#769,#770,#771,#792));
#769 = ORIENTED_EDGE('',*,*,#415,.T.);
#770 = ORIENTED_EDGE('',*,*,#580,.T.);
#771 = ORIENTED_EDGE('',*,*,#772,.T.);
#772 = EDGE_CURVE('',#556,#773,#775,.T.);
#773 = VERTEX_POINT('',#774);
#774 = CARTESIAN_POINT('',(2.749630657016,0.15,-1.4675));
#775 = SURFACE_CURVE('',#776,(#780,#786),.PCURVE_S1.);
#776 = LINE('',#777,#778);
#777 = CARTESIAN_POINT('',(2.749630657016,-3.00809484921,-1.4675));
#778 = VECTOR('',#779,1.);
#779 = DIRECTION('',(0.,1.,0.));
#780 = PCURVE('',#430,#781);
#781 = DEFINITIONAL_REPRESENTATION('',(#782),#785);
#782 = B_SPLINE_CURVE_WITH_KNOTS('',1,(#783,#784),.UNSPECIFIED.,.F.,.F.,
  (2,2),(-5.999999999062E-07,4.40809544921),.PIECEWISE_BEZIER_KNOTS.);
#783 = CARTESIAN_POINT('',(6.924630657016,0.9999994));
#784 = CARTESIAN_POINT('',(6.924630657016,5.40809544921));
#785 = ( GEOMETRIC_REPRESENTATION_CONTEXT(2) 
PARAMETRIC_REPRESENTATION_CONTEXT() REPRESENTATION_CONTEXT('2D SPACE',''
  ) );
#786 = PCURVE('',#520,#787);
#787 = DEFINITIONAL_REPRESENTATION('',(#788),#791);
#788 = B_SPLINE_CURVE_WITH_KNOTS('',1,(#789,#790),.UNSPECIFIED.,.F.,.F.,
  (2,2),(-5.999999999062E-07,4.40809544921),.PIECEWISE_BEZIER_KNOTS.);
#789 = CARTESIAN_POINT('',(2.094395102393,-5.999999999062E-07));
#790 = CARTESIAN_POINT('',(2.094395102393,4.40809544921));
#791 = ( GEOMETRIC_REPRESENTATION_CONTEXT(2) 
PARAMETRIC_REPRESENTATION_CONTEXT() REPRESENTATION_CONTEXT('2D SPACE',''
  ) );
#792 = ORIENTED_EDGE('',*,*,#793,.F.);
#793 = EDGE_CURVE('',#416,#773,#794,.T.);
#794 = SURFACE_CURVE('',#795,(#799,#805),.PCURVE_S1.);
#795 = LINE('',#796,#797);
#796 = CARTESIAN_POINT('',(-3.5875,0.15,-1.4675));
#797 = VECTOR('',#798,1.);
#798 = DIRECTION('',(1.,0.,-0.));
#799 = PCURVE('',#430,#800);
#800 = DEFINITIONAL_REPRESENTATION('',(#801),#804);
#801 = B_SPLINE_CURVE_WITH_KNOTS('',1,(#802,#803),.UNSPECIFIED.,.F.,.F.,
  (2,2),(0.837869342984,6.337130657016),.PIECEWISE_BEZIER_KNOTS.);
#802 = CARTESIAN_POINT('',(1.425369342984,4.15809484921));
#803 = CARTESIAN_POINT('',(6.924630657016,4.15809484921));
#804 = ( GEOMETRIC_REPRESENTATION_CONTEXT(2) 
PARAMETRIC_REPRESENTATION_CONTEXT() REPRESENTATION_CONTEXT('2D SPACE',''
  ) );
#805 = PCURVE('',#458,#806);
#806 = DEFINITIONAL_REPRESENTATION('',(#807),#810);
#807 = B_SPLINE_CURVE_WITH_KNOTS('',1,(#808,#809),.UNSPECIFIED.,.F.,.F.,
  (2,2),(0.837869342984,6.337130657016),.PIECEWISE_BEZIER_KNOTS.);
#808 = CARTESIAN_POINT('',(6.5875,-0.250369342984));
#809 = CARTESIAN_POINT('',(6.5875,-5.749630657016));
#810 = ( GEOMETRIC_REPRESENTATION_CONTEXT(2) 
PARAMETRIC_REPRESENTATION_CONTEXT() REPRESENTATION_CONTEXT('2D SPACE',''
  ) );
#811 = ADVANCED_FACE('',(#812),#487,.T.);
#812 = FACE_BOUND('',#813,.T.);
#813 = EDGE_LOOP('',(#814,#835,#836,#837));
#814 = ORIENTED_EDGE('',*,*,#815,.F.);
#815 = EDGE_CURVE('',#504,#816,#818,.T.);
#816 = VERTEX_POINT('',#817);
#817 = CARTESIAN_POINT('',(-2.749630657016,0.15,-1.4675));
#818 = SURFACE_CURVE('',#819,(#823,#829),.PCURVE_S1.);
#819 = LINE('',#820,#821);
#820 = CARTESIAN_POINT('',(-2.749630657016,-3.00809484921,-1.4675));
#821 = VECTOR('',#822,1.);
#822 = DIRECTION('',(0.,1.,0.));
#823 = PCURVE('',#487,#824);
#824 = DEFINITIONAL_REPRESENTATION('',(#825),#828);
#825 = B_SPLINE_CURVE_WITH_KNOTS('',1,(#826,#827),.UNSPECIFIED.,.F.,.F.,
  (2,2),(-5.999999999062E-07,4.40809544921),.PIECEWISE_BEZIER_KNOTS.);
#826 = CARTESIAN_POINT('',(1.425369342984,0.9999994));
#827 = CARTESIAN_POINT('',(1.425369342984,5.40809544921));
#828 = ( GEOMETRIC_REPRESENTATION_CONTEXT(2) 
PARAMETRIC_REPRESENTATION_CONTEXT() REPRESENTATION_CONTEXT('2D SPACE',''
  ) );
#829 = PCURVE('',#520,#830);
#830 = DEFINITIONAL_REPRESENTATION('',(#831),#834);
#831 = B_SPLINE_CURVE_WITH_KNOTS('',1,(#832,#833),.UNSPECIFIED.,.F.,.F.,
  (2,2),(-5.999999999062E-07,4.40809544921),.PIECEWISE_BEZIER_KNOTS.);
#832 = CARTESIAN_POINT('',(4.188790204786,-5.999999999062E-07));
#833 = CARTESIAN_POINT('',(4.188790204786,4.40809544921));
#834 = ( GEOMETRIC_REPRESENTATION_CONTEXT(2) 
PARAMETRIC_REPRESENTATION_CONTEXT() REPRESENTATION_CONTEXT('2D SPACE',''
  ) );
#835 = ORIENTED_EDGE('',*,*,#532,.T.);
#836 = ORIENTED_EDGE('',*,*,#474,.F.);
#837 = ORIENTED_EDGE('',*,*,#838,.F.);
#838 = EDGE_CURVE('',#816,#442,#839,.T.);
#839 = SURFACE_CURVE('',#840,(#844,#850),.PCURVE_S1.);
#840 = LINE('',#841,#842);
#841 = CARTESIAN_POINT('',(-3.5875,0.15,-1.4675));
#842 = VECTOR('',#843,1.);
#843 = DIRECTION('',(1.,0.,-0.));
#844 = PCURVE('',#487,#845);
#845 = DEFINITIONAL_REPRESENTATION('',(#846),#849);
#846 = B_SPLINE_CURVE_WITH_KNOTS('',1,(#847,#848),.UNSPECIFIED.,.F.,.F.,
  (2,2),(0.837869342984,6.337130657016),.PIECEWISE_BEZIER_KNOTS.);
#847 = CARTESIAN_POINT('',(1.425369342984,4.15809484921));
#848 = CARTESIAN_POINT('',(6.924630657016,4.15809484921));
#849 = ( GEOMETRIC_REPRESENTATION_CONTEXT(2) 
PARAMETRIC_REPRESENTATION_CONTEXT() REPRESENTATION_CONTEXT('2D SPACE',''
  ) );
#850 = PCURVE('',#458,#851);
#851 = DEFINITIONAL_REPRESENTATION('',(#852),#855);
#852 = B_SPLINE_CURVE_WITH_KNOTS('',1,(#853,#854),.UNSPECIFIED.,.F.,.F.,
  (2,2),(0.837869342984,6.337130657016),.PIECEWISE_BEZIER_KNOTS.);
#853 = CARTESIAN_POINT('',(6.5875,-0.250369342984));
#854 = CARTESIAN_POINT('',(6.5875,-5.749630657016));
#855 = ( GEOMETRIC_REPRESENTATION_CONTEXT(2) 
PARAMETRIC_REPRESENTATION_CONTEXT() REPRESENTATION_CONTEXT('2D SPACE',''
  ) );
#856 = ADVANCED_FACE('',(#857,#971,#998),#458,.F.);
#857 = FACE_BOUND('',#858,.F.);
#858 = EDGE_LOOP('',(#859,#889,#917,#945));
#859 = ORIENTED_EDGE('',*,*,#860,.T.);
#860 = EDGE_CURVE('',#861,#863,#865,.T.);
#861 = VERTEX_POINT('',#862);
#862 = CARTESIAN_POINT('',(-3.,0.15,5.12));
#863 = VERTEX_POINT('',#864);
#864 = CARTESIAN_POINT('',(3.,0.15,5.12));
#865 = SURFACE_CURVE('',#866,(#870,#877),.PCURVE_S1.);
#866 = LINE('',#867,#868);
#867 = CARTESIAN_POINT('',(-3.,0.15,5.12));
#868 = VECTOR('',#869,1.);
#869 = DIRECTION('',(1.,0.,0.));
#870 = PCURVE('',#458,#871);
#871 = DEFINITIONAL_REPRESENTATION('',(#872),#876);
#872 = LINE('',#873,#874);
#873 = CARTESIAN_POINT('',(0.,0.));
#874 = VECTOR('',#875,1.);
#875 = DIRECTION('',(0.,-1.));
#876 = ( GEOMETRIC_REPRESENTATION_CONTEXT(2) 
PARAMETRIC_REPRESENTATION_CONTEXT() REPRESENTATION_CONTEXT('2D SPACE',''
  ) );
#877 = PCURVE('',#878,#883);
#878 = PLANE('',#879);
#879 = AXIS2_PLACEMENT_3D('',#880,#881,#882);
#880 = CARTESIAN_POINT('',(-3.,4.5,5.12));
#881 = DIRECTION('',(0.,0.,-1.));
#882 = DIRECTION('',(0.,-1.,0.));
#883 = DEFINITIONAL_REPRESENTATION('',(#884),#888);
#884 = LINE('',#885,#886);
#885 = CARTESIAN_POINT('',(4.35,0.));
#886 = VECTOR('',#887,1.);
#887 = DIRECTION('',(0.,-1.));
#888 = ( GEOMETRIC_REPRESENTATION_CONTEXT(2) 
PARAMETRIC_REPRESENTATION_CONTEXT() REPRESENTATION_CONTEXT('2D SPACE',''
  ) );
#889 = ORIENTED_EDGE('',*,*,#890,.T.);
#890 = EDGE_CURVE('',#863,#891,#893,.T.);
#891 = VERTEX_POINT('',#892);
#892 = CARTESIAN_POINT('',(3.,0.15,-30.4));
#893 = SURFACE_CURVE('',#894,(#898,#905),.PCURVE_S1.);
#894 = LINE('',#895,#896);
#895 = CARTESIAN_POINT('',(3.,0.15,5.12));
#896 = VECTOR('',#897,1.);
#897 = DIRECTION('',(0.,0.,-1.));
#898 = PCURVE('',#458,#899);
#899 = DEFINITIONAL_REPRESENTATION('',(#900),#904);
#900 = LINE('',#901,#902);
#901 = CARTESIAN_POINT('',(0.,-6.));
#902 = VECTOR('',#903,1.);
#903 = DIRECTION('',(1.,0.));
#904 = ( GEOMETRIC_REPRESENTATION_CONTEXT(2) 
PARAMETRIC_REPRESENTATION_CONTEXT() REPRESENTATION_CONTEXT('2D SPACE',''
  ) );
#905 = PCURVE('',#906,#911);
#906 = PLANE('',#907);
#907 = AXIS2_PLACEMENT_3D('',#908,#909,#910);
#908 = CARTESIAN_POINT('',(3.,2.325,-12.64));
#909 = DIRECTION('',(1.,0.,0.));
#910 = DIRECTION('',(-0.,0.,1.));
#911 = DEFINITIONAL_REPRESENTATION('',(#912),#916);
#912 = LINE('',#913,#914);
#913 = CARTESIAN_POINT('',(17.76,2.175));
#914 = VECTOR('',#915,1.);
#915 = DIRECTION('',(-1.,0.));
#916 = ( GEOMETRIC_REPRESENTATION_CONTEXT(2) 
PARAMETRIC_REPRESENTATION_CONTEXT() REPRESENTATION_CONTEXT('2D SPACE',''
  ) );
#917 = ORIENTED_EDGE('',*,*,#918,.F.);
#918 = EDGE_CURVE('',#919,#891,#921,.T.);
#919 = VERTEX_POINT('',#920);
#920 = CARTESIAN_POINT('',(-3.,0.15,-30.4));
#921 = SURFACE_CURVE('',#922,(#926,#933),.PCURVE_S1.);
#922 = LINE('',#923,#924);
#923 = CARTESIAN_POINT('',(-3.,0.15,-30.4));
#924 = VECTOR('',#925,1.);
#925 = DIRECTION('',(1.,0.,0.));
#926 = PCURVE('',#458,#927);
#927 = DEFINITIONAL_REPRESENTATION('',(#928),#932);
#928 = LINE('',#929,#930);
#929 = CARTESIAN_POINT('',(35.52,0.));
#930 = VECTOR('',#931,1.);
#931 = DIRECTION('',(0.,-1.));
#932 = ( GEOMETRIC_REPRESENTATION_CONTEXT(2) 
PARAMETRIC_REPRESENTATION_CONTEXT() REPRESENTATION_CONTEXT('2D SPACE',''
  ) );
#933 = PCURVE('',#934,#939);
#934 = PLANE('',#935);
#935 = AXIS2_PLACEMENT_3D('',#936,#937,#938);
#936 = CARTESIAN_POINT('',(-3.,0.15,-30.4));
#937 = DIRECTION('',(0.,0.,1.));
#938 = DIRECTION('',(0.,1.,0.));
#939 = DEFINITIONAL_REPRESENTATION('',(#940),#944);
#940 = LINE('',#941,#942);
#941 = CARTESIAN_POINT('',(0.,0.));
#942 = VECTOR('',#943,1.);
#943 = DIRECTION('',(0.,-1.));
#944 = ( GEOMETRIC_REPRESENTATION_CONTEXT(2) 
PARAMETRIC_REPRESENTATION_CONTEXT() REPRESENTATION_CONTEXT('2D SPACE',''
  ) );
#945 = ORIENTED_EDGE('',*,*,#946,.F.);
#946 = EDGE_CURVE('',#861,#919,#947,.T.);
#947 = SURFACE_CURVE('',#948,(#952,#959),.PCURVE_S1.);
#948 = LINE('',#949,#950);
#949 = CARTESIAN_POINT('',(-3.,0.15,5.12));
#950 = VECTOR('',#951,1.);
#951 = DIRECTION('',(0.,0.,-1.));
#952 = PCURVE('',#458,#953);
#953 = DEFINITIONAL_REPRESENTATION('',(#954),#958);
#954 = LINE('',#955,#956);
#955 = CARTESIAN_POINT('',(0.,0.));
#956 = VECTOR('',#957,1.);
#957 = DIRECTION('',(1.,0.));
#958 = ( GEOMETRIC_REPRESENTATION_CONTEXT(2) 
PARAMETRIC_REPRESENTATION_CONTEXT() REPRESENTATION_CONTEXT('2D SPACE',''
  ) );
#959 = PCURVE('',#960,#965);
#960 = PLANE('',#961);
#961 = AXIS2_PLACEMENT_3D('',#962,#963,#964);
#962 = CARTESIAN_POINT('',(-3.,2.325,-12.64));
#963 = DIRECTION('',(1.,0.,0.));
#964 = DIRECTION('',(-0.,0.,1.));
#965 = DEFINITIONAL_REPRESENTATION('',(#966),#970);
#966 = LINE('',#967,#968);
#967 = CARTESIAN_POINT('',(17.76,2.175));
#968 = VECTOR('',#969,1.);
#969 = DIRECTION('',(-1.,0.));
#970 = ( GEOMETRIC_REPRESENTATION_CONTEXT(2) 
PARAMETRIC_REPRESENTATION_CONTEXT() REPRESENTATION_CONTEXT('2D SPACE',''
  ) );
#971 = FACE_BOUND('',#972,.F.);
#972 = EDGE_LOOP('',(#973,#974,#996,#997));
#973 = ORIENTED_EDGE('',*,*,#838,.F.);
#974 = ORIENTED_EDGE('',*,*,#975,.F.);
#975 = EDGE_CURVE('',#773,#816,#976,.T.);
#976 = SURFACE_CURVE('',#977,(#982,#989),.PCURVE_S1.);
#977 = CIRCLE('',#978,3.175);
#978 = AXIS2_PLACEMENT_3D('',#979,#980,#981);
#979 = CARTESIAN_POINT('',(0.,0.15,0.12));
#980 = DIRECTION('',(0.,1.,0.));
#981 = DIRECTION('',(0.866025403784,0.,-0.5));
#982 = PCURVE('',#458,#983);
#983 = DEFINITIONAL_REPRESENTATION('',(#984),#988);
#984 = CIRCLE('',#985,3.175);
#985 = AXIS2_PLACEMENT_2D('',#986,#987);
#986 = CARTESIAN_POINT('',(5.,-3.));
#987 = DIRECTION('',(0.5,-0.866025403784));
#988 = ( GEOMETRIC_REPRESENTATION_CONTEXT(2) 
PARAMETRIC_REPRESENTATION_CONTEXT() REPRESENTATION_CONTEXT('2D SPACE',''
  ) );
#989 = PCURVE('',#520,#990);
#990 = DEFINITIONAL_REPRESENTATION('',(#991),#995);
#991 = LINE('',#992,#993);
#992 = CARTESIAN_POINT('',(2.094395102393,3.15809484921));
#993 = VECTOR('',#994,1.);
#994 = DIRECTION('',(1.,0.));
#995 = ( GEOMETRIC_REPRESENTATION_CONTEXT(2) 
PARAMETRIC_REPRESENTATION_CONTEXT() REPRESENTATION_CONTEXT('2D SPACE',''
  ) );
#996 = ORIENTED_EDGE('',*,*,#793,.F.);
#997 = ORIENTED_EDGE('',*,*,#441,.T.);
#998 = FACE_BOUND('',#999,.F.);
#999 = EDGE_LOOP('',(#1000,#1029,#1058,#1085));
#1000 = ORIENTED_EDGE('',*,*,#1001,.F.);
#1001 = EDGE_CURVE('',#1002,#1004,#1006,.T.);
#1002 = VERTEX_POINT('',#1003);
#1003 = CARTESIAN_POINT('',(2.523854938383,0.15,-26.8675));
#1004 = VERTEX_POINT('',#1005);
#1005 = CARTESIAN_POINT('',(2.749630657016,0.15,-26.8675));
#1006 = SURFACE_CURVE('',#1007,(#1011,#1017),.PCURVE_S1.);
#1007 = LINE('',#1008,#1009);
#1008 = CARTESIAN_POINT('',(-3.5875,0.15,-26.8675));
#1009 = VECTOR('',#1010,1.);
#1010 = DIRECTION('',(1.,0.,-0.));
#1011 = PCURVE('',#458,#1012);
#1012 = DEFINITIONAL_REPRESENTATION('',(#1013),#1016);
#1013 = B_SPLINE_CURVE_WITH_KNOTS('',1,(#1014,#1015),.UNSPECIFIED.,.F.,
  .F.,(2,2),(0.837869342984,6.337130657016),.PIECEWISE_BEZIER_KNOTS.);
#1014 = CARTESIAN_POINT('',(31.9875,-0.250369342984));
#1015 = CARTESIAN_POINT('',(31.9875,-5.749630657016));
#1016 = ( GEOMETRIC_REPRESENTATION_CONTEXT(2) 
PARAMETRIC_REPRESENTATION_CONTEXT() REPRESENTATION_CONTEXT('2D SPACE',''
  ) );
#1017 = PCURVE('',#1018,#1023);
#1018 = PLANE('',#1019);
#1019 = AXIS2_PLACEMENT_3D('',#1020,#1021,#1022);
#1020 = CARTESIAN_POINT('',(-4.175,-4.79,-26.8675));
#1021 = DIRECTION('',(0.,0.,1.));
#1022 = DIRECTION('',(1.,0.,-0.));
#1023 = DEFINITIONAL_REPRESENTATION('',(#1024),#1028);
#1024 = LINE('',#1025,#1026);
#1025 = CARTESIAN_POINT('',(0.5875,4.94));
#1026 = VECTOR('',#1027,1.);
#1027 = DIRECTION('',(1.,0.));
#1028 = ( GEOMETRIC_REPRESENTATION_CONTEXT(2) 
PARAMETRIC_REPRESENTATION_CONTEXT() REPRESENTATION_CONTEXT('2D SPACE',''
  ) );
#1029 = ORIENTED_EDGE('',*,*,#1030,.F.);
#1030 = EDGE_CURVE('',#1031,#1002,#1033,.T.);
#1031 = VERTEX_POINT('',#1032);
#1032 = CARTESIAN_POINT('',(-2.523854938383,0.15,-26.8675));
#1033 = SURFACE_CURVE('',#1034,(#1039,#1046),.PCURVE_S1.);
#1034 = CIRCLE('',#1035,2.8);
#1035 = AXIS2_PLACEMENT_3D('',#1036,#1037,#1038);
#1036 = CARTESIAN_POINT('',(0.,0.15,-25.655));
#1037 = DIRECTION('',(0.,1.,0.));
#1038 = DIRECTION('',(-0.901376763708,0.,-0.433035714286));
#1039 = PCURVE('',#458,#1040);
#1040 = DEFINITIONAL_REPRESENTATION('',(#1041),#1045);
#1041 = CIRCLE('',#1042,2.8);
#1042 = AXIS2_PLACEMENT_2D('',#1043,#1044);
#1043 = CARTESIAN_POINT('',(30.775,-3.));
#1044 = DIRECTION('',(0.433035714286,0.901376763708));
#1045 = ( GEOMETRIC_REPRESENTATION_CONTEXT(2) 
PARAMETRIC_REPRESENTATION_CONTEXT() REPRESENTATION_CONTEXT('2D SPACE',''
  ) );
#1046 = PCURVE('',#1047,#1052);
#1047 = CYLINDRICAL_SURFACE('',#1048,2.8);
#1048 = AXIS2_PLACEMENT_3D('',#1049,#1050,#1051);
#1049 = CARTESIAN_POINT('',(0.,-3.79,-25.655));
#1050 = DIRECTION('',(0.,1.,0.));
#1051 = DIRECTION('',(0.,-0.,1.));
#1052 = DEFINITIONAL_REPRESENTATION('',(#1053),#1057);
#1053 = LINE('',#1054,#1055);
#1054 = CARTESIAN_POINT('',(4.264531053341,3.94));
#1055 = VECTOR('',#1056,1.);
#1056 = DIRECTION('',(1.,0.));
#1057 = ( GEOMETRIC_REPRESENTATION_CONTEXT(2) 
PARAMETRIC_REPRESENTATION_CONTEXT() REPRESENTATION_CONTEXT('2D SPACE',''
  ) );
#1058 = ORIENTED_EDGE('',*,*,#1059,.F.);
#1059 = EDGE_CURVE('',#1060,#1031,#1062,.T.);
#1060 = VERTEX_POINT('',#1061);
#1061 = CARTESIAN_POINT('',(-2.749630657016,0.15,-26.8675));
#1062 = SURFACE_CURVE('',#1063,(#1067,#1073),.PCURVE_S1.);
#1063 = LINE('',#1064,#1065);
#1064 = CARTESIAN_POINT('',(-3.5875,0.15,-26.8675));
#1065 = VECTOR('',#1066,1.);
#1066 = DIRECTION('',(1.,0.,-0.));
#1067 = PCURVE('',#458,#1068);
#1068 = DEFINITIONAL_REPRESENTATION('',(#1069),#1072);
#1069 = B_SPLINE_CURVE_WITH_KNOTS('',1,(#1070,#1071),.UNSPECIFIED.,.F.,
  .F.,(2,2),(0.837869342984,6.337130657016),.PIECEWISE_BEZIER_KNOTS.);
#1070 = CARTESIAN_POINT('',(31.9875,-0.250369342984));
#1071 = CARTESIAN_POINT('',(31.9875,-5.749630657016));
#1072 = ( GEOMETRIC_REPRESENTATION_CONTEXT(2) 
PARAMETRIC_REPRESENTATION_CONTEXT() REPRESENTATION_CONTEXT('2D SPACE',''
  ) );
#1073 = PCURVE('',#1074,#1079);
#1074 = PLANE('',#1075);
#1075 = AXIS2_PLACEMENT_3D('',#1076,#1077,#1078);
#1076 = CARTESIAN_POINT('',(-4.175,-4.79,-26.8675));
#1077 = DIRECTION('',(0.,0.,1.));
#1078 = DIRECTION('',(1.,0.,-0.));
#1079 = DEFINITIONAL_REPRESENTATION('',(#1080),#1084);
#1080 = LINE('',#1081,#1082);
#1081 = CARTESIAN_POINT('',(0.5875,4.94));
#1082 = VECTOR('',#1083,1.);
#1083 = DIRECTION('',(1.,0.));
#1084 = ( GEOMETRIC_REPRESENTATION_CONTEXT(2) 
PARAMETRIC_REPRESENTATION_CONTEXT() REPRESENTATION_CONTEXT('2D SPACE',''
  ) );
#1085 = ORIENTED_EDGE('',*,*,#1086,.F.);
#1086 = EDGE_CURVE('',#1004,#1060,#1087,.T.);
#1087 = SURFACE_CURVE('',#1088,(#1093,#1100),.PCURVE_S1.);
#1088 = CIRCLE('',#1089,3.175);
#1089 = AXIS2_PLACEMENT_3D('',#1090,#1091,#1092);
#1090 = CARTESIAN_POINT('',(0.,0.15,-25.28));
#1091 = DIRECTION('',(0.,1.,0.));
#1092 = DIRECTION('',(0.866025403784,0.,-0.5));
#1093 = PCURVE('',#458,#1094);
#1094 = DEFINITIONAL_REPRESENTATION('',(#1095),#1099);
#1095 = CIRCLE('',#1096,3.175);
#1096 = AXIS2_PLACEMENT_2D('',#1097,#1098);
#1097 = CARTESIAN_POINT('',(30.4,-3.));
#1098 = DIRECTION('',(0.5,-0.866025403784));
#1099 = ( GEOMETRIC_REPRESENTATION_CONTEXT(2) 
PARAMETRIC_REPRESENTATION_CONTEXT() REPRESENTATION_CONTEXT('2D SPACE',''
  ) );
#1100 = PCURVE('',#1101,#1106);
#1101 = CYLINDRICAL_SURFACE('',#1102,3.175);
#1102 = AXIS2_PLACEMENT_3D('',#1103,#1104,#1105);
#1103 = CARTESIAN_POINT('',(0.,-3.79,-25.28));
#1104 = DIRECTION('',(0.,1.,0.));
#1105 = DIRECTION('',(0.,-0.,1.));
#1106 = DEFINITIONAL_REPRESENTATION('',(#1107),#1111);
#1107 = LINE('',#1108,#1109);
#1108 = CARTESIAN_POINT('',(2.094395102393,3.94));
#1109 = VECTOR('',#1110,1.);
#1110 = DIRECTION('',(1.,0.));
#1111 = ( GEOMETRIC_REPRESENTATION_CONTEXT(2) 
PARAMETRIC_REPRESENTATION_CONTEXT() REPRESENTATION_CONTEXT('2D SPACE',''
  ) );
#1112 = ADVANCED_FACE('',(#1113),#520,.T.);
#1113 = FACE_BOUND('',#1114,.T.);
#1114 = EDGE_LOOP('',(#1115,#1116,#1117,#1118,#1119));
#1115 = ORIENTED_EDGE('',*,*,#815,.T.);
#1116 = ORIENTED_EDGE('',*,*,#975,.F.);
#1117 = ORIENTED_EDGE('',*,*,#772,.F.);
#1118 = ORIENTED_EDGE('',*,*,#555,.T.);
#1119 = ORIENTED_EDGE('',*,*,#503,.T.);
#1120 = ADVANCED_FACE('',(#1121),#642,.T.);
#1121 = FACE_BOUND('',#1122,.T.);
#1122 = EDGE_LOOP('',(#1123,#1147,#1148,#1149));
#1123 = ORIENTED_EDGE('',*,*,#1124,.T.);
#1124 = EDGE_CURVE('',#626,#1125,#1127,.T.);
#1125 = VERTEX_POINT('',#1126);
#1126 = CARTESIAN_POINT('',(1.469576158977E-16,-8.00809484921,5.145));
#1127 = SEAM_CURVE('',#1128,(#1133,#1140),.PCURVE_S1.);
#1128 = CIRCLE('',#1129,2.4);
#1129 = AXIS2_PLACEMENT_3D('',#1130,#1131,#1132);
#1130 = CARTESIAN_POINT('',(0.,-8.00809484921,2.745));
#1131 = DIRECTION('',(-2.449293598295E-16,-1.,0.));
#1132 = DIRECTION('',(1.,-2.449293598295E-16,0.));
#1133 = PCURVE('',#642,#1134);
#1134 = DEFINITIONAL_REPRESENTATION('',(#1135),#1139);
#1135 = LINE('',#1136,#1137);
#1136 = CARTESIAN_POINT('',(6.28318530718,-6.28318530718));
#1137 = VECTOR('',#1138,1.);
#1138 = DIRECTION('',(0.,1.));
#1139 = ( GEOMETRIC_REPRESENTATION_CONTEXT(2) 
PARAMETRIC_REPRESENTATION_CONTEXT() REPRESENTATION_CONTEXT('2D SPACE',''
  ) );
#1140 = PCURVE('',#642,#1141);
#1141 = DEFINITIONAL_REPRESENTATION('',(#1142),#1146);
#1142 = LINE('',#1143,#1144);
#1143 = CARTESIAN_POINT('',(0.,-6.28318530718));
#1144 = VECTOR('',#1145,1.);
#1145 = DIRECTION('',(0.,1.));
#1146 = ( GEOMETRIC_REPRESENTATION_CONTEXT(2) 
PARAMETRIC_REPRESENTATION_CONTEXT() REPRESENTATION_CONTEXT('2D SPACE',''
  ) );
#1147 = ORIENTED_EDGE('',*,*,#1124,.F.);
#1148 = ORIENTED_EDGE('',*,*,#625,.T.);
#1149 = ORIENTED_EDGE('',*,*,#723,.T.);
#1150 = ADVANCED_FACE('',(#1151),#878,.F.);
#1151 = FACE_BOUND('',#1152,.F.);
#1152 = EDGE_LOOP('',(#1153,#1183,#1204,#1205));
#1153 = ORIENTED_EDGE('',*,*,#1154,.T.);
#1154 = EDGE_CURVE('',#1155,#1157,#1159,.T.);
#1155 = VERTEX_POINT('',#1156);
#1156 = CARTESIAN_POINT('',(-3.,4.5,5.12));
#1157 = VERTEX_POINT('',#1158);
#1158 = CARTESIAN_POINT('',(3.,4.5,5.12));
#1159 = SURFACE_CURVE('',#1160,(#1164,#1171),.PCURVE_S1.);
#1160 = LINE('',#1161,#1162);
#1161 = CARTESIAN_POINT('',(-3.,4.5,5.12));
#1162 = VECTOR('',#1163,1.);
#1163 = DIRECTION('',(1.,0.,0.));
#1164 = PCURVE('',#878,#1165);
#1165 = DEFINITIONAL_REPRESENTATION('',(#1166),#1170);
#1166 = LINE('',#1167,#1168);
#1167 = CARTESIAN_POINT('',(0.,-0.));
#1168 = VECTOR('',#1169,1.);
#1169 = DIRECTION('',(0.,-1.));
#1170 = ( GEOMETRIC_REPRESENTATION_CONTEXT(2) 
PARAMETRIC_REPRESENTATION_CONTEXT() REPRESENTATION_CONTEXT('2D SPACE',''
  ) );
#1171 = PCURVE('',#1172,#1177);
#1172 = PLANE('',#1173);
#1173 = AXIS2_PLACEMENT_3D('',#1174,#1175,#1176);
#1174 = CARTESIAN_POINT('',(-3.,4.5,-30.4));
#1175 = DIRECTION('',(0.,-1.,0.));
#1176 = DIRECTION('',(0.,0.,1.));
#1177 = DEFINITIONAL_REPRESENTATION('',(#1178),#1182);
#1178 = LINE('',#1179,#1180);
#1179 = CARTESIAN_POINT('',(35.52,0.));
#1180 = VECTOR('',#1181,1.);
#1181 = DIRECTION('',(0.,-1.));
#1182 = ( GEOMETRIC_REPRESENTATION_CONTEXT(2) 
PARAMETRIC_REPRESENTATION_CONTEXT() REPRESENTATION_CONTEXT('2D SPACE',''
  ) );
#1183 = ORIENTED_EDGE('',*,*,#1184,.T.);
#1184 = EDGE_CURVE('',#1157,#863,#1185,.T.);
#1185 = SURFACE_CURVE('',#1186,(#1190,#1197),.PCURVE_S1.);
#1186 = LINE('',#1187,#1188);
#1187 = CARTESIAN_POINT('',(3.,4.5,5.12));
#1188 = VECTOR('',#1189,1.);
#1189 = DIRECTION('',(0.,-1.,0.));
#1190 = PCURVE('',#878,#1191);
#1191 = DEFINITIONAL_REPRESENTATION('',(#1192),#1196);
#1192 = LINE('',#1193,#1194);
#1193 = CARTESIAN_POINT('',(0.,-6.));
#1194 = VECTOR('',#1195,1.);
#1195 = DIRECTION('',(1.,0.));
#1196 = ( GEOMETRIC_REPRESENTATION_CONTEXT(2) 
PARAMETRIC_REPRESENTATION_CONTEXT() REPRESENTATION_CONTEXT('2D SPACE',''
  ) );
#1197 = PCURVE('',#906,#1198);
#1198 = DEFINITIONAL_REPRESENTATION('',(#1199),#1203);
#1199 = LINE('',#1200,#1201);
#1200 = CARTESIAN_POINT('',(17.76,-2.175));
#1201 = VECTOR('',#1202,1.);
#1202 = DIRECTION('',(0.,1.));
#1203 = ( GEOMETRIC_REPRESENTATION_CONTEXT(2) 
PARAMETRIC_REPRESENTATION_CONTEXT() REPRESENTATION_CONTEXT('2D SPACE',''
  ) );
#1204 = ORIENTED_EDGE('',*,*,#860,.F.);
#1205 = ORIENTED_EDGE('',*,*,#1206,.F.);
#1206 = EDGE_CURVE('',#1155,#861,#1207,.T.);
#1207 = SURFACE_CURVE('',#1208,(#1212,#1219),.PCURVE_S1.);
#1208 = LINE('',#1209,#1210);
#1209 = CARTESIAN_POINT('',(-3.,4.5,5.12));
#1210 = VECTOR('',#1211,1.);
#1211 = DIRECTION('',(0.,-1.,0.));
#1212 = PCURVE('',#878,#1213);
#1213 = DEFINITIONAL_REPRESENTATION('',(#1214),#1218);
#1214 = LINE('',#1215,#1216);
#1215 = CARTESIAN_POINT('',(0.,-0.));
#1216 = VECTOR('',#1217,1.);
#1217 = DIRECTION('',(1.,0.));
#1218 = ( GEOMETRIC_REPRESENTATION_CONTEXT(2) 
PARAMETRIC_REPRESENTATION_CONTEXT() REPRESENTATION_CONTEXT('2D SPACE',''
  ) );
#1219 = PCURVE('',#960,#1220);
#1220 = DEFINITIONAL_REPRESENTATION('',(#1221),#1225);
#1221 = LINE('',#1222,#1223);
#1222 = CARTESIAN_POINT('',(17.76,-2.175));
#1223 = VECTOR('',#1224,1.);
#1224 = DIRECTION('',(0.,1.));
#1225 = ( GEOMETRIC_REPRESENTATION_CONTEXT(2) 
PARAMETRIC_REPRESENTATION_CONTEXT() REPRESENTATION_CONTEXT('2D SPACE',''
  ) );
#1226 = ADVANCED_FACE('',(#1227),#906,.T.);
#1227 = FACE_BOUND('',#1228,.T.);
#1228 = EDGE_LOOP('',(#1229,#1252,#1253,#1254));
#1229 = ORIENTED_EDGE('',*,*,#1230,.T.);
#1230 = EDGE_CURVE('',#1231,#1157,#1233,.T.);
#1231 = VERTEX_POINT('',#1232);
#1232 = CARTESIAN_POINT('',(3.,4.5,-30.4));
#1233 = SURFACE_CURVE('',#1234,(#1238,#1245),.PCURVE_S1.);
#1234 = LINE('',#1235,#1236);
#1235 = CARTESIAN_POINT('',(3.,4.5,-30.4));
#1236 = VECTOR('',#1237,1.);
#1237 = DIRECTION('',(0.,0.,1.));
#1238 = PCURVE('',#906,#1239);
#1239 = DEFINITIONAL_REPRESENTATION('',(#1240),#1244);
#1240 = LINE('',#1241,#1242);
#1241 = CARTESIAN_POINT('',(-17.76,-2.175));
#1242 = VECTOR('',#1243,1.);
#1243 = DIRECTION('',(1.,0.));
#1244 = ( GEOMETRIC_REPRESENTATION_CONTEXT(2) 
PARAMETRIC_REPRESENTATION_CONTEXT() REPRESENTATION_CONTEXT('2D SPACE',''
  ) );
#1245 = PCURVE('',#1172,#1246);
#1246 = DEFINITIONAL_REPRESENTATION('',(#1247),#1251);
#1247 = LINE('',#1248,#1249);
#1248 = CARTESIAN_POINT('',(0.,-6.));
#1249 = VECTOR('',#1250,1.);
#1250 = DIRECTION('',(1.,0.));
#1251 = ( GEOMETRIC_REPRESENTATION_CONTEXT(2) 
PARAMETRIC_REPRESENTATION_CONTEXT() REPRESENTATION_CONTEXT('2D SPACE',''
  ) );
#1252 = ORIENTED_EDGE('',*,*,#1184,.T.);
#1253 = ORIENTED_EDGE('',*,*,#890,.T.);
#1254 = ORIENTED_EDGE('',*,*,#1255,.T.);
#1255 = EDGE_CURVE('',#891,#1231,#1256,.T.);
#1256 = SURFACE_CURVE('',#1257,(#1261,#1268),.PCURVE_S1.);
#1257 = LINE('',#1258,#1259);
#1258 = CARTESIAN_POINT('',(3.,0.15,-30.4));
#1259 = VECTOR('',#1260,1.);
#1260 = DIRECTION('',(0.,1.,0.));
#1261 = PCURVE('',#906,#1262);
#1262 = DEFINITIONAL_REPRESENTATION('',(#1263),#1267);
#1263 = LINE('',#1264,#1265);
#1264 = CARTESIAN_POINT('',(-17.76,2.175));
#1265 = VECTOR('',#1266,1.);
#1266 = DIRECTION('',(0.,-1.));
#1267 = ( GEOMETRIC_REPRESENTATION_CONTEXT(2) 
PARAMETRIC_REPRESENTATION_CONTEXT() REPRESENTATION_CONTEXT('2D SPACE',''
  ) );
#1268 = PCURVE('',#934,#1269);
#1269 = DEFINITIONAL_REPRESENTATION('',(#1270),#1274);
#1270 = LINE('',#1271,#1272);
#1271 = CARTESIAN_POINT('',(0.,-6.));
#1272 = VECTOR('',#1273,1.);
#1273 = DIRECTION('',(1.,0.));
#1274 = ( GEOMETRIC_REPRESENTATION_CONTEXT(2) 
PARAMETRIC_REPRESENTATION_CONTEXT() REPRESENTATION_CONTEXT('2D SPACE',''
  ) );
#1275 = ADVANCED_FACE('',(#1276),#934,.F.);
#1276 = FACE_BOUND('',#1277,.F.);
#1277 = EDGE_LOOP('',(#1278,#1279,#1280,#1303));
#1278 = ORIENTED_EDGE('',*,*,#918,.T.);
#1279 = ORIENTED_EDGE('',*,*,#1255,.T.);
#1280 = ORIENTED_EDGE('',*,*,#1281,.F.);
#1281 = EDGE_CURVE('',#1282,#1231,#1284,.T.);
#1282 = VERTEX_POINT('',#1283);
#1283 = CARTESIAN_POINT('',(-3.,4.5,-30.4));
#1284 = SURFACE_CURVE('',#1285,(#1289,#1296),.PCURVE_S1.);
#1285 = LINE('',#1286,#1287);
#1286 = CARTESIAN_POINT('',(-3.,4.5,-30.4));
#1287 = VECTOR('',#1288,1.);
#1288 = DIRECTION('',(1.,0.,0.));
#1289 = PCURVE('',#934,#1290);
#1290 = DEFINITIONAL_REPRESENTATION('',(#1291),#1295);
#1291 = LINE('',#1292,#1293);
#1292 = CARTESIAN_POINT('',(4.35,0.));
#1293 = VECTOR('',#1294,1.);
#1294 = DIRECTION('',(0.,-1.));
#1295 = ( GEOMETRIC_REPRESENTATION_CONTEXT(2) 
PARAMETRIC_REPRESENTATION_CONTEXT() REPRESENTATION_CONTEXT('2D SPACE',''
  ) );
#1296 = PCURVE('',#1172,#1297);
#1297 = DEFINITIONAL_REPRESENTATION('',(#1298),#1302);
#1298 = LINE('',#1299,#1300);
#1299 = CARTESIAN_POINT('',(0.,0.));
#1300 = VECTOR('',#1301,1.);
#1301 = DIRECTION('',(0.,-1.));
#1302 = ( GEOMETRIC_REPRESENTATION_CONTEXT(2) 
PARAMETRIC_REPRESENTATION_CONTEXT() REPRESENTATION_CONTEXT('2D SPACE',''
  ) );
#1303 = ORIENTED_EDGE('',*,*,#1304,.F.);
#1304 = EDGE_CURVE('',#919,#1282,#1305,.T.);
#1305 = SURFACE_CURVE('',#1306,(#1310,#1317),.PCURVE_S1.);
#1306 = LINE('',#1307,#1308);
#1307 = CARTESIAN_POINT('',(-3.,0.15,-30.4));
#1308 = VECTOR('',#1309,1.);
#1309 = DIRECTION('',(0.,1.,0.));
#1310 = PCURVE('',#934,#1311);
#1311 = DEFINITIONAL_REPRESENTATION('',(#1312),#1316);
#1312 = LINE('',#1313,#1314);
#1313 = CARTESIAN_POINT('',(0.,0.));
#1314 = VECTOR('',#1315,1.);
#1315 = DIRECTION('',(1.,0.));
#1316 = ( GEOMETRIC_REPRESENTATION_CONTEXT(2) 
PARAMETRIC_REPRESENTATION_CONTEXT() REPRESENTATION_CONTEXT('2D SPACE',''
  ) );
#1317 = PCURVE('',#960,#1318);
#1318 = DEFINITIONAL_REPRESENTATION('',(#1319),#1323);
#1319 = LINE('',#1320,#1321);
#1320 = CARTESIAN_POINT('',(-17.76,2.175));
#1321 = VECTOR('',#1322,1.);
#1322 = DIRECTION('',(0.,-1.));
#1323 = ( GEOMETRIC_REPRESENTATION_CONTEXT(2) 
PARAMETRIC_REPRESENTATION_CONTEXT() REPRESENTATION_CONTEXT('2D SPACE',''
  ) );
#1324 = ADVANCED_FACE('',(#1325),#960,.F.);
#1325 = FACE_BOUND('',#1326,.F.);
#1326 = EDGE_LOOP('',(#1327,#1348,#1349,#1350));
#1327 = ORIENTED_EDGE('',*,*,#1328,.T.);
#1328 = EDGE_CURVE('',#1282,#1155,#1329,.T.);
#1329 = SURFACE_CURVE('',#1330,(#1334,#1341),.PCURVE_S1.);
#1330 = LINE('',#1331,#1332);
#1331 = CARTESIAN_POINT('',(-3.,4.5,-30.4));
#1332 = VECTOR('',#1333,1.);
#1333 = DIRECTION('',(0.,0.,1.));
#1334 = PCURVE('',#960,#1335);
#1335 = DEFINITIONAL_REPRESENTATION('',(#1336),#1340);
#1336 = LINE('',#1337,#1338);
#1337 = CARTESIAN_POINT('',(-17.76,-2.175));
#1338 = VECTOR('',#1339,1.);
#1339 = DIRECTION('',(1.,0.));
#1340 = ( GEOMETRIC_REPRESENTATION_CONTEXT(2) 
PARAMETRIC_REPRESENTATION_CONTEXT() REPRESENTATION_CONTEXT('2D SPACE',''
  ) );
#1341 = PCURVE('',#1172,#1342);
#1342 = DEFINITIONAL_REPRESENTATION('',(#1343),#1347);
#1343 = LINE('',#1344,#1345);
#1344 = CARTESIAN_POINT('',(0.,0.));
#1345 = VECTOR('',#1346,1.);
#1346 = DIRECTION('',(1.,0.));
#1347 = ( GEOMETRIC_REPRESENTATION_CONTEXT(2) 
PARAMETRIC_REPRESENTATION_CONTEXT() REPRESENTATION_CONTEXT('2D SPACE',''
  ) );
#1348 = ORIENTED_EDGE('',*,*,#1206,.T.);
#1349 = ORIENTED_EDGE('',*,*,#946,.T.);
#1350 = ORIENTED_EDGE('',*,*,#1304,.T.);
#1351 = ADVANCED_FACE('',(#1352),#1018,.T.);
#1352 = FACE_BOUND('',#1353,.T.);
#1353 = EDGE_LOOP('',(#1354,#1376,#1408,#1436,#1468,#1488));
#1354 = ORIENTED_EDGE('',*,*,#1355,.F.);
#1355 = EDGE_CURVE('',#1356,#1002,#1358,.T.);
#1356 = VERTEX_POINT('',#1357);
#1357 = CARTESIAN_POINT('',(2.523854938383,-3.79,-26.8675));
#1358 = SURFACE_CURVE('',#1359,(#1363,#1370),.PCURVE_S1.);
#1359 = LINE('',#1360,#1361);
#1360 = CARTESIAN_POINT('',(2.523854938383,-3.79,-26.8675));
#1361 = VECTOR('',#1362,1.);
#1362 = DIRECTION('',(0.,1.,0.));
#1363 = PCURVE('',#1018,#1364);
#1364 = DEFINITIONAL_REPRESENTATION('',(#1365),#1369);
#1365 = LINE('',#1366,#1367);
#1366 = CARTESIAN_POINT('',(6.698854938383,1.));
#1367 = VECTOR('',#1368,1.);
#1368 = DIRECTION('',(0.,1.));
#1369 = ( GEOMETRIC_REPRESENTATION_CONTEXT(2) 
PARAMETRIC_REPRESENTATION_CONTEXT() REPRESENTATION_CONTEXT('2D SPACE',''
  ) );
#1370 = PCURVE('',#1047,#1371);
#1371 = DEFINITIONAL_REPRESENTATION('',(#1372),#1375);
#1372 = B_SPLINE_CURVE_WITH_KNOTS('',1,(#1373,#1374),.UNSPECIFIED.,.F.,
  .F.,(2,2),(0.,3.94),.PIECEWISE_BEZIER_KNOTS.);
#1373 = CARTESIAN_POINT('',(8.301839561018,0.));
#1374 = CARTESIAN_POINT('',(8.301839561018,3.94));
#1375 = ( GEOMETRIC_REPRESENTATION_CONTEXT(2) 
PARAMETRIC_REPRESENTATION_CONTEXT() REPRESENTATION_CONTEXT('2D SPACE',''
  ) );
#1376 = ORIENTED_EDGE('',*,*,#1377,.T.);
#1377 = EDGE_CURVE('',#1356,#1378,#1380,.T.);
#1378 = VERTEX_POINT('',#1379);
#1379 = CARTESIAN_POINT('',(1.954442055933,-4.29,-26.8675));
#1380 = SURFACE_CURVE('',#1381,(#1386,#1393),.PCURVE_S1.);
#1381 = HYPERBOLA('',#1382,1.2125,1.2125);
#1382 = AXIS2_PLACEMENT_3D('',#1383,#1384,#1385);
#1383 = CARTESIAN_POINT('',(0.,-6.59,-26.8675));
#1384 = DIRECTION('',(0.,0.,1.));
#1385 = DIRECTION('',(0.,1.,-0.));
#1386 = PCURVE('',#1018,#1387);
#1387 = DEFINITIONAL_REPRESENTATION('',(#1388),#1392);
#1388 = HYPERBOLA('',#1389,1.2125,1.2125);
#1389 = AXIS2_PLACEMENT_2D('',#1390,#1391);
#1390 = CARTESIAN_POINT('',(4.175,-1.8));
#1391 = DIRECTION('',(0.,1.));
#1392 = ( GEOMETRIC_REPRESENTATION_CONTEXT(2) 
PARAMETRIC_REPRESENTATION_CONTEXT() REPRESENTATION_CONTEXT('2D SPACE',''
  ) );
#1393 = PCURVE('',#1394,#1399);
#1394 = CONICAL_SURFACE('',#1395,2.3,0.785398163397);
#1395 = AXIS2_PLACEMENT_3D('',#1396,#1397,#1398);
#1396 = CARTESIAN_POINT('',(0.,-4.29,-25.655));
#1397 = DIRECTION('',(0.,1.,0.));
#1398 = DIRECTION('',(0.,-0.,1.));
#1399 = DEFINITIONAL_REPRESENTATION('',(#1400),#1407);
#1400 = B_SPLINE_CURVE_WITH_KNOTS('',5,(#1401,#1402,#1403,#1404,#1405,
    #1406),.UNSPECIFIED.,.F.,.F.,(6,6),(-1.479513309597,-1.255279282908)
  ,.PIECEWISE_BEZIER_KNOTS.);
#1401 = CARTESIAN_POINT('',(8.301839561018,0.5));
#1402 = CARTESIAN_POINT('',(8.321259829401,0.386813168877));
#1403 = CARTESIAN_POINT('',(8.341661411056,0.280665653667));
#1404 = CARTESIAN_POINT('',(8.363095093209,0.181083258514));
#1405 = CARTESIAN_POINT('',(8.385610931954,8.765048242661E-02));
#1406 = CARTESIAN_POINT('',(8.409252997812,4.440892098501E-16));
#1407 = ( GEOMETRIC_REPRESENTATION_CONTEXT(2) 
PARAMETRIC_REPRESENTATION_CONTEXT() REPRESENTATION_CONTEXT('2D SPACE',''
  ) );
#1408 = ORIENTED_EDGE('',*,*,#1409,.T.);
#1409 = EDGE_CURVE('',#1378,#1410,#1412,.T.);
#1410 = VERTEX_POINT('',#1411);
#1411 = CARTESIAN_POINT('',(2.153013875942,-4.29,-26.8675));
#1412 = SURFACE_CURVE('',#1413,(#1417,#1424),.PCURVE_S1.);
#1413 = LINE('',#1414,#1415);
#1414 = CARTESIAN_POINT('',(-2.0875,-4.29,-26.8675));
#1415 = VECTOR('',#1416,1.);
#1416 = DIRECTION('',(1.,0.,0.));
#1417 = PCURVE('',#1018,#1418);
#1418 = DEFINITIONAL_REPRESENTATION('',(#1419),#1423);
#1419 = LINE('',#1420,#1421);
#1420 = CARTESIAN_POINT('',(2.0875,0.5));
#1421 = VECTOR('',#1422,1.);
#1422 = DIRECTION('',(1.,0.));
#1423 = ( GEOMETRIC_REPRESENTATION_CONTEXT(2) 
PARAMETRIC_REPRESENTATION_CONTEXT() REPRESENTATION_CONTEXT('2D SPACE',''
  ) );
#1424 = PCURVE('',#1425,#1430);
#1425 = PLANE('',#1426);
#1426 = AXIS2_PLACEMENT_3D('',#1427,#1428,#1429);
#1427 = CARTESIAN_POINT('',(0.,-4.29,-25.28));
#1428 = DIRECTION('',(0.,1.,0.));
#1429 = DIRECTION('',(0.,-0.,1.));
#1430 = DEFINITIONAL_REPRESENTATION('',(#1431),#1435);
#1431 = LINE('',#1432,#1433);
#1432 = CARTESIAN_POINT('',(-1.5875,-2.0875));
#1433 = VECTOR('',#1434,1.);
#1434 = DIRECTION('',(0.,1.));
#1435 = ( GEOMETRIC_REPRESENTATION_CONTEXT(2) 
PARAMETRIC_REPRESENTATION_CONTEXT() REPRESENTATION_CONTEXT('2D SPACE',''
  ) );
#1436 = ORIENTED_EDGE('',*,*,#1437,.F.);
#1437 = EDGE_CURVE('',#1438,#1410,#1440,.T.);
#1438 = VERTEX_POINT('',#1439);
#1439 = CARTESIAN_POINT('',(2.749630657016,-3.79,-26.8675));
#1440 = SURFACE_CURVE('',#1441,(#1446,#1453),.PCURVE_S1.);
#1441 = HYPERBOLA('',#1442,1.5875,1.5875);
#1442 = AXIS2_PLACEMENT_3D('',#1443,#1444,#1445);
#1443 = CARTESIAN_POINT('',(0.,-6.965,-26.8675));
#1444 = DIRECTION('',(0.,0.,1.));
#1445 = DIRECTION('',(0.,1.,-0.));
#1446 = PCURVE('',#1018,#1447);
#1447 = DEFINITIONAL_REPRESENTATION('',(#1448),#1452);
#1448 = HYPERBOLA('',#1449,1.5875,1.5875);
#1449 = AXIS2_PLACEMENT_2D('',#1450,#1451);
#1450 = CARTESIAN_POINT('',(4.175,-2.175));
#1451 = DIRECTION('',(0.,1.));
#1452 = ( GEOMETRIC_REPRESENTATION_CONTEXT(2) 
PARAMETRIC_REPRESENTATION_CONTEXT() REPRESENTATION_CONTEXT('2D SPACE',''
  ) );
#1453 = PCURVE('',#1454,#1459);
#1454 = CONICAL_SURFACE('',#1455,2.675,0.785398163397);
#1455 = AXIS2_PLACEMENT_3D('',#1456,#1457,#1458);
#1456 = CARTESIAN_POINT('',(0.,-4.29,-25.28));
#1457 = DIRECTION('',(0.,1.,0.));
#1458 = DIRECTION('',(0.,-0.,1.));
#1459 = DEFINITIONAL_REPRESENTATION('',(#1460),#1467);
#1460 = B_SPLINE_CURVE_WITH_KNOTS('',5,(#1461,#1462,#1463,#1464,#1465,
    #1466),.UNSPECIFIED.,.F.,.F.,(6,6),(-1.316957896925,-1.112274725502)
  ,.PIECEWISE_BEZIER_KNOTS.);
#1461 = CARTESIAN_POINT('',(2.094395102393,0.5));
#1462 = CARTESIAN_POINT('',(2.114863419535,0.387439375376));
#1463 = CARTESIAN_POINT('',(2.136238800733,0.281529607286));
#1464 = CARTESIAN_POINT('',(2.158556934382,0.18187775994));
#1465 = CARTESIAN_POINT('',(2.181850529389,8.813714164886E-02));
#1466 = CARTESIAN_POINT('',(2.206144700203,4.440892098501E-16));
#1467 = ( GEOMETRIC_REPRESENTATION_CONTEXT(2) 
PARAMETRIC_REPRESENTATION_CONTEXT() REPRESENTATION_CONTEXT('2D SPACE',''
  ) );
#1468 = ORIENTED_EDGE('',*,*,#1469,.T.);
#1469 = EDGE_CURVE('',#1438,#1004,#1470,.T.);
#1470 = SURFACE_CURVE('',#1471,(#1475,#1482),.PCURVE_S1.);
#1471 = LINE('',#1472,#1473);
#1472 = CARTESIAN_POINT('',(2.749630657016,-3.79,-26.8675));
#1473 = VECTOR('',#1474,1.);
#1474 = DIRECTION('',(0.,1.,0.));
#1475 = PCURVE('',#1018,#1476);
#1476 = DEFINITIONAL_REPRESENTATION('',(#1477),#1481);
#1477 = LINE('',#1478,#1479);
#1478 = CARTESIAN_POINT('',(6.924630657016,1.));
#1479 = VECTOR('',#1480,1.);
#1480 = DIRECTION('',(0.,1.));
#1481 = ( GEOMETRIC_REPRESENTATION_CONTEXT(2) 
PARAMETRIC_REPRESENTATION_CONTEXT() REPRESENTATION_CONTEXT('2D SPACE',''
  ) );
#1482 = PCURVE('',#1101,#1483);
#1483 = DEFINITIONAL_REPRESENTATION('',(#1484),#1487);
#1484 = B_SPLINE_CURVE_WITH_KNOTS('',1,(#1485,#1486),.UNSPECIFIED.,.F.,
  .F.,(2,2),(-5.999999999062E-07,4.3900006),.PIECEWISE_BEZIER_KNOTS.);
#1485 = CARTESIAN_POINT('',(2.094395102393,-5.999999999062E-07));
#1486 = CARTESIAN_POINT('',(2.094395102393,4.3900006));
#1487 = ( GEOMETRIC_REPRESENTATION_CONTEXT(2) 
PARAMETRIC_REPRESENTATION_CONTEXT() REPRESENTATION_CONTEXT('2D SPACE',''
  ) );
#1488 = ORIENTED_EDGE('',*,*,#1001,.F.);
#1489 = ADVANCED_FACE('',(#1490),#1047,.T.);
#1490 = FACE_BOUND('',#1491,.T.);
#1491 = EDGE_LOOP('',(#1492,#1493,#1515,#1537));
#1492 = ORIENTED_EDGE('',*,*,#1030,.F.);
#1493 = ORIENTED_EDGE('',*,*,#1494,.F.);
#1494 = EDGE_CURVE('',#1495,#1031,#1497,.T.);
#1495 = VERTEX_POINT('',#1496);
#1496 = CARTESIAN_POINT('',(-2.523854938383,-3.79,-26.8675));
#1497 = SURFACE_CURVE('',#1498,(#1502,#1508),.PCURVE_S1.);
#1498 = LINE('',#1499,#1500);
#1499 = CARTESIAN_POINT('',(-2.523854938383,-3.79,-26.8675));
#1500 = VECTOR('',#1501,1.);
#1501 = DIRECTION('',(0.,1.,0.));
#1502 = PCURVE('',#1047,#1503);
#1503 = DEFINITIONAL_REPRESENTATION('',(#1504),#1507);
#1504 = B_SPLINE_CURVE_WITH_KNOTS('',1,(#1505,#1506),.UNSPECIFIED.,.F.,
  .F.,(2,2),(0.,3.94),.PIECEWISE_BEZIER_KNOTS.);
#1505 = CARTESIAN_POINT('',(4.264531053341,0.));
#1506 = CARTESIAN_POINT('',(4.264531053341,3.94));
#1507 = ( GEOMETRIC_REPRESENTATION_CONTEXT(2) 
PARAMETRIC_REPRESENTATION_CONTEXT() REPRESENTATION_CONTEXT('2D SPACE',''
  ) );
#1508 = PCURVE('',#1074,#1509);
#1509 = DEFINITIONAL_REPRESENTATION('',(#1510),#1514);
#1510 = LINE('',#1511,#1512);
#1511 = CARTESIAN_POINT('',(1.651145061617,1.));
#1512 = VECTOR('',#1513,1.);
#1513 = DIRECTION('',(0.,1.));
#1514 = ( GEOMETRIC_REPRESENTATION_CONTEXT(2) 
PARAMETRIC_REPRESENTATION_CONTEXT() REPRESENTATION_CONTEXT('2D SPACE',''
  ) );
#1515 = ORIENTED_EDGE('',*,*,#1516,.T.);
#1516 = EDGE_CURVE('',#1495,#1356,#1517,.T.);
#1517 = SURFACE_CURVE('',#1518,(#1523,#1530),.PCURVE_S1.);
#1518 = CIRCLE('',#1519,2.8);
#1519 = AXIS2_PLACEMENT_3D('',#1520,#1521,#1522);
#1520 = CARTESIAN_POINT('',(0.,-3.79,-25.655));
#1521 = DIRECTION('',(0.,1.,0.));
#1522 = DIRECTION('',(-0.901376763708,0.,-0.433035714286));
#1523 = PCURVE('',#1047,#1524);
#1524 = DEFINITIONAL_REPRESENTATION('',(#1525),#1529);
#1525 = LINE('',#1526,#1527);
#1526 = CARTESIAN_POINT('',(4.264531053341,0.));
#1527 = VECTOR('',#1528,1.);
#1528 = DIRECTION('',(1.,0.));
#1529 = ( GEOMETRIC_REPRESENTATION_CONTEXT(2) 
PARAMETRIC_REPRESENTATION_CONTEXT() REPRESENTATION_CONTEXT('2D SPACE',''
  ) );
#1530 = PCURVE('',#1394,#1531);
#1531 = DEFINITIONAL_REPRESENTATION('',(#1532),#1536);
#1532 = LINE('',#1533,#1534);
#1533 = CARTESIAN_POINT('',(4.264531053341,0.5));
#1534 = VECTOR('',#1535,1.);
#1535 = DIRECTION('',(1.,0.));
#1536 = ( GEOMETRIC_REPRESENTATION_CONTEXT(2) 
PARAMETRIC_REPRESENTATION_CONTEXT() REPRESENTATION_CONTEXT('2D SPACE',''
  ) );
#1537 = ORIENTED_EDGE('',*,*,#1355,.T.);
#1538 = ADVANCED_FACE('',(#1539),#1074,.T.);
#1539 = FACE_BOUND('',#1540,.T.);
#1540 = EDGE_LOOP('',(#1541,#1563,#1590,#1613,#1638,#1639));
#1541 = ORIENTED_EDGE('',*,*,#1542,.F.);
#1542 = EDGE_CURVE('',#1543,#1060,#1545,.T.);
#1543 = VERTEX_POINT('',#1544);
#1544 = CARTESIAN_POINT('',(-2.749630657016,-3.79,-26.8675));
#1545 = SURFACE_CURVE('',#1546,(#1550,#1557),.PCURVE_S1.);
#1546 = LINE('',#1547,#1548);
#1547 = CARTESIAN_POINT('',(-2.749630657016,-3.79,-26.8675));
#1548 = VECTOR('',#1549,1.);
#1549 = DIRECTION('',(0.,1.,0.));
#1550 = PCURVE('',#1074,#1551);
#1551 = DEFINITIONAL_REPRESENTATION('',(#1552),#1556);
#1552 = LINE('',#1553,#1554);
#1553 = CARTESIAN_POINT('',(1.425369342984,1.));
#1554 = VECTOR('',#1555,1.);
#1555 = DIRECTION('',(0.,1.));
#1556 = ( GEOMETRIC_REPRESENTATION_CONTEXT(2) 
PARAMETRIC_REPRESENTATION_CONTEXT() REPRESENTATION_CONTEXT('2D SPACE',''
  ) );
#1557 = PCURVE('',#1101,#1558);
#1558 = DEFINITIONAL_REPRESENTATION('',(#1559),#1562);
#1559 = B_SPLINE_CURVE_WITH_KNOTS('',1,(#1560,#1561),.UNSPECIFIED.,.F.,
  .F.,(2,2),(-5.999999999062E-07,4.3900006),.PIECEWISE_BEZIER_KNOTS.);
#1560 = CARTESIAN_POINT('',(4.188790204786,-5.999999999062E-07));
#1561 = CARTESIAN_POINT('',(4.188790204786,4.3900006));
#1562 = ( GEOMETRIC_REPRESENTATION_CONTEXT(2) 
PARAMETRIC_REPRESENTATION_CONTEXT() REPRESENTATION_CONTEXT('2D SPACE',''
  ) );
#1563 = ORIENTED_EDGE('',*,*,#1564,.F.);
#1564 = EDGE_CURVE('',#1565,#1543,#1567,.T.);
#1565 = VERTEX_POINT('',#1566);
#1566 = CARTESIAN_POINT('',(-2.153013875942,-4.29,-26.8675));
#1567 = SURFACE_CURVE('',#1568,(#1573,#1580),.PCURVE_S1.);
#1568 = HYPERBOLA('',#1569,1.5875,1.5875);
#1569 = AXIS2_PLACEMENT_3D('',#1570,#1571,#1572);
#1570 = CARTESIAN_POINT('',(0.,-6.965,-26.8675));
#1571 = DIRECTION('',(0.,0.,1.));
#1572 = DIRECTION('',(0.,1.,-0.));
#1573 = PCURVE('',#1074,#1574);
#1574 = DEFINITIONAL_REPRESENTATION('',(#1575),#1579);
#1575 = HYPERBOLA('',#1576,1.5875,1.5875);
#1576 = AXIS2_PLACEMENT_2D('',#1577,#1578);
#1577 = CARTESIAN_POINT('',(4.175,-2.175));
#1578 = DIRECTION('',(0.,1.));
#1579 = ( GEOMETRIC_REPRESENTATION_CONTEXT(2) 
PARAMETRIC_REPRESENTATION_CONTEXT() REPRESENTATION_CONTEXT('2D SPACE',''
  ) );
#1580 = PCURVE('',#1454,#1581);
#1581 = DEFINITIONAL_REPRESENTATION('',(#1582),#1589);
#1582 = B_SPLINE_CURVE_WITH_KNOTS('',5,(#1583,#1584,#1585,#1586,#1587,
    #1588),.UNSPECIFIED.,.F.,.F.,(6,6),(1.112274725502,1.316957896925),
  .PIECEWISE_BEZIER_KNOTS.);
#1583 = CARTESIAN_POINT('',(4.077040606977,-8.881784197001E-16));
#1584 = CARTESIAN_POINT('',(4.101334777791,8.813714164885E-02));
#1585 = CARTESIAN_POINT('',(4.124628372797,0.18187775994));
#1586 = CARTESIAN_POINT('',(4.146946506447,0.281529607286));
#1587 = CARTESIAN_POINT('',(4.168321887644,0.387439375376));
#1588 = CARTESIAN_POINT('',(4.188790204786,0.5));
#1589 = ( GEOMETRIC_REPRESENTATION_CONTEXT(2) 
PARAMETRIC_REPRESENTATION_CONTEXT() REPRESENTATION_CONTEXT('2D SPACE',''
  ) );
#1590 = ORIENTED_EDGE('',*,*,#1591,.T.);
#1591 = EDGE_CURVE('',#1565,#1592,#1594,.T.);
#1592 = VERTEX_POINT('',#1593);
#1593 = CARTESIAN_POINT('',(-1.954442055933,-4.29,-26.8675));
#1594 = SURFACE_CURVE('',#1595,(#1599,#1606),.PCURVE_S1.);
#1595 = LINE('',#1596,#1597);
#1596 = CARTESIAN_POINT('',(-2.0875,-4.29,-26.8675));
#1597 = VECTOR('',#1598,1.);
#1598 = DIRECTION('',(1.,0.,0.));
#1599 = PCURVE('',#1074,#1600);
#1600 = DEFINITIONAL_REPRESENTATION('',(#1601),#1605);
#1601 = LINE('',#1602,#1603);
#1602 = CARTESIAN_POINT('',(2.0875,0.5));
#1603 = VECTOR('',#1604,1.);
#1604 = DIRECTION('',(1.,0.));
#1605 = ( GEOMETRIC_REPRESENTATION_CONTEXT(2) 
PARAMETRIC_REPRESENTATION_CONTEXT() REPRESENTATION_CONTEXT('2D SPACE',''
  ) );
#1606 = PCURVE('',#1425,#1607);
#1607 = DEFINITIONAL_REPRESENTATION('',(#1608),#1612);
#1608 = LINE('',#1609,#1610);
#1609 = CARTESIAN_POINT('',(-1.5875,-2.0875));
#1610 = VECTOR('',#1611,1.);
#1611 = DIRECTION('',(0.,1.));
#1612 = ( GEOMETRIC_REPRESENTATION_CONTEXT(2) 
PARAMETRIC_REPRESENTATION_CONTEXT() REPRESENTATION_CONTEXT('2D SPACE',''
  ) );
#1613 = ORIENTED_EDGE('',*,*,#1614,.T.);
#1614 = EDGE_CURVE('',#1592,#1495,#1615,.T.);
#1615 = SURFACE_CURVE('',#1616,(#1621,#1628),.PCURVE_S1.);
#1616 = HYPERBOLA('',#1617,1.2125,1.2125);
#1617 = AXIS2_PLACEMENT_3D('',#1618,#1619,#1620);
#1618 = CARTESIAN_POINT('',(0.,-6.59,-26.8675));
#1619 = DIRECTION('',(0.,0.,1.));
#1620 = DIRECTION('',(0.,1.,-0.));
#1621 = PCURVE('',#1074,#1622);
#1622 = DEFINITIONAL_REPRESENTATION('',(#1623),#1627);
#1623 = HYPERBOLA('',#1624,1.2125,1.2125);
#1624 = AXIS2_PLACEMENT_2D('',#1625,#1626);
#1625 = CARTESIAN_POINT('',(4.175,-1.8));
#1626 = DIRECTION('',(0.,1.));
#1627 = ( GEOMETRIC_REPRESENTATION_CONTEXT(2) 
PARAMETRIC_REPRESENTATION_CONTEXT() REPRESENTATION_CONTEXT('2D SPACE',''
  ) );
#1628 = PCURVE('',#1394,#1629);
#1629 = DEFINITIONAL_REPRESENTATION('',(#1630),#1637);
#1630 = B_SPLINE_CURVE_WITH_KNOTS('',5,(#1631,#1632,#1633,#1634,#1635,
    #1636),.UNSPECIFIED.,.F.,.F.,(6,6),(1.255279282908,1.479513309597),
  .PIECEWISE_BEZIER_KNOTS.);
#1631 = CARTESIAN_POINT('',(4.157117616548,2.22044604925E-16));
#1632 = CARTESIAN_POINT('',(4.180759682405,8.765048242661E-02));
#1633 = CARTESIAN_POINT('',(4.20327552115,0.181083258514));
#1634 = CARTESIAN_POINT('',(4.224709203304,0.280665653667));
#1635 = CARTESIAN_POINT('',(4.245110784958,0.386813168877));
#1636 = CARTESIAN_POINT('',(4.264531053341,0.5));
#1637 = ( GEOMETRIC_REPRESENTATION_CONTEXT(2) 
PARAMETRIC_REPRESENTATION_CONTEXT() REPRESENTATION_CONTEXT('2D SPACE',''
  ) );
#1638 = ORIENTED_EDGE('',*,*,#1494,.T.);
#1639 = ORIENTED_EDGE('',*,*,#1059,.F.);
#1640 = ADVANCED_FACE('',(#1641),#1101,.T.);
#1641 = FACE_BOUND('',#1642,.T.);
#1642 = EDGE_LOOP('',(#1643,#1644,#1645,#1667));
#1643 = ORIENTED_EDGE('',*,*,#1086,.F.);
#1644 = ORIENTED_EDGE('',*,*,#1469,.F.);
#1645 = ORIENTED_EDGE('',*,*,#1646,.T.);
#1646 = EDGE_CURVE('',#1438,#1543,#1647,.T.);
#1647 = SURFACE_CURVE('',#1648,(#1653,#1660),.PCURVE_S1.);
#1648 = CIRCLE('',#1649,3.175);
#1649 = AXIS2_PLACEMENT_3D('',#1650,#1651,#1652);
#1650 = CARTESIAN_POINT('',(0.,-3.79,-25.28));
#1651 = DIRECTION('',(0.,1.,0.));
#1652 = DIRECTION('',(0.866025403784,0.,-0.5));
#1653 = PCURVE('',#1101,#1654);
#1654 = DEFINITIONAL_REPRESENTATION('',(#1655),#1659);
#1655 = LINE('',#1656,#1657);
#1656 = CARTESIAN_POINT('',(2.094395102393,0.));
#1657 = VECTOR('',#1658,1.);
#1658 = DIRECTION('',(1.,0.));
#1659 = ( GEOMETRIC_REPRESENTATION_CONTEXT(2) 
PARAMETRIC_REPRESENTATION_CONTEXT() REPRESENTATION_CONTEXT('2D SPACE',''
  ) );
#1660 = PCURVE('',#1454,#1661);
#1661 = DEFINITIONAL_REPRESENTATION('',(#1662),#1666);
#1662 = LINE('',#1663,#1664);
#1663 = CARTESIAN_POINT('',(2.094395102393,0.5));
#1664 = VECTOR('',#1665,1.);
#1665 = DIRECTION('',(1.,0.));
#1666 = ( GEOMETRIC_REPRESENTATION_CONTEXT(2) 
PARAMETRIC_REPRESENTATION_CONTEXT() REPRESENTATION_CONTEXT('2D SPACE',''
  ) );
#1667 = ORIENTED_EDGE('',*,*,#1542,.T.);
#1668 = ADVANCED_FACE('',(#1669),#1172,.F.);
#1669 = FACE_BOUND('',#1670,.F.);
#1670 = EDGE_LOOP('',(#1671,#1672,#1673,#1674));
#1671 = ORIENTED_EDGE('',*,*,#1281,.T.);
#1672 = ORIENTED_EDGE('',*,*,#1230,.T.);
#1673 = ORIENTED_EDGE('',*,*,#1154,.F.);
#1674 = ORIENTED_EDGE('',*,*,#1328,.F.);
#1675 = ADVANCED_FACE('',(#1676),#1394,.T.);
#1676 = FACE_BOUND('',#1677,.T.);
#1677 = EDGE_LOOP('',(#1678,#1700,#1701,#1702));
#1678 = ORIENTED_EDGE('',*,*,#1679,.T.);
#1679 = EDGE_CURVE('',#1592,#1378,#1680,.T.);
#1680 = SURFACE_CURVE('',#1681,(#1686,#1693),.PCURVE_S1.);
#1681 = CIRCLE('',#1682,2.3);
#1682 = AXIS2_PLACEMENT_3D('',#1683,#1684,#1685);
#1683 = CARTESIAN_POINT('',(0.,-4.29,-25.655));
#1684 = DIRECTION('',(0.,1.,0.));
#1685 = DIRECTION('',(-0.849757415623,0.,-0.527173913043));
#1686 = PCURVE('',#1394,#1687);
#1687 = DEFINITIONAL_REPRESENTATION('',(#1688),#1692);
#1688 = LINE('',#1689,#1690);
#1689 = CARTESIAN_POINT('',(4.157117616548,0.));
#1690 = VECTOR('',#1691,1.);
#1691 = DIRECTION('',(1.,0.));
#1692 = ( GEOMETRIC_REPRESENTATION_CONTEXT(2) 
PARAMETRIC_REPRESENTATION_CONTEXT() REPRESENTATION_CONTEXT('2D SPACE',''
  ) );
#1693 = PCURVE('',#1425,#1694);
#1694 = DEFINITIONAL_REPRESENTATION('',(#1695),#1699);
#1695 = CIRCLE('',#1696,2.3);
#1696 = AXIS2_PLACEMENT_2D('',#1697,#1698);
#1697 = CARTESIAN_POINT('',(-0.375,0.));
#1698 = DIRECTION('',(-0.527173913043,-0.849757415623));
#1699 = ( GEOMETRIC_REPRESENTATION_CONTEXT(2) 
PARAMETRIC_REPRESENTATION_CONTEXT() REPRESENTATION_CONTEXT('2D SPACE',''
  ) );
#1700 = ORIENTED_EDGE('',*,*,#1377,.F.);
#1701 = ORIENTED_EDGE('',*,*,#1516,.F.);
#1702 = ORIENTED_EDGE('',*,*,#1614,.F.);
#1703 = ADVANCED_FACE('',(#1704),#1454,.T.);
#1704 = FACE_BOUND('',#1705,.T.);
#1705 = EDGE_LOOP('',(#1706,#1707,#1708,#1730));
#1706 = ORIENTED_EDGE('',*,*,#1646,.F.);
#1707 = ORIENTED_EDGE('',*,*,#1437,.T.);
#1708 = ORIENTED_EDGE('',*,*,#1709,.T.);
#1709 = EDGE_CURVE('',#1410,#1565,#1710,.T.);
#1710 = SURFACE_CURVE('',#1711,(#1716,#1723),.PCURVE_S1.);
#1711 = CIRCLE('',#1712,2.675);
#1712 = AXIS2_PLACEMENT_3D('',#1713,#1714,#1715);
#1713 = CARTESIAN_POINT('',(0.,-4.29,-25.28));
#1714 = DIRECTION('',(0.,1.,0.));
#1715 = DIRECTION('',(0.804865000352,0.,-0.593457943925));
#1716 = PCURVE('',#1454,#1717);
#1717 = DEFINITIONAL_REPRESENTATION('',(#1718),#1722);
#1718 = LINE('',#1719,#1720);
#1719 = CARTESIAN_POINT('',(2.206144700203,0.));
#1720 = VECTOR('',#1721,1.);
#1721 = DIRECTION('',(1.,0.));
#1722 = ( GEOMETRIC_REPRESENTATION_CONTEXT(2) 
PARAMETRIC_REPRESENTATION_CONTEXT() REPRESENTATION_CONTEXT('2D SPACE',''
  ) );
#1723 = PCURVE('',#1425,#1724);
#1724 = DEFINITIONAL_REPRESENTATION('',(#1725),#1729);
#1725 = CIRCLE('',#1726,2.675);
#1726 = AXIS2_PLACEMENT_2D('',#1727,#1728);
#1727 = CARTESIAN_POINT('',(0.,0.));
#1728 = DIRECTION('',(-0.593457943925,0.804865000352));
#1729 = ( GEOMETRIC_REPRESENTATION_CONTEXT(2) 
PARAMETRIC_REPRESENTATION_CONTEXT() REPRESENTATION_CONTEXT('2D SPACE',''
  ) );
#1730 = ORIENTED_EDGE('',*,*,#1564,.T.);
#1731 = ADVANCED_FACE('',(#1732),#1425,.F.);
#1732 = FACE_BOUND('',#1733,.F.);
#1733 = EDGE_LOOP('',(#1734,#1735,#1736,#1737));
#1734 = ORIENTED_EDGE('',*,*,#1709,.T.);
#1735 = ORIENTED_EDGE('',*,*,#1591,.T.);
#1736 = ORIENTED_EDGE('',*,*,#1679,.T.);
#1737 = ORIENTED_EDGE('',*,*,#1409,.T.);
#1738 = ( GEOMETRIC_REPRESENTATION_CONTEXT(3) 
GLOBAL_UNCERTAINTY_ASSIGNED_CONTEXT((#1742)) 
GLOBAL_UNIT_ASSIGNED_CONTEXT((#1739,#1740,#1741)) REPRESENTATION_CONTEXT
('Context #1','3D Context with UNIT and UNCERTAINTY') );
#1739 = ( LENGTH_UNIT() NAMED_UNIT(*) SI_UNIT(.MILLI.,.METRE.) );
#1740 = ( NAMED_UNIT(*) PLANE_ANGLE_UNIT() SI_UNIT($,.RADIAN.) );
#1741 = ( NAMED_UNIT(*) SI_UNIT($,.STERADIAN.) SOLID_ANGLE_UNIT() );
#1742 = UNCERTAINTY_MEASURE_WITH_UNIT(LENGTH_MEASURE(2.E-06),#1739,
  'distance_accuracy_value','confusion accuracy');
#1743 = PRODUCT_RELATED_PRODUCT_CATEGORY('part',$,(#7));
ENDSEC;
END-ISO-10303-21;
